<svg width="1298" height="807" viewBox="0 0 1298 807" fill="none" xmlns="http://www.w3.org/2000/svg">
<g opacity="0.21" clip-path="url(#clip0_825_8)">
<path d="M194.399 76.5818C193.387 78.3358 190.722 77.7713 190.507 75.7573L188.87 60.3719C188.802 59.7317 188.443 59.1586 187.897 58.818L175.024 50.7937C173.366 49.7601 173.904 47.2193 175.839 46.9468L190.86 44.8314C191.497 44.7415 192.058 44.3632 192.38 43.8056L200.115 30.4056C201.127 28.6517 203.792 29.2162 204.007 31.2301L205.644 46.6155C205.712 47.2557 206.071 47.8289 206.617 48.1695L219.49 56.1937C221.148 57.2274 220.61 59.7681 218.675 60.0407L203.654 62.1561C203.017 62.2459 202.456 62.6243 202.134 63.1819L194.399 76.5818Z" fill="#9D9CA8"/>
</g>
<g opacity="0.21" clip-path="url(#clip1_825_8)">
<path d="M544.399 692.582C543.387 694.336 540.722 693.771 540.507 691.757L538.87 676.372C538.802 675.731 538.443 675.158 537.897 674.818L525.024 666.793C523.366 665.76 523.904 663.219 525.839 662.947L540.86 660.831C541.497 660.741 542.058 660.363 542.38 659.805L550.115 646.405C551.127 644.651 553.792 645.216 554.007 647.23L555.644 662.615C555.712 663.255 556.071 663.829 556.617 664.169L569.49 672.193C571.148 673.227 570.61 675.768 568.675 676.04L553.654 678.156C553.017 678.246 552.456 678.624 552.134 679.182L544.399 692.582Z" fill="#9D9CA8"/>
</g>
<g opacity="0.21" clip-path="url(#clip2_825_8)">
<path d="M1022.4 60.5819C1021.39 62.336 1018.72 61.7714 1018.51 59.7575L1016.87 44.372C1016.8 43.7319 1016.44 43.1587 1015.9 42.8181L1003.02 34.7939C1001.37 33.7602 1001.9 31.2195 1003.84 30.9469L1018.86 28.8315C1019.5 28.7417 1020.06 28.3633 1020.38 27.8057L1028.11 14.4057C1029.13 12.6518 1031.79 13.2163 1032.01 15.2302L1033.64 30.6156C1033.71 31.2559 1034.07 31.829 1034.62 32.1696L1047.49 40.1939C1049.15 41.2275 1048.61 43.7683 1046.67 44.0408L1031.65 46.1562C1031.02 46.2461 1030.46 46.6244 1030.13 47.182L1022.4 60.5819Z" fill="#9D9CA8"/>
</g>
<g opacity="0.21" clip-path="url(#clip3_825_8)">
<path d="M928.399 186.582C927.387 188.336 924.722 187.772 924.507 185.758L922.87 170.372C922.802 169.732 922.443 169.159 921.897 168.818L909.024 160.794C907.366 159.76 907.905 157.22 909.839 156.947L924.86 154.832C925.497 154.742 926.058 154.364 926.38 153.806L934.115 140.406C935.127 138.652 937.792 139.217 938.007 141.23L939.644 156.616C939.712 157.256 940.071 157.829 940.617 158.17L953.49 166.194C955.148 167.228 954.61 169.768 952.675 170.041L937.654 172.156C937.017 172.246 936.456 172.625 936.134 173.182L928.399 186.582Z" fill="#9D9CA8"/>
</g>
<g opacity="0.21" clip-path="url(#clip4_825_8)">
<path d="M859.069 56.0516C857.81 58.2063 854.528 57.4811 854.294 54.9964L853.701 48.6974C853.627 47.9107 853.195 47.2018 852.529 46.7755L847.034 43.254C845.022 41.9645 845.706 38.8672 848.074 38.5457L854.542 37.6677C855.325 37.5614 856.016 37.1006 856.414 36.4183L859.606 30.9559C860.866 28.8011 864.148 29.5264 864.382 32.0111L864.975 38.31C865.049 39.0967 865.481 39.8056 866.146 40.2319L871.642 43.7535C873.654 45.0429 872.969 48.1402 870.601 48.4618L864.134 49.3397C863.351 49.446 862.66 49.9068 862.262 50.5891L859.069 56.0516Z" fill="#9D9CA8"/>
</g>
<g opacity="0.21" clip-path="url(#clip5_825_8)">
<path d="M886.713 61.0353C886.106 62.0998 884.491 61.7577 884.369 60.5387L884.135 58.2228C884.096 57.8379 883.883 57.4922 883.556 57.2855L881.46 55.9607C880.473 55.3371 880.794 53.8223 881.949 53.6524L884.402 53.2913C884.785 53.235 885.12 53.0056 885.312 52.6694L886.464 50.6471C887.071 49.5826 888.686 49.9248 888.808 51.1438L889.042 53.4596C889.08 53.8446 889.294 54.1903 889.621 54.397L891.717 55.7217C892.704 56.3453 892.383 57.8601 891.228 58.0301L888.775 58.3911C888.392 58.4475 888.057 58.6768 887.865 59.013L886.713 61.0353Z" fill="#9D9CA8"/>
</g>
<g opacity="0.21" clip-path="url(#clip6_825_8)">
<path d="M591.784 685.048C591.178 686.112 589.563 685.77 589.44 684.551L589.207 682.235C589.168 681.85 588.954 681.505 588.627 681.298L586.531 679.973C585.545 679.35 585.865 677.835 587.02 677.665L589.473 677.304C589.856 677.247 590.192 677.018 590.383 676.682L591.535 674.66C592.142 673.595 593.757 673.937 593.88 675.156L594.113 677.472C594.152 677.857 594.366 678.203 594.693 678.409L596.789 679.734C597.775 680.358 597.455 681.873 596.3 682.043L593.847 682.404C593.464 682.46 593.128 682.689 592.937 683.026L591.784 685.048Z" fill="#9D9CA8"/>
</g>
<g opacity="0.21" clip-path="url(#clip7_825_8)">
<path d="M885.399 771.582C884.387 773.336 881.722 772.772 881.507 770.758L879.87 755.372C879.802 754.732 879.443 754.159 878.897 753.818L866.024 745.794C864.366 744.76 864.905 742.22 866.839 741.947L881.86 739.832C882.497 739.742 883.058 739.363 883.38 738.806L891.115 725.406C892.127 723.652 894.792 724.216 895.007 726.23L896.644 741.616C896.712 742.256 897.071 742.829 897.617 743.17L910.49 751.194C912.148 752.228 911.61 754.768 909.675 755.041L894.654 757.156C894.017 757.246 893.456 757.625 893.134 758.182L885.399 771.582Z" fill="#9D9CA8"/>
</g>
<g opacity="0.21" clip-path="url(#clip8_825_8)">
<path d="M658.399 739.582C657.387 741.336 654.722 740.771 654.507 738.757L652.87 723.372C652.802 722.732 652.443 722.159 651.897 721.818L639.024 713.794C637.366 712.76 637.904 710.219 639.839 709.947L654.86 707.831C655.497 707.742 656.058 707.363 656.38 706.806L664.115 693.406C665.127 691.652 667.792 692.216 668.007 694.23L669.644 709.616C669.712 710.256 670.071 710.829 670.617 711.17L683.49 719.194C685.148 720.227 684.61 722.768 682.675 723.041L667.654 725.156C667.017 725.246 666.456 725.624 666.134 726.182L658.399 739.582Z" fill="#9D9CA8"/>
</g>
<g opacity="0.21" clip-path="url(#clip9_825_8)">
<path d="M354.399 773.582C353.387 775.336 350.722 774.772 350.507 772.758L348.87 757.372C348.802 756.732 348.443 756.159 347.897 755.818L335.024 747.794C333.366 746.76 333.904 744.22 335.839 743.947L350.86 741.832C351.497 741.742 352.058 741.363 352.38 740.806L360.115 727.406C361.127 725.652 363.792 726.216 364.007 728.23L365.644 743.616C365.712 744.256 366.071 744.829 366.617 745.17L379.49 753.194C381.148 754.228 380.61 756.768 378.675 757.041L363.654 759.156C363.017 759.246 362.456 759.625 362.134 760.182L354.399 773.582Z" fill="#9D9CA8"/>
</g>
<g opacity="0.21" clip-path="url(#clip10_825_8)">
<path d="M1050.4 679.582C1049.39 681.336 1046.72 680.772 1046.51 678.758L1044.87 663.372C1044.8 662.732 1044.44 662.159 1043.9 661.818L1031.02 653.794C1029.37 652.76 1029.9 650.22 1031.84 649.947L1046.86 647.832C1047.5 647.742 1048.06 647.363 1048.38 646.806L1056.11 633.406C1057.13 631.652 1059.79 632.216 1060.01 634.23L1061.64 649.616C1061.71 650.256 1062.07 650.829 1062.62 651.17L1075.49 659.194C1077.15 660.228 1076.61 662.768 1074.67 663.041L1059.65 665.156C1059.02 665.246 1058.46 665.625 1058.13 666.182L1050.4 679.582Z" fill="#9D9CA8"/>
</g>
<g opacity="0.21" clip-path="url(#clip11_825_8)">
<path d="M251.069 150.051C249.81 152.206 246.528 151.481 246.294 148.996L245.701 142.697C245.627 141.91 245.195 141.202 244.529 140.775L239.034 137.254C237.022 135.964 237.707 132.867 240.074 132.546L246.542 131.667C247.325 131.561 248.016 131.1 248.414 130.418L251.607 124.956C252.866 122.801 256.148 123.526 256.382 126.011L256.975 132.31C257.049 133.096 257.481 133.805 258.146 134.232L263.642 137.753C265.654 139.043 264.969 142.14 262.601 142.462L256.134 143.34C255.351 143.446 254.66 143.907 254.262 144.589L251.069 150.051Z" fill="#9D9CA8"/>
</g>
<g opacity="0.21" clip-path="url(#clip12_825_8)">
<path d="M186.069 730.051C184.81 732.206 181.528 731.481 181.294 728.996L180.701 722.697C180.627 721.91 180.195 721.202 179.529 720.775L174.034 717.254C172.022 715.964 172.707 712.867 175.074 712.546L181.542 711.667C182.325 711.561 183.016 711.1 183.414 710.418L186.607 704.956C187.866 702.801 191.148 703.526 191.382 706.011L191.975 712.31C192.049 713.097 192.481 713.805 193.146 714.232L198.642 717.753C200.654 719.043 199.969 722.14 197.601 722.462L191.134 723.34C190.351 723.446 189.66 723.907 189.262 724.589L186.069 730.051Z" fill="#9D9CA8"/>
</g>
<g opacity="0.21" clip-path="url(#clip13_825_8)">
<path d="M407.399 152.582C406.387 154.336 403.722 153.771 403.507 151.757L401.87 136.372C401.802 135.732 401.443 135.158 400.897 134.818L388.024 126.794C386.366 125.76 386.904 123.219 388.839 122.947L403.86 120.831C404.497 120.741 405.058 120.363 405.38 119.805L413.115 106.405C414.127 104.651 416.792 105.216 417.007 107.23L418.644 122.615C418.712 123.256 419.071 123.829 419.617 124.169L432.49 132.194C434.148 133.227 433.61 135.768 431.675 136.04L416.654 138.156C416.017 138.246 415.456 138.624 415.134 139.182L407.399 152.582Z" fill="#9D9CA8"/>
</g>
<g opacity="0.21" clip-path="url(#clip14_825_8)">
<path d="M37.8135 578.034C36.801 579.788 34.1359 579.223 33.9216 577.21L32.2844 561.824C32.2162 561.184 31.8572 560.611 31.3109 560.27L18.4385 552.246C16.7804 551.212 17.3186 548.672 19.2534 548.399L34.2738 546.284C34.9113 546.194 35.4719 545.815 35.7938 545.258L43.5289 531.858C44.5414 530.104 47.2065 530.668 47.4208 532.682L49.058 548.068C49.1262 548.708 49.4852 549.281 50.0315 549.622L62.9039 557.646C64.562 558.68 64.0238 561.22 62.089 561.493L47.0686 563.608C46.4311 563.698 45.8705 564.076 45.5486 564.634L37.8135 578.034Z" fill="#9D9CA8"/>
</g>
<g opacity="0.21" clip-path="url(#clip15_825_8)">
<path d="M1222.81 189.034C1221.8 190.788 1219.14 190.224 1218.92 188.21L1217.28 172.824C1217.22 172.184 1216.86 171.611 1216.31 171.27L1203.44 163.246C1201.78 162.212 1202.32 159.672 1204.25 159.399L1219.27 157.284C1219.91 157.194 1220.47 156.815 1220.79 156.258L1228.53 142.858C1229.54 141.104 1232.21 141.668 1232.42 143.682L1234.06 159.068C1234.13 159.708 1234.49 160.281 1235.03 160.622L1247.9 168.646C1249.56 169.68 1249.02 172.22 1247.09 172.493L1232.07 174.608C1231.43 174.698 1230.87 175.077 1230.55 175.634L1222.81 189.034Z" fill="#9D9CA8"/>
</g>
<g opacity="0.21" clip-path="url(#clip16_825_8)">
<path d="M19.0695 386.052C17.8102 388.206 14.5281 387.481 14.2942 384.996L13.7009 378.697C13.6269 377.911 13.1948 377.202 12.5295 376.775L7.03407 373.254C5.02209 371.965 5.70653 368.867 8.07447 368.546L14.5421 367.668C15.3251 367.561 16.0156 367.101 16.4143 366.418L19.6065 360.956C20.8656 358.801 24.1478 359.526 24.3818 362.011L24.9749 368.31C25.049 369.097 25.4811 369.806 26.1464 370.232L31.6418 373.754C33.6538 375.043 32.9694 378.14 30.6014 378.462L24.1338 379.34C23.3508 379.446 22.6603 379.907 22.2615 380.589L19.0695 386.052Z" fill="#9D9CA8"/>
</g>
<g opacity="0.21" clip-path="url(#clip17_825_8)">
<path d="M1241.4 737.582C1240.39 739.336 1237.72 738.771 1237.51 736.757L1235.87 721.372C1235.8 720.732 1235.44 720.159 1234.9 719.818L1222.02 711.794C1220.37 710.76 1220.9 708.219 1222.84 707.947L1237.86 705.831C1238.5 705.742 1239.06 705.363 1239.38 704.806L1247.11 691.406C1248.13 689.652 1250.79 690.216 1251.01 692.23L1252.64 707.616C1252.71 708.256 1253.07 708.829 1253.62 709.169L1266.49 717.194C1268.15 718.227 1267.61 720.768 1265.67 721.041L1250.65 723.156C1250.02 723.246 1249.46 723.624 1249.13 724.182L1241.4 737.582Z" fill="#9D9CA8"/>
</g>
<g opacity="0.21" clip-path="url(#clip18_825_8)">
<path d="M1258.4 524.582C1257.39 526.336 1254.72 525.771 1254.51 523.757L1252.87 508.372C1252.8 507.732 1252.44 507.159 1251.9 506.818L1239.02 498.794C1237.37 497.76 1237.9 495.219 1239.84 494.947L1254.86 492.831C1255.5 492.742 1256.06 492.363 1256.38 491.806L1264.11 478.406C1265.13 476.652 1267.79 477.216 1268.01 479.23L1269.64 494.615C1269.71 495.256 1270.07 495.829 1270.62 496.169L1283.49 504.194C1285.15 505.227 1284.61 507.768 1282.67 508.041L1267.65 510.156C1267.02 510.246 1266.46 510.624 1266.13 511.182L1258.4 524.582Z" fill="#9D9CA8"/>
</g>
<g opacity="0.21" clip-path="url(#clip19_825_8)">
<path d="M1269.07 345.052C1267.81 347.206 1264.53 346.481 1264.29 343.996L1263.7 337.697C1263.63 336.911 1263.19 336.202 1262.53 335.775L1257.03 332.254C1255.02 330.965 1255.71 327.867 1258.07 327.546L1264.54 326.668C1265.33 326.561 1266.02 326.101 1266.41 325.418L1269.61 319.956C1270.87 317.801 1274.15 318.526 1274.38 321.011L1274.97 327.31C1275.05 328.097 1275.48 328.806 1276.15 329.232L1281.64 332.754C1283.65 334.043 1282.97 337.14 1280.6 337.462L1274.13 338.34C1273.35 338.446 1272.66 338.907 1272.26 339.589L1269.07 345.052Z" fill="#9D9CA8"/>
</g>
<g opacity="0.21" clip-path="url(#clip20_825_8)">
<path d="M29.8135 218.034C28.801 219.788 26.1359 219.224 25.9216 217.21L24.2844 201.824C24.2162 201.184 23.8572 200.611 23.3109 200.27L10.4385 192.246C8.78041 191.212 9.31864 188.672 11.2534 188.399L26.2738 186.284C26.9113 186.194 27.4719 185.815 27.7938 185.258L35.5289 171.858C36.5414 170.104 39.2065 170.669 39.4208 172.682L41.058 188.068C41.1262 188.708 41.4852 189.281 42.0315 189.622L54.9039 197.646C56.562 198.68 56.0238 201.22 54.089 201.493L39.0686 203.608C38.4311 203.698 37.8705 204.077 37.5486 204.634L29.8135 218.034Z" fill="#9D9CA8"/>
</g>
<path d="M514.198 802.275C512.939 804.429 509.657 803.704 509.423 801.219L508.83 794.921C508.756 794.134 508.324 793.425 507.658 792.999L502.163 789.477C500.151 788.188 500.835 785.09 503.203 784.769L509.671 783.891C510.454 783.785 511.144 783.324 511.543 782.641L514.735 777.179C515.994 775.024 519.277 775.75 519.511 778.234L520.104 784.533C520.178 785.32 520.61 786.029 521.275 786.455L526.771 789.977C528.783 791.266 528.098 794.363 525.73 794.685L519.263 795.563C518.48 795.669 517.789 796.13 517.39 796.812L514.198 802.275Z" fill="#E7E7E7"/>
<defs>
<clipPath id="clip0_825_8">
<rect width="61.4436" height="56.9224" fill="white" transform="translate(222.11 84.4202) rotate(-168.039)"/>
</clipPath>
<clipPath id="clip1_825_8">
<rect width="61.4436" height="56.9224" fill="white" transform="translate(572.11 700.42) rotate(-168.039)"/>
</clipPath>
<clipPath id="clip2_825_8">
<rect width="61.4436" height="56.9224" fill="white" transform="translate(1050.11 68.4203) rotate(-168.039)"/>
</clipPath>
<clipPath id="clip3_825_8">
<rect width="61.4436" height="56.9224" fill="white" transform="translate(956.11 194.42) rotate(-168.039)"/>
</clipPath>
<clipPath id="clip4_825_8">
<rect width="29.54" height="29.54" fill="white" transform="translate(870.844 61.218) rotate(-167.539)"/>
</clipPath>
<clipPath id="clip5_825_8">
<rect width="13.1" height="13.1" fill="white" transform="translate(891.744 63.5178) rotate(-168.039)"/>
</clipPath>
<clipPath id="clip6_825_8">
<rect width="13.1" height="13.1" fill="white" transform="translate(596.816 687.53) rotate(-168.039)"/>
</clipPath>
<clipPath id="clip7_825_8">
<rect width="61.4436" height="56.9224" fill="white" transform="translate(913.11 779.42) rotate(-168.039)"/>
</clipPath>
<clipPath id="clip8_825_8">
<rect width="61.4436" height="56.9224" fill="white" transform="translate(686.11 747.42) rotate(-168.039)"/>
</clipPath>
<clipPath id="clip9_825_8">
<rect width="61.4436" height="56.9224" fill="white" transform="translate(382.11 781.42) rotate(-168.039)"/>
</clipPath>
<clipPath id="clip10_825_8">
<rect width="61.4436" height="56.9224" fill="white" transform="translate(1078.11 687.42) rotate(-168.039)"/>
</clipPath>
<clipPath id="clip11_825_8">
<rect width="29.54" height="29.54" fill="white" transform="translate(262.844 155.218) rotate(-167.539)"/>
</clipPath>
<clipPath id="clip12_825_8">
<rect width="29.54" height="29.54" fill="white" transform="translate(197.844 735.218) rotate(-167.539)"/>
</clipPath>
<clipPath id="clip13_825_8">
<rect width="61.4436" height="56.9224" fill="white" transform="translate(435.11 160.42) rotate(-168.039)"/>
</clipPath>
<clipPath id="clip14_825_8">
<rect width="54.8004" height="56.9224" fill="white" transform="translate(61.6106 585.043) rotate(-168.039)"/>
</clipPath>
<clipPath id="clip15_825_8">
<rect width="54.8004" height="56.9224" fill="white" transform="translate(1246.61 196.043) rotate(-168.039)"/>
</clipPath>
<clipPath id="clip16_825_8">
<rect width="29.54" height="29.54" fill="white" transform="translate(30.8442 391.218) rotate(-167.539)"/>
</clipPath>
<clipPath id="clip17_825_8">
<rect width="61.4436" height="56.9224" fill="white" transform="translate(1269.11 745.42) rotate(-168.039)"/>
</clipPath>
<clipPath id="clip18_825_8">
<rect width="61.4436" height="56.9224" fill="white" transform="translate(1286.11 532.42) rotate(-168.039)"/>
</clipPath>
<clipPath id="clip19_825_8">
<rect width="29.54" height="29.54" fill="white" transform="translate(1280.84 350.218) rotate(-167.539)"/>
</clipPath>
<clipPath id="clip20_825_8">
<rect width="54.8004" height="56.9224" fill="white" transform="translate(53.6106 225.043) rotate(-168.039)"/>
</clipPath>
</defs>
</svg>
