<svg width="461" height="306" viewBox="0 0 461 306" fill="none" xmlns="http://www.w3.org/2000/svg">
<path d="M10 0.5H451C456.247 0.5 460.5 4.75329 460.5 10V295.736C460.5 300.982 456.247 305.236 451 305.236H10C4.7533 305.236 0.5 300.982 0.5 295.736V10C0.5 4.75331 4.7533 0.5 10 0.5Z" fill="#E3E3E3"/>
<path d="M10 0.5H451C456.247 0.5 460.5 4.75329 460.5 10V295.736C460.5 300.982 456.247 305.236 451 305.236H10C4.7533 305.236 0.5 300.982 0.5 295.736V10C0.5 4.75331 4.7533 0.5 10 0.5Z" stroke="black"/>
<path d="M10 0.5H451C456.247 0.5 460.5 4.75329 460.5 10V295.736C460.5 300.982 456.247 305.236 451 305.236H10C4.7533 305.236 0.5 300.982 0.5 295.736V10C0.5 4.75331 4.7533 0.5 10 0.5Z" stroke="black" stroke-opacity="0.2"/>
<path d="M66.426 67.8474H219.999C221.932 67.8474 223.499 69.4144 223.499 71.3474V304.642H62.926V71.3474C62.926 69.4144 64.493 67.8474 66.426 67.8474Z" fill="white" stroke="black"/>
<path d="M160.065 90.4927H394.424C396.357 90.4927 397.924 92.0597 397.924 93.9927V142.419C397.924 144.352 396.357 145.919 394.424 145.919H160.065C158.132 145.919 156.565 144.352 156.565 142.419V93.9927C156.565 92.0597 158.132 90.4927 160.065 90.4927Z" fill="black" stroke="black"/>
<path d="M170.342 101.344H200.883C202.816 101.344 204.383 102.911 204.383 104.844V133.738C204.383 135.671 202.816 137.238 200.883 137.238H170.342C168.409 137.238 166.842 135.671 166.842 133.738V104.844C166.842 102.911 168.409 101.344 170.342 101.344Z" fill="white" stroke="black"/>
<path d="M216.591 101.344H247.132C249.065 101.344 250.632 102.911 250.632 104.844V133.738C250.632 135.671 249.065 137.238 247.132 137.238H216.591C214.658 137.238 213.091 135.671 213.091 133.738V104.844C213.091 102.911 214.658 101.344 216.591 101.344Z" fill="white" stroke="black"/>
<path d="M262.84 101.344H293.381C295.314 101.344 296.881 102.911 296.881 104.844V133.738C296.881 135.671 295.314 137.238 293.381 137.238H262.84C260.907 137.238 259.34 135.671 259.34 133.738V104.844C259.34 102.911 260.907 101.344 262.84 101.344Z" fill="white" stroke="black"/>
<path d="M309.089 101.344H339.629C341.562 101.344 343.129 102.911 343.129 104.844V133.738C343.129 135.671 341.562 137.238 339.629 137.238H309.089C307.156 137.238 305.589 135.671 305.589 133.738V104.844C305.589 102.911 307.156 101.344 309.089 101.344Z" fill="white" stroke="black"/>
<path d="M355.337 101.344H385.878C387.811 101.344 389.378 102.911 389.378 104.844V133.738C389.378 135.671 387.811 137.238 385.878 137.238H355.337C353.404 137.238 351.837 135.671 351.837 133.738V104.844C351.837 102.911 353.404 101.344 355.337 101.344Z" fill="white" stroke="black"/>
<path d="M185.442 106.374L188.327 115.807H197.665L190.111 121.637L192.996 131.07L185.442 125.24L177.887 131.07L180.773 121.637L173.218 115.807H182.556L185.442 106.374Z" fill="#D9D9D9"/>
<path d="M232.261 106.374L235.353 115.807H245.358L237.264 121.637L240.355 131.07L232.261 125.24L224.167 131.07L227.259 121.637L219.165 115.807H229.17L232.261 106.374Z" fill="#D9D9D9"/>
<path d="M278.163 106.374L281.254 115.807H291.259L283.165 121.637L286.257 131.07L278.163 125.24L270.069 131.07L273.16 121.637L265.066 115.807H275.071L278.163 106.374Z" fill="#D9D9D9"/>
<path d="M323.146 106.374L326.032 115.807H335.369L327.815 121.637L330.7 131.07L323.146 125.24L315.592 131.07L318.477 121.637L310.923 115.807H320.26L323.146 106.374Z" fill="#D9D9D9"/>
<path d="M369.965 106.374L373.057 115.807H383.062L374.968 121.637L378.06 131.07L369.965 125.24L361.871 131.07L364.963 121.637L356.869 115.807H366.874L369.965 106.374Z" fill="#D9D9D9"/>
<path d="M298.825 186V196.625H310.237V196.944C290.836 199.494 276 215.113 276 233.812C276 254.319 293.917 271 315.943 271C337.969 271 355.886 254.319 355.886 233.812C355.886 229.031 354.745 224.569 353.033 220.531L342.648 224.569C343.903 227.65 344.474 230.625 344.474 233.919C344.474 248.688 331.806 260.481 315.943 260.481C300.08 260.481 287.412 248.688 287.412 233.919C287.412 219.15 300.08 207.356 315.943 207.356C319.367 207.356 322.676 207.888 325.986 209.056L329.866 199.069C327.241 198.219 324.502 197.794 321.649 197.369V196.731H333.061V186.106H298.825V186ZM355.886 198.325C355.886 198.325 314.231 228.181 312.063 230.2C309.894 232.325 309.894 235.406 312.063 237.531C314.231 239.656 317.655 239.656 319.937 237.531C322.22 235.406 356 198.325 356 198.325H355.886Z" fill="black"/>
</svg>
