<svg width="92" height="96" viewBox="0 0 92 96" fill="none" xmlns="http://www.w3.org/2000/svg">
<mask id="mask0_716_3270" style="mask-type:luminance" maskUnits="userSpaceOnUse" x="0" y="0" width="92" height="96">
<path d="M91.9948 0H0V95.9946H91.9948V0Z" fill="white"/>
</mask>
<g mask="url(#mask0_716_3270)">
<path d="M12.3363 63.357L12.3235 63.3618L12.3133 63.3648C12.3011 63.3648 12.2851 63.3546 12.2851 63.3546C12.2851 63.3546 12.2749 63.339 12.2749 63.327L12.2851 63.2994C12.2851 63.2994 12.3011 63.2892 12.3133 63.2892L12.3235 63.2916L12.3363 63.2946V63.3096L12.3261 63.3042L12.3158 63.3018L12.3005 63.3096L12.2954 63.327L12.3005 63.3444L12.3158 63.3492H12.3261L12.3363 63.3444V63.357Z" fill="#13121C"/>
<path d="M12.3762 63.3222C12.3741 63.321 12.3719 63.3192 12.3706 63.3192C12.3649 63.3192 12.3572 63.3216 12.3536 63.3252C12.3515 63.3276 12.3508 63.3312 12.3508 63.3372V63.3666H12.3311V63.3048H12.3508C12.3543 63.303 12.3649 63.3018 12.3706 63.3018L12.3762 63.3222Z" fill="#13121C"/>
<path d="M12.4305 63.336V63.3456H12.3827C12.3842 63.3498 12.3864 63.3534 12.3887 63.3546C12.3902 63.357 12.3946 63.3576 12.4006 63.3576H12.4125C12.4185 63.3564 12.4245 63.3504 12.4305 63.3456V63.3672C12.4245 63.3672 12.4185 63.369 12.4125 63.3702C12.408 63.372 12.4044 63.3732 12.4006 63.3732C12.3887 63.3732 12.3797 63.3702 12.3737 63.3642C12.3677 63.3576 12.3647 63.3498 12.3647 63.339C12.3647 63.3264 12.3677 63.3174 12.3737 63.3114C12.3797 63.3048 12.3872 63.3018 12.3976 63.3018C12.4074 63.3018 12.4155 63.3048 12.4215 63.3114C12.4275 63.3174 12.4305 63.3258 12.4305 63.336ZM12.4125 63.33C12.4125 63.3258 12.4103 63.3228 12.4066 63.3204C12.4044 63.3192 12.4014 63.3174 12.3976 63.3174C12.3932 63.3174 12.3902 63.3192 12.3887 63.3204C12.3864 63.3228 12.3842 63.3258 12.3827 63.33H12.4125Z" fill="#13121C"/>
<path d="M12.465 63.3383C12.4605 63.3383 12.4568 63.3401 12.4531 63.3413C12.4508 63.3437 12.4501 63.3461 12.4501 63.3479C12.4501 63.3521 12.4508 63.3557 12.4531 63.3569H12.459C12.465 63.3569 12.4687 63.3563 12.4709 63.3539C12.4724 63.3503 12.4739 63.3467 12.4739 63.3443L12.465 63.3383ZM12.4949 63.3323V63.3695H12.4739V63.3599C12.4717 63.3647 12.4687 63.3677 12.465 63.3695C12.4605 63.3713 12.4568 63.3725 12.4531 63.3725C12.4471 63.3725 12.4418 63.3701 12.4381 63.3665C12.4336 63.3623 12.4321 63.3563 12.4321 63.3479C12.4321 63.3413 12.4336 63.3377 12.4381 63.3353C12.4441 63.3311 12.4516 63.3287 12.462 63.3287H12.4739C12.4739 63.3251 12.4724 63.3197 12.4709 63.3197C12.4687 63.3179 12.465 63.3167 12.459 63.3167C12.4546 63.3167 12.4508 63.3179 12.4471 63.3197H12.4381V63.3041H12.4471C12.4531 63.3023 12.4575 63.3011 12.462 63.3011C12.4739 63.3011 12.4814 63.3041 12.4859 63.3101C12.4919 63.3149 12.4949 63.3221 12.4949 63.3323Z" fill="#13121C"/>
<path d="M12.5158 63.2922V63.309H12.5351V63.3228H12.5158V63.348L12.5213 63.3534H12.5324V63.3672H12.5158C12.5082 63.3672 12.5027 63.366 12.4993 63.3618C12.4972 63.3582 12.4965 63.3534 12.4965 63.348V63.3228H12.4883V63.309H12.4965V63.2922H12.5158Z" fill="#13121C"/>
<path d="M12.5652 63.336V63.3456H12.5175C12.5189 63.3498 12.5212 63.3534 12.5234 63.3546C12.5249 63.357 12.5294 63.3576 12.5353 63.3576H12.5473C12.5533 63.3564 12.5593 63.3504 12.5652 63.3456V63.3672C12.5593 63.3672 12.5533 63.369 12.5473 63.3702C12.5428 63.372 12.5391 63.3732 12.5353 63.3732C12.5234 63.3732 12.5145 63.3702 12.5085 63.3642C12.5025 63.3576 12.4995 63.3498 12.4995 63.339C12.4995 63.3264 12.5025 63.3174 12.5085 63.3114C12.5145 63.3048 12.5219 63.3018 12.5323 63.3018C12.5421 63.3018 12.5503 63.3048 12.5563 63.3114C12.5622 63.3174 12.5652 63.3258 12.5652 63.336ZM12.5473 63.33C12.5473 63.3258 12.5451 63.3228 12.5413 63.3204C12.5391 63.3192 12.5361 63.3174 12.5323 63.3174C12.5279 63.3174 12.5249 63.3192 12.5234 63.3204C12.5212 63.3228 12.5189 63.3258 12.5175 63.33H12.5473Z" fill="#13121C"/>
<path d="M12.6078 63.3174V63.2874H12.6232V63.3624H12.6078V63.3546L12.5976 63.3624L12.59 63.3647L12.572 63.357L12.5669 63.3372L12.572 63.3144L12.59 63.3072L12.5976 63.3096L12.6078 63.3174ZM12.5951 63.3521L12.6027 63.3498L12.6078 63.3372L12.6027 63.3246L12.5951 63.3198L12.5848 63.3246L12.5822 63.3372L12.5848 63.3498L12.5951 63.3521Z" fill="#13121C"/>
<path d="M12.6849 63.3521L12.6951 63.3498L12.6977 63.3372L12.6951 63.3246L12.6849 63.3198L12.6773 63.3246L12.6747 63.3372L12.6773 63.3474L12.6849 63.3521ZM12.6747 63.3174L12.6824 63.3096L12.6926 63.3072L12.708 63.3144L12.7157 63.3372L12.708 63.357L12.6926 63.3647L12.6824 63.3624L12.6747 63.3546V63.3624H12.6567V63.2874H12.6747V63.3174Z" fill="#13121C"/>
<path d="M12.7129 63.3042H12.7282L12.7436 63.339L12.7564 63.3042H12.7744L12.7513 63.3618C12.7474 63.3666 12.7442 63.3696 12.7411 63.3714C12.7391 63.375 12.7359 63.3768 12.7308 63.3768H12.7205V63.3666C12.7238 63.3666 12.7308 63.3654 12.7308 63.3642C12.7321 63.3642 12.734 63.3624 12.7359 63.3588L12.7129 63.3042Z" fill="#13121C"/>
<path d="M12.8101 63.303V63.3504C12.8187 63.3504 12.83 63.3492 12.834 63.3456C12.8373 63.3402 12.8393 63.3342 12.8393 63.327C12.8393 63.3204 12.8373 63.315 12.834 63.3114C12.83 63.306 12.8187 63.303 12.8101 63.303ZM12.7915 63.2898H12.8101C12.822 63.2898 12.8314 63.2916 12.8366 63.2928C12.842 63.2928 12.846 63.2952 12.8499 63.3006C12.8533 63.3048 12.8559 63.3078 12.8579 63.3114C12.8592 63.315 12.8606 63.3204 12.8606 63.327C12.8606 63.3324 12.8592 63.3372 12.8579 63.3426C12.8559 63.3468 12.8533 63.3498 12.8499 63.3534C12.846 63.357 12.842 63.36 12.8366 63.3612C12.8314 63.363 12.822 63.3636 12.8101 63.3636H12.7915V63.2898Z" fill="#13121C"/>
<path d="M12.8805 63.3402C12.876 63.3402 12.8723 63.3414 12.8685 63.3432C12.8663 63.3456 12.8655 63.3474 12.8655 63.3492C12.8655 63.354 12.8663 63.357 12.8685 63.3588H12.8745C12.8805 63.3588 12.8842 63.3576 12.8865 63.3552C12.888 63.3516 12.8895 63.3486 12.8895 63.3462V63.3402H12.8805ZM12.9104 63.3336V63.3708H12.8895V63.3618C12.8872 63.3666 12.8842 63.3696 12.8805 63.3708C12.876 63.3726 12.8723 63.3744 12.8685 63.3744C12.8625 63.3744 12.8573 63.372 12.8536 63.3678C12.8491 63.3642 12.8477 63.3576 12.8477 63.3492C12.8477 63.3432 12.8491 63.339 12.8536 63.3366C12.8596 63.333 12.867 63.3306 12.8775 63.3306H12.8895C12.8895 63.3264 12.888 63.321 12.8865 63.321C12.8842 63.3198 12.8805 63.318 12.8745 63.318C12.87 63.318 12.8663 63.3198 12.8625 63.321H12.8536V63.3054H12.8625C12.8685 63.3042 12.873 63.3024 12.8775 63.3024C12.8895 63.3024 12.8969 63.3054 12.9014 63.312C12.9074 63.3168 12.9104 63.3234 12.9104 63.3336Z" fill="#13121C"/>
<path d="M12.9481 63.3132C12.9495 63.312 12.9523 63.3096 12.9565 63.3078C12.9599 63.3048 12.9634 63.3024 12.9676 63.3024C12.9731 63.3024 12.9773 63.3054 12.9814 63.3108C12.9849 63.3144 12.987 63.3198 12.987 63.327V63.3618H12.9676V63.3324C12.9676 63.3288 12.9662 63.3234 12.9648 63.3216C12.9648 63.3198 12.9662 63.3216 12.9648 63.3216C12.9607 63.3216 12.9551 63.3204 12.9536 63.324C12.9516 63.3258 12.9509 63.3294 12.9509 63.3348V63.3618H12.9314V63.3318C12.9314 63.327 12.9301 63.3234 12.9287 63.3216C12.9287 63.3198 12.9266 63.3186 12.9231 63.3186C12.919 63.3186 12.9162 63.3204 12.9148 63.324C12.9127 63.3258 12.912 63.3294 12.912 63.3348V63.3618H12.8926V63.3054H12.912C12.9155 63.3036 12.9245 63.3024 12.9287 63.3024C12.9342 63.3024 12.9377 63.3048 12.9398 63.3078C12.9432 63.3096 12.9461 63.312 12.9481 63.3132Z" fill="#13121C"/>
<path d="M12.9937 63.3072H13.0115V63.36H12.9937V63.3072ZM12.9937 63.285H13.0115V63.3H12.9937V63.285Z" fill="#13121C"/>
<path d="M13.0602 63.3383C13.0557 63.3383 13.052 63.3401 13.0483 63.3413C13.046 63.3437 13.0453 63.3461 13.0453 63.3479C13.0453 63.3521 13.046 63.3557 13.0483 63.3569H13.0543C13.0602 63.3569 13.064 63.3563 13.0662 63.3539C13.0677 63.3503 13.0692 63.3467 13.0692 63.3443L13.0602 63.3383ZM13.0901 63.3323V63.3695H13.0692V63.3599C13.067 63.3647 13.064 63.3677 13.0602 63.3695C13.0557 63.3713 13.052 63.3725 13.0483 63.3725C13.0423 63.3725 13.0371 63.3701 13.0333 63.3665C13.0288 63.3623 13.0273 63.3563 13.0273 63.3479C13.0273 63.3413 13.0288 63.3377 13.0333 63.3353C13.0393 63.3311 13.0468 63.3287 13.0572 63.3287H13.0692C13.0692 63.3251 13.0677 63.3197 13.0662 63.3197C13.064 63.3179 13.0602 63.3167 13.0543 63.3167C13.0498 63.3167 13.046 63.3179 13.0423 63.3197H13.0333V63.3041H13.0423C13.0483 63.3023 13.0528 63.3011 13.0572 63.3011C13.0692 63.3011 13.0767 63.3041 13.0812 63.3101C13.0871 63.3149 13.0901 63.3221 13.0901 63.3323Z" fill="#13121C"/>
<path d="M13.1455 63.3288V63.3672H13.1258V63.3378V63.3288C13.1258 63.3276 13.1244 63.3252 13.123 63.3228C13.123 63.3216 13.1244 63.3228 13.123 63.3228L13.1145 63.3204C13.1124 63.3204 13.1096 63.3222 13.106 63.3258C13.104 63.3282 13.1032 63.3318 13.1032 63.3378V63.3672H13.0835V63.3054H13.1032V63.3144C13.1047 63.3108 13.1075 63.3078 13.1117 63.3054C13.1152 63.3042 13.1187 63.3024 13.123 63.3024C13.13 63.3024 13.1356 63.3054 13.1399 63.3114C13.1434 63.3156 13.1455 63.3216 13.1455 63.3288Z" fill="#13121C"/>
<path d="M13.1621 63.291H13.1807V63.3174H13.2099V63.291H13.2285V63.3648H13.2099V63.333H13.1807V63.3648H13.1621V63.291Z" fill="#13121C"/>
<path d="M13.284 63.3366V63.3462H13.2362C13.2377 63.351 13.2399 63.354 13.2421 63.3552C13.2436 63.3576 13.2481 63.3588 13.2541 63.3588H13.266C13.272 63.357 13.278 63.351 13.284 63.3462V63.3678C13.278 63.3678 13.272 63.3696 13.266 63.3708C13.2616 63.3726 13.2578 63.3744 13.2541 63.3744C13.2421 63.3744 13.2332 63.3708 13.2272 63.3648C13.2213 63.3588 13.2183 63.351 13.2183 63.3402C13.2183 63.3276 13.2213 63.318 13.2272 63.312C13.2332 63.3054 13.2407 63.3024 13.2511 63.3024C13.2608 63.3024 13.269 63.3054 13.275 63.312C13.281 63.318 13.284 63.3264 13.284 63.3366ZM13.266 63.3306C13.266 63.3264 13.2638 63.3234 13.2601 63.321C13.2578 63.3198 13.2548 63.318 13.2511 63.318C13.2466 63.318 13.2436 63.3198 13.2421 63.321C13.2399 63.3234 13.2377 63.3264 13.2362 63.3306H13.266Z" fill="#13121C"/>
<path d="M13.2795 63.2922V63.309H13.2988V63.3228H13.2795V63.348L13.285 63.3534H13.2961V63.3672H13.2795C13.2719 63.3672 13.2664 63.366 13.263 63.3618C13.2609 63.3582 13.2602 63.3534 13.2602 63.348V63.3228H13.252V63.309H13.2602V63.2922H13.2795Z" fill="#13121C"/>
<path d="M13.3637 63.3132C13.3651 63.312 13.3678 63.3096 13.372 63.3078C13.3755 63.3048 13.3789 63.3024 13.3831 63.3024C13.3887 63.3024 13.3929 63.3054 13.397 63.3108C13.4005 63.3144 13.4026 63.3198 13.4026 63.327V63.3618H13.3831V63.3324C13.3831 63.3288 13.3817 63.3234 13.3803 63.3216C13.3803 63.3198 13.3817 63.3216 13.3803 63.3216C13.3761 63.3216 13.3706 63.3204 13.3692 63.324C13.3672 63.3258 13.3665 63.3294 13.3665 63.3348V63.3618H13.347V63.3318C13.347 63.327 13.3456 63.3234 13.3442 63.3216C13.3442 63.3198 13.3421 63.3186 13.3387 63.3186C13.3345 63.3186 13.3317 63.3204 13.3304 63.324C13.3283 63.3258 13.3275 63.3294 13.3275 63.3348V63.3618H13.3081V63.3054H13.3275C13.331 63.3036 13.3401 63.3024 13.3442 63.3024C13.3498 63.3024 13.3532 63.3048 13.3553 63.3078C13.3588 63.3096 13.3616 63.312 13.3637 63.3132Z" fill="#13121C"/>
<path d="M13.4084 63.3402C13.4039 63.3402 13.4002 63.3414 13.3964 63.3432C13.3942 63.3456 13.3934 63.3474 13.3934 63.3492C13.3934 63.354 13.3942 63.357 13.3964 63.3588H13.4024C13.4084 63.3588 13.4121 63.3576 13.4144 63.3552C13.4159 63.3516 13.4173 63.3486 13.4173 63.3462V63.3402H13.4084ZM13.4382 63.3336V63.3708H13.4173V63.3618C13.4151 63.3666 13.4121 63.3696 13.4084 63.3708C13.4039 63.3726 13.4002 63.3744 13.3964 63.3744C13.3904 63.3744 13.3852 63.372 13.3815 63.3678C13.377 63.3642 13.3755 63.3576 13.3755 63.3492C13.3755 63.3432 13.377 63.339 13.3815 63.3366C13.3874 63.333 13.3949 63.3306 13.4054 63.3306H13.4173C13.4173 63.3264 13.4159 63.321 13.4144 63.321C13.4121 63.3198 13.4084 63.318 13.4024 63.318C13.3979 63.318 13.3942 63.3198 13.3904 63.321H13.3815V63.3054H13.3904C13.3964 63.3042 13.4009 63.3024 13.4054 63.3024C13.4173 63.3024 13.4248 63.3054 13.4293 63.312C13.4352 63.3168 13.4382 63.3234 13.4382 63.3336Z" fill="#13121C"/>
<path d="M13.5049 63.3288V63.3672H13.4852V63.3378V63.3288C13.4852 63.3276 13.4838 63.3252 13.4824 63.3228C13.4824 63.3216 13.4838 63.3228 13.4824 63.3228L13.4739 63.3204C13.4718 63.3204 13.469 63.3222 13.4654 63.3258C13.4633 63.3282 13.4626 63.3318 13.4626 63.3378V63.3672H13.4429V63.3054H13.4626V63.3144C13.464 63.3108 13.4668 63.3078 13.471 63.3054C13.4746 63.3042 13.4781 63.3024 13.4824 63.3024C13.4894 63.3024 13.495 63.3054 13.4993 63.3114C13.5028 63.3156 13.5049 63.3216 13.5049 63.3288Z" fill="#13121C"/>
<path d="M12.3158 63.3618V63.3744H12.3056C12.3037 63.3744 12.3069 63.3732 12.3056 63.3744L12.3005 63.3816L12.3158 63.3846V63.3972H12.3005V63.4368H12.2826V63.3972H12.2749V63.3846H12.2826C12.2826 63.3786 12.2838 63.3708 12.2877 63.3666C12.2909 63.3636 12.296 63.3618 12.303 63.3618H12.3158Z" fill="#13121C"/>
<path d="M12.3537 63.4002C12.3516 63.3984 12.3495 63.3972 12.3481 63.3972C12.3425 63.3972 12.3347 63.3989 12.3312 63.4031C12.3291 63.4049 12.3284 63.4086 12.3284 63.4146V63.444H12.3086V63.3821H12.3284C12.3319 63.3809 12.3425 63.3792 12.3481 63.3792L12.3537 63.4002Z" fill="#13121C"/>
<path d="M12.3863 63.3947L12.3744 63.4014L12.3715 63.417L12.3744 63.4325L12.3863 63.4356L12.3983 63.4325L12.4013 63.417L12.3983 63.4014L12.3863 63.3947ZM12.3863 63.3792C12.3983 63.3792 12.4133 63.3888 12.4133 63.3888C12.4133 63.3888 12.4222 63.4044 12.4222 63.417L12.4133 63.4415C12.4133 63.4415 12.3983 63.4512 12.3863 63.4512L12.3625 63.4415L12.3535 63.417C12.3535 63.4044 12.3625 63.3888 12.3625 63.3888L12.3863 63.3792Z" fill="#13121C"/>
<path d="M12.454 63.3906C12.4554 63.3894 12.4582 63.3876 12.4623 63.3858C12.4658 63.3822 12.4693 63.3804 12.4734 63.3804C12.479 63.3804 12.4831 63.3828 12.4873 63.3882C12.4908 63.3924 12.4929 63.3978 12.4929 63.4044V63.4392H12.4734V63.4098C12.4734 63.4068 12.472 63.4008 12.4707 63.399C12.4707 63.3978 12.472 63.399 12.4707 63.399C12.4665 63.399 12.4609 63.3984 12.4596 63.4014C12.4574 63.4038 12.4567 63.4068 12.4567 63.4122V63.4392H12.4373V63.4098C12.4373 63.4044 12.4359 63.4008 12.4345 63.399C12.4345 63.3978 12.4325 63.396 12.429 63.396C12.4248 63.396 12.4221 63.3984 12.4206 63.4014C12.4186 63.4038 12.4179 63.4068 12.4179 63.4122V63.4392H12.3984V63.3828H12.4179C12.4213 63.3816 12.4303 63.3804 12.4345 63.3804C12.4401 63.3804 12.4436 63.3822 12.4456 63.3858C12.4492 63.3876 12.4519 63.3894 12.454 63.3906Z" fill="#13121C"/>
<path d="M12.5271 63.369V63.3858H12.5464V63.3996H12.5271V63.4248L12.5326 63.4302H12.5436V63.444H12.5271C12.5195 63.444 12.514 63.4428 12.5106 63.4386C12.5085 63.435 12.5078 63.4302 12.5078 63.4248V63.3996H12.4995V63.3858H12.5078V63.369H12.5271Z" fill="#13121C"/>
<path d="M12.6008 63.4044V63.4368H12.5828V63.4122V63.4044C12.5828 63.4032 12.5841 63.4062 12.5828 63.4044C12.5828 63.4032 12.579 63.3972 12.5777 63.3972C12.5758 63.3972 12.5681 63.399 12.5649 63.402C12.563 63.4038 12.5624 63.4068 12.5624 63.4122V63.4368H12.5444V63.3618H12.5624V63.3918C12.5636 63.3888 12.5662 63.3864 12.57 63.3846C12.5732 63.3834 12.5765 63.3816 12.5803 63.3816C12.5867 63.3816 12.5918 63.3846 12.5957 63.3894C12.5989 63.393 12.6008 63.3984 12.6008 63.4044Z" fill="#13121C"/>
<path d="M12.6663 63.4146V63.4236H12.6185C12.62 63.4284 12.6222 63.4314 12.6244 63.4332C12.6259 63.4356 12.6304 63.4362 12.6364 63.4362H12.6484C12.6543 63.4344 12.6603 63.4284 12.6663 63.4236V63.4458C12.6603 63.4458 12.6543 63.447 12.6484 63.4488C12.6439 63.45 12.6401 63.4518 12.6364 63.4518C12.6244 63.4518 12.6155 63.4488 12.6096 63.4422C12.6036 63.4362 12.6006 63.4284 12.6006 63.4176C12.6006 63.405 12.6036 63.396 12.6096 63.3894C12.6155 63.3834 12.623 63.3804 12.6334 63.3804C12.6431 63.3804 12.6514 63.3834 12.6573 63.3894C12.6633 63.396 12.6663 63.4044 12.6663 63.4146ZM12.6484 63.408C12.6484 63.4044 12.6461 63.4014 12.6424 63.399C12.6401 63.3972 12.6372 63.396 12.6334 63.396C12.6289 63.396 12.6259 63.3972 12.6244 63.399C12.6222 63.4014 12.62 63.4044 12.6185 63.408H12.6484Z" fill="#13121C"/>
<path d="M12.668 63.3672H12.6866L12.7158 63.417V63.3672H12.7344V63.441H12.7132L12.684 63.3906V63.441H12.668L12.668 63.3672Z" fill="#13121C"/>
<path d="M12.7794 63.3947L12.7675 63.4014L12.7645 63.417L12.7675 63.4325L12.7794 63.4356L12.7914 63.4325L12.7944 63.417L12.7914 63.4014L12.7794 63.3947ZM12.7794 63.3792C12.7914 63.3792 12.8063 63.3888 12.8063 63.3888C12.8063 63.3888 12.8153 63.4044 12.8153 63.417L12.8063 63.4415C12.8063 63.4415 12.7914 63.4512 12.7794 63.4512L12.7556 63.4415L12.7466 63.417C12.7466 63.4044 12.7556 63.3888 12.7556 63.3888L12.7794 63.3792Z" fill="#13121C"/>
<path d="M12.8027 63.4194V63.381H12.8225V63.3984V63.4104V63.4218C12.8239 63.4242 12.8253 63.4278 12.8253 63.4278C12.8288 63.4278 12.8373 63.4272 12.8394 63.4248C12.8429 63.4212 12.8451 63.4164 12.8451 63.4104V63.381H12.862V63.4428H12.8451V63.4338C12.8408 63.438 12.8373 63.441 12.8338 63.4428C12.8317 63.444 12.8281 63.4458 12.8225 63.4458C12.8168 63.4458 12.8119 63.4434 12.8084 63.4398C12.8042 63.4338 12.8027 63.4272 12.8027 63.4194Z" fill="#13121C"/>
<path d="M12.9096 63.4056V63.444H12.8899V63.4146V63.4056C12.8899 63.4044 12.8885 63.402 12.8871 63.4002C12.8871 63.3984 12.8885 63.4002 12.8871 63.4002L12.8786 63.3972C12.8765 63.3972 12.8737 63.3989 12.8702 63.4031C12.8681 63.4049 12.8674 63.4086 12.8674 63.4146V63.444H12.8477V63.3821H12.8674V63.3911C12.8688 63.3875 12.8716 63.3845 12.8758 63.3821C12.8793 63.3809 12.8828 63.3792 12.8871 63.3792C12.8942 63.3792 12.8998 63.3822 12.904 63.3882C12.9075 63.3924 12.9096 63.3984 12.9096 63.4056Z" fill="#13121C"/>
<path d="M12.9375 63.366H12.9694L12.9906 63.3714L12.9986 63.39L12.9906 63.4086L12.9694 63.4134H12.9561V63.4398H12.9375V63.366ZM12.9561 63.3792V63.4002H12.9667L12.9747 63.3978L12.9773 63.39L12.9747 63.3822L12.9667 63.3792H12.9561Z" fill="#13121C"/>
<path d="M13.0613 63.4002C13.0591 63.3984 13.057 63.3972 13.0556 63.3972C13.05 63.3972 13.0422 63.3989 13.0387 63.4031C13.0366 63.4049 13.0358 63.4086 13.0358 63.4146V63.444H13.0161V63.3821H13.0358C13.0393 63.3809 13.05 63.3792 13.0556 63.3792L13.0613 63.4002Z" fill="#13121C"/>
<path d="M13.0602 63.3947L13.0483 63.4014L13.0453 63.417L13.0483 63.4325L13.0602 63.4356L13.0722 63.4325L13.0752 63.417L13.0722 63.4014L13.0602 63.3947ZM13.0602 63.3792C13.0722 63.3792 13.0871 63.3888 13.0871 63.3888C13.0871 63.3888 13.0961 63.4044 13.0961 63.417L13.0871 63.4415C13.0871 63.4415 13.0722 63.4512 13.0602 63.4512L13.0363 63.4415L13.0273 63.417C13.0273 63.4044 13.0363 63.3888 13.0363 63.3888L13.0602 63.3792Z" fill="#13121C"/>
<path d="M13.0934 63.3827H13.1106V63.4301C13.1106 63.4379 13.1088 63.4433 13.1057 63.4469C13.102 63.4499 13.0971 63.4517 13.0909 63.4517H13.0835V63.4421C13.0866 63.4421 13.0909 63.4409 13.0909 63.4397C13.0921 63.4379 13.0934 63.4349 13.0934 63.4301V63.3827ZM13.0934 63.3611H13.1106V63.3755H13.0934V63.3611Z" fill="#13121C"/>
<path d="M13.1717 63.4127V63.4223H13.1238C13.1253 63.4271 13.1276 63.4301 13.1298 63.4313C13.1313 63.4337 13.1358 63.4349 13.1418 63.4349H13.1537C13.1597 63.4331 13.1657 63.4271 13.1717 63.4223V63.4439C13.1657 63.4439 13.1597 63.4457 13.1537 63.4469C13.1493 63.4487 13.1455 63.4505 13.1418 63.4505C13.1298 63.4505 13.1208 63.4469 13.1149 63.4409C13.1089 63.4349 13.106 63.4271 13.106 63.4157C13.106 63.4037 13.1089 63.3941 13.1149 63.3881C13.1208 63.3815 13.1283 63.3785 13.1388 63.3785C13.1485 63.3785 13.1567 63.3815 13.1627 63.3881C13.1687 63.3941 13.1717 63.4025 13.1717 63.4127ZM13.1537 63.4067C13.1537 63.4025 13.1515 63.3995 13.1478 63.3971C13.1455 63.3959 13.1425 63.3941 13.1388 63.3941C13.1343 63.3941 13.1313 63.3959 13.1298 63.3971C13.1276 63.3995 13.1253 63.4025 13.1238 63.4067H13.1537Z" fill="#13121C"/>
<path d="M13.2413 63.3834V63.402L13.2294 63.399L13.2204 63.396L13.2085 63.402L13.2025 63.4176L13.2085 63.4302L13.2204 63.4362H13.2294L13.2413 63.4302V63.4458L13.2294 63.4488L13.2204 63.4518C13.2085 63.4518 13.1935 63.4422 13.1935 63.4422L13.1846 63.4176C13.1846 63.405 13.1935 63.3894 13.1935 63.3894C13.1935 63.3894 13.2085 63.3804 13.2204 63.3804L13.2294 63.3834H13.2413Z" fill="#13121C"/>
<path d="M13.2458 63.369V63.3858H13.2651V63.3996H13.2458V63.4248L13.2513 63.4302H13.2624V63.444H13.2458C13.2383 63.444 13.2328 63.4428 13.2293 63.4386C13.2272 63.435 13.2265 63.4302 13.2265 63.4248V63.3996H13.2183V63.3858H13.2265V63.369H13.2458Z" fill="#13121C"/>
<path d="M44.2615 42.0589L33.9609 34.3616" stroke="#13121C" stroke-width="1.49991" stroke-linecap="round"/>
<path d="M64.7024 38.0029L71.7289 27.0022" stroke="#13121C" stroke-width="1.49991" stroke-linecap="round"/>
<path d="M54.5337 36.4098L52.4688 24.7625" stroke="#13121C" stroke-width="1.49991" stroke-linecap="round"/>
<path d="M43.1576 53.6682L31.9956 55.8229" stroke="#13121C" stroke-width="1.49991" stroke-linecap="round"/>
<path d="M58.2636 52.5822L63.9383 82.023C63.9693 82.2864 64.0774 82.5336 64.2476 82.7316C64.4178 82.929 64.6421 83.0676 64.8899 83.1282C65.1383 83.1888 65.3982 83.1684 65.6345 83.0706C65.8714 82.9722 66.0733 82.8006 66.2136 82.5792L72.0717 73.3278C72.1723 73.1688 72.3045 73.0356 72.4598 72.936C72.615 72.837 72.7893 72.774 72.9698 72.7524L83.528 71.4948C83.781 71.4648 84.019 71.3544 84.2105 71.1792C84.4014 71.0034 84.5365 70.7706 84.5969 70.5126C84.6573 70.2546 84.6406 69.9834 84.5492 69.7356C84.4572 69.4872 84.295 69.2748 84.084 69.126L60.1973 51.3446C59.999 51.2049 59.7661 51.1277 59.5269 51.1223C59.2877 51.1168 59.0525 51.1833 58.8484 51.3138C58.6448 51.4443 58.481 51.6334 58.3775 51.8583C58.2734 52.0832 58.2343 52.3345 58.2636 52.5822Z" fill="#13121C" stroke="#13121C" stroke-width="1.49991" stroke-linecap="round" stroke-linejoin="round"/>
<path d="M72.4592 72.936L80.6829 86.9244" stroke="#13121C" stroke-width="1.49991" stroke-linecap="round" stroke-linejoin="round"/>
<path d="M82.7937 55.9972V38.1835C82.7937 35.5327 80.734 33.3837 78.1937 33.3837M50.5953 65.382H15.3307C11.9436 65.382 9.19775 62.5164 9.19775 58.9823V39.7834C9.19775 36.249 11.9436 33.3837 15.3307 33.3837H22.9969" stroke="#13121C" stroke-width="1.49991" stroke-linecap="round"/>
</g>
</svg>
