<svg width="136" height="57" viewBox="0 0 136 57" fill="none" xmlns="http://www.w3.org/2000/svg">
<path d="M0.5 10C0.5 4.75329 4.75329 0.5 10 0.5H68.3996H126C131.247 0.5 135.5 4.7533 135.5 10V47C135.5 52.2467 131.247 56.5 126 56.5H10C4.7533 56.5 0.5 52.2467 0.5 47V10Z" fill="white" stroke="black"/>
<path d="M18.0285 27.8364C18.1856 27.3917 18.8144 27.3917 18.9715 27.8364L20.5994 32.4458C20.8112 33.0454 21.3779 33.4463 22.0138 33.4463H27.0926C27.587 33.4463 27.7815 34.0873 27.3705 34.362L23.409 37.0099C22.839 37.391 22.5998 38.11 22.8282 38.7565L24.3744 43.1347C24.5346 43.5882 24.0249 43.9842 23.6251 43.7169L19.3336 40.8484C18.829 40.5111 18.171 40.5111 17.6664 40.8484L13.3749 43.7169C12.9751 43.9842 12.4654 43.5882 12.6256 43.1347L14.1718 38.7565C14.4002 38.11 14.161 37.391 13.591 37.0099L9.62951 34.362C9.21849 34.0873 9.41297 33.4463 9.90737 33.4463H14.9862C15.6221 33.4463 16.1888 33.0454 16.4006 32.4458L18.0285 27.8364Z" fill="#FFEB37" stroke="black"/>
<path d="M43.0285 27.8364C43.1856 27.3917 43.8144 27.3917 43.9715 27.8364L45.5994 32.4458C45.8112 33.0454 46.3779 33.4463 47.0138 33.4463H52.0926C52.587 33.4463 52.7815 34.0873 52.3705 34.362L48.409 37.0099C47.839 37.391 47.5998 38.11 47.8282 38.7565L49.3744 43.1347C49.5346 43.5882 49.0249 43.9842 48.6251 43.7169L44.3336 40.8484C43.829 40.5111 43.171 40.5111 42.6664 40.8484L38.3749 43.7169C37.9751 43.9842 37.4654 43.5882 37.6256 43.1347L39.1718 38.7565C39.4002 38.11 39.161 37.391 38.591 37.0099L34.6295 34.362C34.2185 34.0873 34.413 33.4463 34.9074 33.4463H39.9862C40.6221 33.4463 41.1888 33.0454 41.4006 32.4458L43.0285 27.8364Z" fill="#FFEB37" stroke="black"/>
<path d="M67.0285 27.8364C67.1856 27.3917 67.8144 27.3917 67.9715 27.8364L69.5994 32.4458C69.8112 33.0454 70.3779 33.4463 71.0138 33.4463H76.0926C76.587 33.4463 76.7815 34.0873 76.3705 34.362L72.409 37.0099C71.839 37.391 71.5998 38.11 71.8282 38.7565L73.3744 43.1347C73.5346 43.5882 73.0249 43.9842 72.6251 43.7169L68.3336 40.8484C67.829 40.5111 67.171 40.5111 66.6664 40.8484L62.3749 43.7169C61.9751 43.9842 61.4654 43.5882 61.6256 43.1347L63.1718 38.7565C63.4002 38.11 63.161 37.391 62.591 37.0099L58.6295 34.362C58.2185 34.0873 58.413 33.4463 58.9074 33.4463H63.9862C64.6221 33.4463 65.1888 33.0454 65.4006 32.4458L67.0285 27.8364Z" fill="#FFEB37" stroke="black"/>
<path d="M92.0285 27.8364C92.1856 27.3917 92.8144 27.3917 92.9715 27.8364L94.5994 32.4458C94.8112 33.0454 95.3779 33.4463 96.0138 33.4463H101.093C101.587 33.4463 101.782 34.0873 101.37 34.362L97.409 37.0099C96.839 37.391 96.5998 38.11 96.8282 38.7565L98.3744 43.1347C98.5346 43.5882 98.0249 43.9842 97.6251 43.7169L93.3336 40.8484C92.829 40.5111 92.171 40.5111 91.6664 40.8484L87.3749 43.7169C86.9751 43.9842 86.4654 43.5882 86.6256 43.1347L88.1718 38.7565C88.4002 38.11 88.161 37.391 87.591 37.0099L83.6295 34.362C83.2185 34.0873 83.413 33.4463 83.9074 33.4463H88.9862C89.6221 33.4463 90.1888 33.0454 90.4006 32.4458L92.0285 27.8364Z" fill="#FFEB37" stroke="black"/>
<path d="M116.029 27.8364C116.186 27.3917 116.814 27.3917 116.971 27.8364L118.599 32.4458C118.811 33.0454 119.378 33.4463 120.014 33.4463H125.093C125.587 33.4463 125.782 34.0873 125.37 34.362L121.409 37.0099C120.839 37.391 120.6 38.11 120.828 38.7565L122.374 43.1347C122.535 43.5882 122.025 43.9842 121.625 43.7169L117.334 40.8484C116.829 40.5111 116.171 40.5111 115.666 40.8484L111.375 43.7169C110.975 43.9842 110.465 43.5882 110.626 43.1347L112.172 38.7565C112.4 38.11 112.161 37.391 111.591 37.0099L107.63 34.362C107.218 34.0873 107.413 33.4463 107.907 33.4463H112.986C113.622 33.4463 114.189 33.0454 114.401 32.4458L116.029 27.8364Z" fill="#FFEB37" stroke="black"/>
<path d="M8 13C8 10.2386 10.2386 8 13 8H106C108.761 8 111 10.2386 111 13V14C111 16.7614 108.761 19 106 19H13C10.2386 19 8 16.7614 8 14V13Z" fill="#DDDBDB"/>
<path d="M116.602 18.6973C116.576 18.6322 116.562 18.554 116.562 18.4629C116.562 18.3652 116.615 18.2578 116.719 18.1406L120.117 13.6387L116.943 9.15625C116.735 8.88281 116.722 8.64193 116.904 8.43359C116.982 8.34245 117.093 8.29688 117.236 8.29688H119.355C119.987 8.29688 120.495 8.58333 120.879 9.15625L122.5 11.6172L124.121 9.15625C124.505 8.58333 125.013 8.29688 125.645 8.29688H127.764C127.907 8.29688 128.018 8.34245 128.096 8.43359C128.278 8.64193 128.265 8.88281 128.057 9.15625L124.883 13.6387L128.281 18.1406C128.385 18.2578 128.438 18.3685 128.438 18.4727C128.438 18.5703 128.424 18.6452 128.398 18.6973C128.346 18.8991 128.206 19 127.979 19H125.898C125.299 19 124.792 18.7135 124.375 18.1406L122.5 15.6016L120.615 18.1406C120.205 18.7135 119.701 19 119.102 19H117.021C116.794 19 116.654 18.8991 116.602 18.6973Z" fill="black"/>
</svg>
