<svg width="286" height="220" viewBox="0 0 286 220" fill="none" xmlns="http://www.w3.org/2000/svg">
<path d="M0.5 9.99988C0.5 4.75318 4.7533 0.499878 10 0.499878H139.817H268C273.247 0.499878 277.5 4.75317 277.5 9.99988V210C277.5 215.247 273.247 219.5 268 219.5H10C4.7533 219.5 0.5 215.247 0.5 210V9.99988Z" fill="#EDEDED" stroke="black"/>
<path d="M172.401 121.706L169.002 121.156L167.978 118.775C167.559 118.042 167.001 117.31 166.395 116.714L167.652 113.509L163.556 111.174L161.368 113.83C159.646 113.418 157.877 113.418 156.154 113.83L153.966 111.174L149.87 113.509L151.127 116.714C149.916 117.951 148.985 119.508 148.52 121.156L145.075 121.706V126.376L148.52 126.926C148.985 128.62 149.916 130.131 151.127 131.367L149.87 134.572L153.966 136.908L156.154 134.252C157.877 134.664 159.646 134.664 161.368 134.252L163.556 136.908L167.652 134.572L166.395 131.367C167.606 130.131 168.537 128.574 169.002 126.926L172.447 126.376L172.401 121.706C172.447 121.706 172.447 121.706 172.401 121.706Z" fill="#282828"/>
<path d="M168.304 134.298C167.932 133.336 167.559 132.374 167.14 131.459C167.047 131.55 166.954 131.688 166.861 131.779L167.001 131.138C167.047 131.23 167.094 131.367 167.14 131.459C168.164 130.177 168.909 128.711 169.235 127.109C169.189 127.109 169.142 127.154 169.095 127.154L169.282 126.971C169.282 127.017 169.282 127.063 169.235 127.109C169.747 126.971 170.213 126.88 170.678 126.788C170.771 126.742 170.911 126.742 171.004 126.697C171.144 126.651 171.237 126.651 171.376 126.605C171.795 126.513 172.121 126.422 172.447 126.33C172.447 126.101 172.401 125.827 172.401 125.598C172.354 124.27 172.401 122.988 172.354 121.934L172.168 121.889C172.168 122.575 172.075 123.033 172.028 124.041C172.028 124.773 172.028 125.369 171.982 125.918C172.121 125.918 172.214 125.872 172.354 125.872L171.982 126.33C171.982 126.193 171.982 126.055 171.982 125.918C171.144 126.01 170.213 126.101 168.863 126.284C168.77 126.284 168.63 126.33 168.583 126.422C168.49 126.513 168.444 126.605 168.397 126.697V126.742C168.351 126.925 168.258 127.154 168.164 127.429C167.745 128.757 167.001 129.993 166.023 131.001C165.977 131.092 165.93 131.138 165.883 131.23C165.883 131.321 165.883 131.413 165.93 131.504C166.302 132.42 166.628 133.29 167.001 134.252L167.42 134.069L167.187 134.71C167.14 134.572 167.094 134.389 167.047 134.252L166.163 134.71C165.604 135.168 165.418 135.076 164.906 135.671L163.789 136.175C163.882 136.267 163.928 136.404 164.021 136.496L163.37 136.358L163.789 136.175C163.183 135.351 162.532 134.572 161.833 133.84L161.74 133.748C161.694 133.702 161.601 133.657 161.508 133.611C161.415 133.611 161.321 133.611 161.228 133.611C161.089 133.657 160.949 133.702 160.809 133.748C160.251 133.657 159.646 133.657 159.04 133.748C158.342 133.794 157.644 133.702 156.992 133.519C156.759 133.473 156.527 133.428 156.34 133.382C156.201 133.336 156.061 133.336 155.922 133.382C155.782 133.428 155.642 133.519 155.549 133.611L153.78 135.763C153.966 135.855 154.153 135.992 154.385 136.083L153.408 136.267L153.827 135.763C152.803 135.213 151.779 134.664 150.754 134.115C150.708 134.298 150.615 134.481 150.568 134.664L150.242 133.84C150.429 133.931 150.568 134.023 150.754 134.115C151.08 133.245 151.36 132.329 151.685 131.459V131.413C151.732 131.321 151.732 131.184 151.685 131.092C151.639 131.001 151.592 130.909 151.546 130.818C150.335 129.627 149.451 128.208 148.939 126.651V126.605C148.892 126.513 148.846 126.468 148.799 126.422C148.753 126.376 148.66 126.33 148.567 126.33C147.449 126.193 146.379 126.055 145.401 125.918C145.401 126.01 145.401 126.101 145.401 126.239L145.122 125.918C145.215 125.918 145.308 125.964 145.401 125.964C145.354 124.453 145.354 123.125 145.354 121.843L145.122 121.889L145.354 121.614C145.354 121.705 145.354 121.751 145.354 121.843L148.567 121.293C148.613 121.293 148.66 121.248 148.66 121.248C148.706 121.202 148.706 121.202 148.706 121.156L148.799 120.744C149.079 120.011 149.451 119.324 149.916 118.683C150.335 118.042 150.847 117.447 151.406 116.897C151.453 116.852 151.499 116.76 151.499 116.714C151.499 116.623 151.499 116.577 151.499 116.485V116.44C151.266 115.753 150.987 114.929 150.661 113.921C150.615 113.83 150.568 113.738 150.522 113.601C150.382 113.692 150.242 113.784 150.103 113.83L150.335 113.143C150.382 113.28 150.429 113.417 150.522 113.555C151.639 112.868 152.803 112.181 153.873 111.54C153.78 111.448 153.687 111.357 153.641 111.265L154.153 111.357C154.059 111.403 153.966 111.494 153.873 111.54C154.665 112.364 155.363 113.143 156.015 113.784C156.015 113.784 156.061 113.83 156.108 113.83C156.154 113.83 156.154 113.83 156.201 113.83L156.899 113.601C157.644 113.555 158.156 113.509 158.761 113.463C159.459 113.417 160.204 113.463 160.902 113.646C161.042 113.692 161.182 113.738 161.368 113.738H161.415C161.415 113.738 161.461 113.738 161.461 113.692C162.159 112.868 162.904 111.998 163.602 111.174C163.556 111.174 163.509 111.128 163.509 111.128L163.696 111.082C163.649 111.128 163.649 111.128 163.602 111.174C164.952 111.952 166.302 112.685 167.559 113.372C167.559 113.326 167.559 113.326 167.606 113.28L167.652 113.372L167.606 113.326C167.466 113.738 167.326 114.15 167.187 114.516C166.954 115.112 166.768 115.661 166.442 116.485C166.442 116.485 166.442 116.485 166.442 116.531C166.442 116.531 166.442 116.531 166.442 116.577C166.535 116.669 166.628 116.76 166.721 116.852C166.814 116.943 167.14 117.355 167.42 117.722C167.699 118.088 167.932 118.454 167.839 118.317C168.025 118.592 168.164 118.821 167.839 118.317C167.652 118.042 167.42 117.676 167.513 117.768C167.606 117.859 168.164 118.775 168.071 118.546C167.652 117.813 167.14 117.126 166.582 116.531V116.577V116.485C166.582 116.485 166.582 116.531 166.628 116.531C167.047 115.524 167.513 114.471 167.932 113.417C167.932 113.372 167.932 113.326 167.932 113.326C167.932 113.28 167.885 113.234 167.839 113.234C166.954 112.685 166.07 112.135 165.232 111.54C165.185 111.494 165.092 111.448 165.045 111.403C164.673 111.128 164.254 110.899 163.882 110.624C163.789 110.578 163.696 110.533 163.602 110.533C163.509 110.533 163.416 110.578 163.323 110.67L163.277 110.716C162.951 111.082 162.578 111.403 162.252 111.723C161.88 112.135 161.554 112.502 161.182 112.868C161.321 112.914 161.461 112.914 161.601 112.96L160.856 113.189C160.949 113.097 161.089 112.96 161.182 112.822C160.158 112.547 159.134 112.41 158.063 112.41C157.923 112.456 157.737 112.456 157.551 112.456C157.504 112.456 157.458 112.456 157.411 112.456C157.132 112.502 156.806 112.547 156.527 112.639C156.666 112.776 156.759 112.914 156.899 113.051L155.968 112.731C156.154 112.685 156.34 112.639 156.527 112.593C155.968 111.952 155.456 111.403 155.037 110.945C154.944 110.853 154.897 110.807 154.804 110.716C154.711 110.624 154.618 110.533 154.572 110.487L154.525 110.441C154.385 110.304 154.246 110.258 154.106 110.212C153.92 110.212 153.78 110.212 153.641 110.304C152.291 111.128 151.453 111.677 150.801 112.09C150.708 112.135 150.661 112.181 150.568 112.227L149.684 112.776H149.637C149.544 112.822 149.451 112.96 149.404 113.051C149.358 113.189 149.358 113.326 149.404 113.417C149.777 114.425 150.242 115.386 150.801 116.302L150.847 116.256C150.801 116.302 150.894 116.256 150.987 116.211L150.754 116.806C150.754 116.76 150.708 116.714 150.708 116.669C150.708 116.669 150.708 116.623 150.661 116.623L148.287 120.973C148.334 120.973 148.38 120.973 148.38 120.973L148.194 121.156L148.287 121.019C147.217 121.202 146.192 121.385 145.122 121.568L144.982 121.614C144.936 121.614 144.889 121.66 144.889 121.66C144.842 121.705 144.842 121.751 144.842 121.797C144.889 122.85 144.936 123.812 144.982 124.773C144.982 125.323 144.936 125.872 144.936 126.468C144.936 126.513 144.936 126.513 144.936 126.513L144.982 126.559C146.053 126.742 147.17 126.925 148.287 127.154C148.287 127.109 148.287 127.109 148.241 127.063L148.38 127.2C148.334 127.2 148.334 127.2 148.287 127.2C148.567 128.116 148.939 128.986 149.451 129.81C149.73 130.451 150.149 131.092 150.661 131.596C150.708 131.55 150.708 131.459 150.754 131.413L150.847 131.733C150.801 131.688 150.754 131.642 150.708 131.596C150.615 131.871 150.475 132.146 150.335 132.42L149.498 134.572C149.451 134.664 149.451 134.756 149.498 134.847C149.544 134.939 149.591 134.985 149.684 135.03L153.78 137.366C153.873 137.411 153.966 137.411 154.06 137.411C154.153 137.411 154.246 137.366 154.292 137.274C154.991 136.45 155.689 135.671 156.34 134.893C156.247 134.847 156.154 134.847 156.061 134.801L156.573 134.618C156.527 134.71 156.434 134.756 156.387 134.847C157.923 135.213 159.552 135.305 161.135 135.03C161.042 134.939 160.996 134.801 160.902 134.71L161.601 134.939C161.461 134.985 161.275 134.985 161.135 135.03C161.601 135.671 162.159 136.358 162.718 137.091C162.811 137.228 162.951 137.32 163.044 137.457L163.183 137.595C163.323 137.686 163.463 137.778 163.602 137.778C163.789 137.778 163.928 137.732 164.068 137.64C164.58 137.274 164.859 136.999 165.464 136.633C166.349 136.221 167.233 135.763 168.118 135.259C168.257 135.168 168.397 135.03 168.444 134.893C168.351 134.618 168.351 134.481 168.304 134.298Z" fill="#282828"/>
<path d="M158.715 127.887C160.856 127.887 162.625 126.147 162.625 124.041C162.625 121.934 160.856 120.194 158.715 120.194C156.573 120.194 154.804 121.934 154.804 124.041C154.804 126.147 156.527 127.887 158.715 127.887Z" fill="white"/>
<path d="M204.334 95.1015L209.222 92.9493L207.36 86.0809L204.102 86.4014C203.915 86.4472 203.683 86.493 203.45 86.493C203.403 86.493 203.357 86.493 203.357 86.493L202.053 86.6303C201.355 85.4856 200.517 84.4324 199.586 83.5166C198.655 82.6008 197.585 81.7766 196.421 81.0898L196.979 75.8697L189.997 74.0381L187.809 78.846C185.109 78.8918 182.455 79.5787 180.081 80.8608L175.752 77.7929L170.632 82.8298L173.75 87.0882C172.447 89.4235 171.702 92.0335 171.702 94.6894L166.814 96.8415L168.676 103.71L173.983 103.16C175.38 105.45 177.335 107.373 179.616 108.701L179.057 113.921L186.04 115.753L188.228 110.945C190.928 110.899 193.581 110.212 195.955 108.93L200.284 111.998L205.405 106.961L202.286 102.703C203.59 100.367 204.288 97.7573 204.334 95.1015Z" fill="#DFDFF2"/>
<g filter="url(#filter0_i_825_20)">
<path d="M204.334 95.1015L209.222 92.9493L207.36 86.0809L204.102 86.4014C203.915 86.4472 203.683 86.493 203.45 86.493C203.403 86.493 203.357 86.493 203.357 86.493L202.053 86.6303C201.355 85.4856 200.517 84.4324 199.586 83.5166C198.655 82.6008 197.585 81.7766 196.421 81.0898L196.979 75.8697L189.997 74.0381L187.809 78.846C185.109 78.8918 182.455 79.5787 180.081 80.8608L175.752 77.7929L170.632 82.8298L173.75 87.0882C172.447 89.4235 171.702 92.0335 171.702 94.6894L166.814 96.8415L168.676 103.71L173.983 103.16C175.38 105.45 177.335 107.373 179.616 108.701L179.057 113.921L186.04 115.753L188.228 110.945C190.928 110.899 193.581 110.212 195.955 108.93L200.284 111.998L205.405 106.961L202.286 102.703C203.59 100.367 204.288 97.7573 204.334 95.1015Z" fill="#CACACA"/>
</g>
<path d="M204.334 95.1015L209.222 92.9493L207.36 86.0809L204.102 86.4014C203.915 86.4472 203.683 86.493 203.45 86.493C203.403 86.493 203.357 86.493 203.357 86.493L202.053 86.6303C201.355 85.4856 200.517 84.4324 199.586 83.5166C198.655 82.6008 197.585 81.7766 196.421 81.0898L196.979 75.8697L189.997 74.0381L187.809 78.846C185.109 78.8918 182.455 79.5787 180.081 80.8608L175.752 77.7929L170.632 82.8298L173.75 87.0882C172.447 89.4235 171.702 92.0335 171.702 94.6894L166.814 96.8415L168.676 103.71L173.983 103.16C175.38 105.45 177.335 107.373 179.616 108.701L179.057 113.921L186.04 115.753L188.228 110.945C190.928 110.899 193.581 110.212 195.955 108.93L200.284 111.998L205.405 106.961L202.286 102.703C203.59 100.367 204.288 97.7573 204.334 95.1015Z" stroke="#DFDFF2" stroke-width="0.416667" stroke-linecap="round" stroke-linejoin="round"/>
<path d="M208.896 91.8505C208.338 89.8816 207.826 87.9584 207.36 86.4015V86.3557C207.314 86.3557 207.221 86.3557 207.174 86.3557C207.453 87.4089 207.593 88.1415 207.919 89.6984C208.245 90.8431 208.477 91.7589 208.71 92.7205C208.803 92.6747 208.943 92.6289 209.036 92.5832L208.803 93.0868C208.757 92.9495 208.757 92.8121 208.71 92.7205C207.5 93.2242 206.15 93.7737 204.102 94.5979C204.009 94.6437 203.915 94.6895 203.822 94.7811C203.776 94.8727 203.729 94.9642 203.729 95.1016V95.1474C203.729 95.4221 203.683 95.8342 203.636 96.2464C203.496 98.4443 202.891 100.551 201.821 102.474C201.774 102.565 201.774 102.657 201.774 102.749C201.774 102.84 201.821 102.932 201.867 103.023C202.798 104.305 203.729 105.542 204.707 106.915C204.8 106.824 204.94 106.686 205.033 106.595L204.986 107.282C204.893 107.144 204.8 107.007 204.707 106.915C204.288 107.282 203.869 107.694 203.45 108.106C202.752 108.976 202.519 108.976 201.914 109.938L200.284 111.357C200.378 111.449 200.517 111.54 200.61 111.632L199.959 111.678L200.284 111.357C199.028 110.35 197.678 109.388 196.281 108.518L196.235 108.472C196.141 108.426 196.048 108.381 195.955 108.381C195.862 108.381 195.769 108.426 195.676 108.472L195.117 108.839C194.605 108.884 193.628 109.296 192.51 109.617C191.486 109.938 190.369 110.121 189.298 110.166C188.926 110.212 188.554 110.212 188.228 110.212C188.088 110.212 187.949 110.258 187.809 110.35C187.669 110.441 187.576 110.533 187.53 110.67C186.878 112.09 186.226 113.509 185.621 114.883C185.854 114.929 186.04 114.974 186.273 115.066L185.342 115.478C185.435 115.295 185.528 115.066 185.621 114.883C183.666 114.379 181.757 113.875 179.802 113.418C179.802 113.601 179.756 113.83 179.756 114.013L179.244 113.28C179.43 113.326 179.616 113.372 179.802 113.418C179.942 111.861 180.081 110.35 180.175 108.793C180.175 108.701 180.175 108.564 180.128 108.472C180.081 108.381 179.988 108.289 179.895 108.243C177.614 106.961 175.706 105.13 174.309 102.977C174.263 102.886 174.216 102.84 174.123 102.84C174.03 102.794 173.983 102.794 173.89 102.794C172.075 103.023 170.445 103.206 168.909 103.39C168.956 103.481 168.956 103.573 169.002 103.664L168.63 103.39C168.723 103.39 168.816 103.344 168.909 103.344C168.258 101.054 167.652 98.948 167.094 96.979C167.001 97.0248 166.954 97.0248 166.861 97.0706L167.001 96.75C167.001 96.8416 167.047 96.8874 167.047 96.979C168.63 96.2464 170.166 95.5595 171.656 94.8727C171.702 94.8727 171.749 94.8269 171.749 94.7811C171.795 94.7353 171.795 94.6895 171.795 94.6437C171.795 94.4148 171.795 94.2316 171.795 94.0026C171.935 92.8121 172.168 91.6674 172.54 90.5226C172.913 89.3779 173.378 88.2789 173.983 87.2257C174.03 87.1799 174.03 87.0884 174.03 86.9968C174.03 86.9052 173.983 86.8594 173.937 86.7678C173.285 85.8062 172.54 84.7531 171.656 83.4252L171.19 82.8299C171.097 82.9215 170.957 83.0589 170.864 83.1504L170.911 82.4636L171.19 82.8299C172.68 81.3188 174.216 79.762 175.659 78.2509C175.566 78.2051 175.473 78.1135 175.38 78.0677L175.892 78.022C175.799 78.1135 175.752 78.2051 175.659 78.2509C177.195 79.2583 178.592 80.1741 179.802 80.9525C179.849 80.9525 179.849 80.9983 179.895 80.9983C179.942 80.9983 179.942 80.9983 179.988 80.9525C180.361 80.7236 180.64 80.5404 180.919 80.403C181.99 79.9909 182.781 79.7162 183.619 79.4414C184.69 79.1209 185.761 78.9378 186.878 78.892C187.111 78.892 187.343 78.892 187.576 78.892H187.623L187.669 78.8462C188.367 77.3351 189.112 75.7783 189.857 74.1756C189.811 74.1756 189.764 74.1756 189.717 74.1298L189.904 74.0382C189.904 74.084 189.857 74.1298 189.857 74.1298C192.185 74.7251 194.512 75.3204 196.7 75.8698C196.7 75.824 196.7 75.824 196.7 75.7783L196.747 75.8698C196.7 75.8698 196.7 75.8698 196.654 75.8698C196.607 76.5567 196.514 77.1977 196.467 77.8388C196.374 78.8004 196.281 79.7162 196.141 80.9983C196.141 80.9983 196.141 80.9983 196.141 81.0441C196.141 81.0441 196.141 81.0441 196.141 81.0899C196.281 81.1815 196.467 81.273 196.654 81.4104C196.793 81.502 197.491 81.9599 198.05 82.4178C198.329 82.6925 198.609 82.9215 198.935 83.1504C199.353 83.5168 199.586 83.7457 198.935 83.1504C198.562 82.7841 198.003 82.372 198.19 82.5094C198.283 82.5552 198.609 82.8757 198.935 83.1046C199.214 83.3794 199.447 83.5625 199.307 83.4252C198.376 82.5094 197.352 81.6852 196.235 81.0441V81.0899L196.188 81.0441C196.188 81.0441 196.235 81.0441 196.235 81.0899C196.421 79.3957 196.654 77.6556 196.886 75.9156C196.886 75.8698 196.886 75.824 196.84 75.824C196.84 75.7783 196.793 75.7783 196.747 75.7325C194.419 75.0456 192.045 74.313 189.811 73.6261C189.717 73.5803 189.624 73.5803 189.531 73.6261C189.438 73.6719 189.345 73.7177 189.298 73.8093L189.252 73.8551L188.228 75.7783C187.809 76.6025 187.436 77.3809 187.064 78.1135C187.204 78.1135 187.343 78.1135 187.483 78.1135L186.831 78.5256C186.878 78.3883 186.971 78.2509 187.017 78.1135C185.202 78.1135 183.433 78.3883 181.711 78.9378C181.059 79.1667 180.407 79.4872 179.802 79.8078C179.942 79.8993 180.128 80.0367 180.268 80.1283L179.29 80.0825C179.476 79.9909 179.616 79.8993 179.802 79.8078C178.219 78.7088 176.73 77.7014 175.892 77.1977L175.845 77.152C175.706 77.0604 175.519 77.0146 175.333 77.0146C175.147 77.0146 175.007 77.1062 174.868 77.2435C173.052 79.1667 171.888 80.3572 171.051 81.2273C170.725 81.5936 170.306 82.0057 169.887 82.4178C169.794 82.5094 169.747 82.6467 169.747 82.7841C169.747 82.9215 169.794 83.0589 169.84 83.1504C170.818 84.5241 171.888 85.8062 173.006 87.0426C173.006 87.0426 173.006 87.0426 173.006 87.0884C173.052 87.0426 173.099 86.9968 173.099 86.951V87.2715C173.052 87.2257 173.006 87.1342 172.959 87.0884C172.913 87.1342 172.913 87.1342 172.913 87.0884C171.749 89.3779 171.097 91.9421 171.051 94.5063C171.097 94.5063 171.144 94.4605 171.19 94.4605L171.051 94.6895C171.051 94.6437 171.051 94.5979 171.051 94.5521C169.561 95.239 168.118 95.88 166.535 96.6127L166.349 96.7043C166.302 96.7043 166.256 96.75 166.256 96.7958C166.256 96.8416 166.256 96.8874 166.256 96.9332C166.721 98.4901 167.14 99.8638 167.559 101.283C167.792 102.107 167.978 102.932 168.211 103.802C168.211 103.847 168.211 103.847 168.258 103.847H168.304C169.98 103.71 171.749 103.527 173.518 103.39C173.518 103.344 173.471 103.344 173.471 103.298L173.611 103.39C173.564 103.39 173.564 103.39 173.518 103.39C173.657 103.664 173.844 103.893 174.03 104.168C174.216 104.351 174.356 104.534 174.449 104.717C175.007 105.45 175.613 106.137 176.311 106.778C176.637 107.144 177.009 107.511 177.381 107.831C177.614 107.969 177.847 108.106 177.987 108.335C178.266 108.564 178.592 108.747 178.918 108.976C178.918 108.93 178.918 108.839 178.964 108.793L179.104 109.113C179.057 109.068 178.964 109.022 178.918 109.022C178.871 109.48 178.778 109.983 178.731 110.533C178.592 111.907 178.452 113.189 178.359 114.059C178.359 114.15 178.359 114.242 178.406 114.333C178.452 114.425 178.545 114.471 178.638 114.471C178.964 114.562 179.244 114.654 179.569 114.7C179.662 114.7 179.756 114.745 179.849 114.791C181.524 115.249 183.107 115.661 184.504 116.028C184.969 116.119 185.435 116.211 185.9 116.302C185.993 116.257 186.04 116.211 186.086 116.119C186.831 114.562 187.53 113.097 188.181 111.632C188.088 111.632 187.995 111.632 187.855 111.632L188.274 111.357C188.228 111.449 188.181 111.54 188.135 111.632C188.647 111.632 189.159 111.586 189.624 111.54C189.904 111.403 190.276 111.311 190.695 111.311C190.835 111.311 190.974 111.311 191.067 111.357C191.3 111.311 191.579 111.265 191.812 111.22C192.092 111.082 192.417 110.991 192.836 110.945C193.721 110.67 194.605 110.35 195.49 109.938L195.164 109.709L195.909 109.754C195.769 109.846 195.629 109.892 195.49 109.938L198.376 112.135L198.422 112.181L198.795 112.456C199.028 112.593 199.214 112.731 199.4 112.868L199.493 112.914C199.633 113.005 199.819 113.051 200.005 113.005C200.191 112.96 200.331 112.914 200.424 112.777C200.517 112.685 200.61 112.548 200.703 112.456C200.983 111.952 201.309 111.494 201.681 111.036C202.193 110.395 202.798 109.983 203.45 109.617C204.148 108.976 204.8 108.335 205.498 107.648C205.638 107.511 205.684 107.373 205.684 107.19C205.684 107.007 205.638 106.87 205.545 106.732C205.033 106 204.474 105.267 203.915 104.534C203.496 104.26 203.217 103.893 203.078 103.435C202.938 103.206 202.752 103.023 202.612 102.794C202.565 102.932 202.519 103.069 202.426 103.161L202.379 102.52C202.472 102.611 202.519 102.703 202.612 102.794C203.217 101.604 203.636 100.367 203.915 99.0395C204.148 97.849 204.241 96.6127 204.241 95.4221C204.195 95.4679 204.148 95.4679 204.102 95.5137L204.241 95.2848C204.241 95.3306 204.241 95.3763 204.241 95.4221C204.288 95.4221 204.288 95.3763 204.334 95.3763C204.567 95.239 204.8 95.1474 205.033 95.0558C205.312 94.8269 205.684 94.6437 206.103 94.5521C206.522 94.369 206.941 94.14 207.36 93.9569L208.896 93.1784C208.896 93.1784 208.896 93.1784 208.896 93.1326C209.129 92.5832 209.036 92.2168 208.896 91.8505Z" fill="#282828"/>
<g filter="url(#filter1_d_825_20)">
<path d="M187.995 100.734C191.3 100.734 194 98.0779 194 94.8268C194 91.5757 191.3 88.9199 187.995 88.9199C184.69 88.9199 181.99 91.5757 181.99 94.8268C181.99 98.1237 184.69 100.734 187.995 100.734Z" fill="#CACACA"/>
</g>
<path d="M187.995 100.734C191.3 100.734 194 98.0779 194 94.8268C194 91.5757 191.3 88.9199 187.995 88.9199C184.69 88.9199 181.99 91.5757 181.99 94.8268C181.99 98.1237 184.69 100.734 187.995 100.734Z" fill="#282828"/>
<path d="M164.72 75.0915C164.72 73.1683 164.487 71.1993 163.975 69.3219L170.026 64.4682L164.72 55.4476L157.411 58.195C154.572 55.4476 151.08 53.4786 147.31 52.4254L146.053 44.8701H135.439L134.182 52.4254C130.365 53.4786 126.92 55.4476 124.081 58.195L116.772 55.4476L111.466 64.514L117.517 69.3677C116.54 73.1683 116.54 77.1062 117.517 80.861L111.466 85.7147L116.772 94.7353L124.081 91.9879C126.92 94.6895 130.412 96.6585 134.229 97.7575L135.486 105.313H146.099L147.356 97.7575C151.173 96.7043 154.665 94.7353 157.504 91.9879L164.813 94.7353L170.12 85.7147L164.068 80.861C164.44 78.9836 164.72 77.0604 164.72 75.0915Z" fill="#AF64FF"/>
<g filter="url(#filter2_i_825_20)">
<path d="M164.72 75.0915C164.72 73.1683 164.487 71.1993 163.975 69.3219L170.026 64.4682L164.72 55.4476L157.411 58.195C154.572 55.4476 151.08 53.4786 147.31 52.4254L146.053 44.8701H135.439L134.182 52.4254C130.365 53.4786 126.92 55.4476 124.081 58.195L116.772 55.4476L111.466 64.514L117.517 69.3677C116.54 73.1683 116.54 77.1062 117.517 80.861L111.466 85.7147L116.772 94.7353L124.081 91.9879C126.92 94.6895 130.412 96.6585 134.229 97.7575L135.486 105.313H146.099L147.356 97.7575C151.173 96.7043 154.665 94.7353 157.504 91.9879L164.813 94.7353L170.12 85.7147L164.068 80.861C164.44 78.9836 164.72 77.0604 164.72 75.0915Z" fill="#CACACA"/>
</g>
<path d="M170.213 64.5139C170.213 64.4681 170.213 64.4223 170.213 64.3765C168.49 61.3086 166.768 58.1949 165.139 55.1727C165.092 55.0812 164.999 54.9896 164.906 54.9896C164.813 54.9896 164.72 54.9438 164.58 54.9896H164.533C163.509 55.3101 162.485 55.6764 161.461 55.997L157.551 57.3249C157.644 57.4165 157.784 57.508 157.877 57.6454L157.132 57.508L157.551 57.3707C155.642 55.5391 153.501 54.028 151.127 52.8375C150.103 52.3796 149.079 52.0132 148.054 51.6927C148.101 51.8759 148.101 52.059 148.148 52.2422L147.496 51.5095C147.682 51.5553 147.868 51.6011 148.054 51.6469C147.542 48.8079 147.03 46.1063 146.751 44.6411V44.5953C146.704 44.4121 146.611 44.2747 146.472 44.1832C146.332 44.0916 146.146 44 146.006 44C142.096 44.0916 139.629 44.1374 137.813 44.1832C137.115 44.1832 136.277 44.2289 135.393 44.2289C135.253 44.2289 135.113 44.2747 135.02 44.3663C134.927 44.4579 134.834 44.5495 134.834 44.6868C134.415 47.48 133.95 50.7311 133.903 51.9217C133.903 51.9674 133.903 52.0132 133.856 52.1048C133.903 52.1048 133.996 52.1048 134.043 52.059L133.81 52.288C133.81 52.2422 133.81 52.1506 133.856 52.059C133.717 52.1048 133.624 52.1048 133.717 52.059C130.039 53.2038 126.734 55.1727 123.941 57.7828C123.988 57.7828 124.034 57.8286 124.081 57.8286L123.801 57.8743C123.848 57.8286 123.895 57.7828 123.941 57.7828C121.66 56.9586 119.426 56.1343 117.052 55.2643L116.772 55.1727C116.726 55.1727 116.679 55.1727 116.633 55.1727C116.586 55.1727 116.54 55.2185 116.54 55.2643C115.329 57.3707 114.352 59.1565 113.281 61.0796C112.629 62.1328 111.978 63.2318 111.326 64.3765C111.326 64.3765 111.326 64.4223 111.326 64.4681C111.326 64.5139 111.326 64.5139 111.372 64.5139C113.281 66.0707 115.283 67.7192 117.284 69.3218C117.284 69.276 117.284 69.276 117.331 69.2303L117.377 69.4134C117.331 69.4134 117.331 69.3676 117.284 69.3676C116.726 71.474 116.493 73.6261 116.586 75.7782C116.493 77.4267 116.679 79.0751 117.098 80.7235C117.145 80.6777 117.191 80.6319 117.238 80.5862L117.145 80.9067C117.145 80.8609 117.098 80.7693 117.098 80.7235C116.54 81.1356 115.934 81.6393 115.236 82.143C113.653 83.4251 112.117 84.6157 111.14 85.3941C111.047 85.4399 111 85.5315 111 85.6231C111 85.7146 111 85.8062 111.047 85.8978L116.307 94.9642C116.353 95.0558 116.446 95.1016 116.54 95.1474C116.633 95.1931 116.726 95.1931 116.819 95.1474C119.239 94.2773 121.567 93.4073 123.848 92.5831C123.755 92.4915 123.708 92.4457 123.615 92.3542L124.127 92.4458C124.034 92.4915 123.941 92.5373 123.848 92.5373C125.524 94.14 127.479 95.5137 129.527 96.6126C129.713 96.6584 129.9 96.75 130.039 96.8416C130.551 97.0705 131.063 97.3453 131.575 97.5284C131.669 97.5742 131.808 97.62 131.901 97.62C132.134 97.7116 132.413 97.8032 132.6 97.8947C132.879 97.9863 133.158 98.1237 133.484 98.2153C133.484 98.0779 133.437 97.9405 133.437 97.8032L133.95 98.3526C133.81 98.3069 133.67 98.2611 133.531 98.2153C133.81 100.093 134.089 102.153 134.415 104.397C134.462 104.763 134.555 105.13 134.601 105.45V105.542C134.648 105.725 134.741 105.862 134.881 105.954C135.02 106.045 135.206 106.137 135.393 106.091C136.743 106.045 137.674 105.908 139.256 105.862C141.398 105.954 143.679 106 146.006 106C146.192 106 146.332 105.954 146.472 105.816C146.611 105.725 146.704 105.542 146.704 105.404C147.123 103.023 147.449 100.596 147.822 98.1695C147.682 98.2153 147.542 98.2611 147.449 98.3069L147.915 97.8032C147.915 97.9405 147.868 98.0321 147.868 98.1695C149.777 97.5284 151.592 96.7042 153.315 95.6053C154.851 94.6437 156.247 93.4989 157.504 92.2168L157.365 92.171L157.644 92.1252C157.597 92.171 157.551 92.2168 157.551 92.2168L157.737 92.2626C159.18 92.7663 160.437 93.1784 161.694 93.6363C161.88 93.6363 162.02 93.6821 162.113 93.7737C162.206 93.8194 162.299 93.8194 162.346 93.8652C163.23 94.14 163.975 94.4147 164.72 94.6437C164.72 94.6437 164.72 94.6437 164.766 94.6437C165.045 94.14 165.278 93.6821 165.604 93.1784C167.094 90.5684 168.583 88.0957 169.794 85.9436L169.887 85.7604C169.84 85.7146 169.794 85.6688 169.747 85.6231C168.909 87.0425 168.304 87.9125 167.047 89.9731C166.116 91.53 165.371 92.7663 164.58 94.0942C164.72 94.14 164.813 94.1858 164.952 94.2316L164.394 94.4147C164.44 94.3231 164.533 94.1858 164.58 94.0942C162.765 93.3615 160.716 92.5373 157.69 91.3468C157.597 91.301 157.458 91.301 157.365 91.301C157.272 91.301 157.132 91.3926 157.085 91.4384C156.806 91.7131 156.34 92.1252 155.828 92.5373C153.361 94.6437 150.429 96.2463 147.263 97.1621C147.17 97.2079 147.077 97.2537 147.03 97.2995C146.984 97.3911 146.937 97.4369 146.891 97.5742C146.518 99.9095 146.146 102.245 145.68 104.672C145.82 104.672 146.006 104.672 146.146 104.672L145.587 105.13C145.634 104.992 145.634 104.809 145.68 104.672C144.796 104.672 143.865 104.626 142.887 104.626C141.258 104.763 141.025 104.58 139.396 104.855L135.998 104.717C135.998 104.855 136.044 104.992 136.044 105.13L135.532 104.717H135.998C135.672 102.245 135.253 99.589 134.834 97.5742V97.5284C134.834 97.4369 134.787 97.3453 134.694 97.2995C134.648 97.2537 134.555 97.1621 134.462 97.1621L133.484 96.9332C132.879 96.5211 131.389 95.9716 129.853 95.1474C128.41 94.4147 127.107 93.4989 125.896 92.4C125.477 92.0336 125.105 91.7131 124.732 91.3468C124.639 91.2552 124.5 91.1636 124.36 91.1636C124.22 91.1636 124.081 91.1636 123.941 91.2094L117.284 93.7279C117.377 93.911 117.517 94.0942 117.61 94.2773L116.679 93.9568L117.284 93.7279C115.702 91.0721 114.119 88.4162 112.536 85.8062C112.397 85.9436 112.21 86.0809 112.071 86.1725L112.257 85.3025C112.35 85.4857 112.443 85.6231 112.536 85.8062C114.352 84.2951 116.214 82.7841 118.076 81.273C118.169 81.1814 118.215 81.0898 118.262 80.9983C118.308 80.9067 118.308 80.7693 118.262 80.6777C117.284 76.9688 117.238 73.1224 118.122 69.4134C118.122 69.3218 118.122 69.2303 118.122 69.1845C118.076 69.0929 118.029 69.0471 117.983 69.0013C115.888 67.3529 113.933 65.8418 112.117 64.4223C112.071 64.5139 112.024 64.6055 111.978 64.6971L111.884 64.2392C111.978 64.2849 112.024 64.3765 112.117 64.4223C113.933 61.3086 115.562 58.4696 117.098 55.8138C117.005 55.768 116.959 55.768 116.865 55.7222L117.191 55.5849C117.145 55.6306 117.098 55.7222 117.098 55.768C119.519 56.638 121.846 57.508 124.174 58.378C124.22 58.378 124.267 58.378 124.314 58.378C124.36 58.378 124.407 58.3322 124.407 58.3322C124.639 58.1033 124.872 57.9201 125.105 57.6912C126.455 56.5464 127.944 55.5849 129.527 54.7606C131.11 53.9364 132.786 53.2954 134.508 52.7917C134.601 52.7917 134.648 52.7459 134.694 52.6543C134.741 52.6085 134.787 52.5169 134.787 52.4711C135.067 50.8227 135.439 48.9453 135.905 46.6558C135.765 46.2437 135.858 45.8316 135.905 45.3737C135.765 45.3737 135.579 45.3737 135.439 45.3737L135.998 44.9158C135.951 45.0532 135.951 45.2363 135.905 45.3737C139.163 45.3279 142.561 45.3279 145.68 45.2363C145.68 45.1447 145.634 45.0532 145.634 44.9158L146.053 45.2363C145.96 45.2363 145.82 45.2363 145.727 45.2363C146.239 47.9379 146.704 50.3648 147.123 52.4253C147.123 52.4711 147.123 52.4711 147.17 52.5169C147.17 52.5627 147.217 52.5627 147.263 52.5627C147.868 52.7001 148.38 52.8375 148.799 52.9748C150.103 53.5243 151.36 54.1196 152.616 54.7606C154.06 55.5391 155.363 56.4549 156.573 57.508C156.853 57.737 157.085 57.9659 157.318 58.1949C157.318 58.1949 157.365 58.1949 157.365 58.2407H157.411C159.739 57.3707 162.206 56.5007 164.627 55.5849C164.627 55.5391 164.58 55.4933 164.58 55.4933L164.766 55.5391C164.72 55.5391 164.673 55.5849 164.627 55.5849C166.395 58.607 168.211 61.6291 169.887 64.4223L169.933 64.3765V64.4681L169.887 64.4223L167.606 66.2997L163.928 69.276C163.928 69.276 163.928 69.276 163.928 69.3218C163.928 69.3218 163.928 69.3218 163.928 69.3676C163.975 69.5966 164.068 69.9171 164.114 70.1918C164.161 70.4208 164.394 71.6113 164.487 72.6645C164.58 73.7177 164.627 74.6335 164.627 74.3129C164.673 75.5951 164.673 75.0914 164.627 74.3587C164.627 73.6261 164.487 72.6187 164.533 72.9392C164.58 73.0766 164.627 73.7635 164.627 74.3129C164.627 74.8624 164.627 75.3203 164.673 74.9998C164.673 73.1224 164.44 71.1992 163.975 69.3676L163.928 69.4134L163.975 69.3218V69.3676L170.026 64.6055C170.166 64.6055 170.166 64.5597 170.213 64.5139Z" fill="#282828"/>
<g filter="url(#filter3_d_825_20)">
<path d="M140.746 83.6999C145.587 83.6999 149.498 79.8536 149.498 75.0914C149.498 70.3293 145.587 66.4829 140.746 66.4829C135.905 66.4829 131.994 70.3293 131.994 75.0914C131.994 79.8536 135.905 83.6999 140.746 83.6999Z" fill="#CACACA"/>
</g>
<path d="M140.746 83.6999C145.587 83.6999 149.498 79.8536 149.498 75.0914C149.498 70.3293 145.587 66.4829 140.746 66.4829C135.905 66.4829 131.994 70.3293 131.994 75.0914C131.994 79.8536 135.905 83.6999 140.746 83.6999Z" fill="#282828"/>
<path fill-rule="evenodd" clip-rule="evenodd" d="M176.217 67.1129C175.927 67.217 176.062 66.881 175.991 66.7579C175.844 66.7155 175.86 66.5033 175.765 66.4048C175.745 66.222 175.651 66.0001 175.764 65.8871C175.549 65.6967 175.588 65.4189 175.464 65.1606C175.406 65.0403 175.302 64.9486 175.228 64.815C175.155 64.6799 175.136 64.5431 175.061 64.3937C174.763 63.8019 174.314 62.8822 174.364 62.0822C174.305 61.912 174.149 61.8651 174.09 61.6963C173.987 60.432 173.637 59.1992 173.058 58.0659C173.042 57.7285 172.778 57.6524 172.944 57.3618C172.645 56.8938 172.429 56.3788 172.307 55.8391C172.09 55.7345 171.89 55.5994 171.712 55.438C171.308 55.0305 171.284 54.5176 170.833 53.9934C170.847 54.0086 170.926 53.8944 170.868 53.8967C170.597 53.9073 170.413 53.4773 170.226 53.2735C169.83 52.8437 169.4 52.4456 168.939 52.0829C168.758 51.7592 168.521 51.4689 168.238 51.2252C167.846 50.5327 167.103 50.0297 166.706 49.2802C166.819 49.0329 166.941 49.2423 167.059 49.1305C167.201 49.0459 166.79 48.8666 167.054 48.9205C167.188 48.6393 167.425 49.0094 167.42 49.0908C167.577 49.182 167.703 49.3179 167.78 49.4805C168.342 49.9011 168.821 50.4198 169.193 51.0105C169.432 51.3091 169.66 51.3136 169.762 51.6283C170.359 51.994 170.912 52.4265 171.409 52.917C171.699 53.6045 172.092 53.7292 172.128 54.3251C172.861 54.8421 173.231 55.5515 173.706 56.6115C174.039 57.7471 174.513 58.732 174.785 59.9058C174.733 60.1745 175.013 60.5792 174.79 60.7815C175.054 61.0346 175.027 61.5985 175.014 61.9205C175.232 62.0201 175.128 62.0694 175.255 62.1924C175.307 62.8458 175.508 63.4793 175.844 64.045C176.047 64.7121 175.961 64.9355 176.264 65.3464C176.321 65.6115 176.177 65.7264 176.363 65.9187C176.363 66.0301 176.531 66.0607 176.396 66.1093C176.369 66.3978 176.526 66.4502 176.302 66.5806C176.307 66.776 176.472 67.0605 176.217 67.1129Z" fill="#949494"/>
<path fill-rule="evenodd" clip-rule="evenodd" d="M180.69 59.637C180.403 59.7366 180.544 59.5404 180.478 59.4874C180.336 59.4889 180.356 59.3761 180.269 59.3397C180.256 59.2474 180.171 59.1474 180.283 59.0696C180.081 59.006 180.128 58.8543 180.019 58.7401C179.968 58.6869 179.87 58.6577 179.804 58.6005C179.738 58.543 179.727 58.4741 179.661 58.409C179.4 58.1511 179.019 57.751 179.132 57.3096C179.088 57.2291 178.942 57.2341 178.899 57.1543C178.908 56.5073 178.723 55.8722 178.366 55.3289C178.403 55.1386 178.177 55.1411 178.38 54.9431C178.188 54.725 178.091 54.4423 178.108 54.1548C177.952 54.1361 177.803 54.087 177.667 54.0102C177.4 53.829 177.522 53.5125 177.278 53.2493C177.285 53.2571 177.388 53.174 177.337 53.1834C177.1 53.2262 177.069 52.9797 176.979 52.8705C176.78 52.6423 176.562 52.4302 176.329 52.236C176.322 52.0739 176.251 51.9208 176.13 51.8097C176.114 51.6554 176.05 51.5099 175.946 51.393C175.859 51.2849 175.809 51.1935 175.647 51.0094C175.599 50.7466 175.709 50.8382 175.728 50.6786C175.77 50.5254 175.505 50.6335 175.649 50.5159C175.589 50.2063 175.903 50.3682 175.913 50.4479C175.974 50.4482 176.034 50.4647 176.087 50.4958C176.139 50.5268 176.183 50.5713 176.212 50.6244C176.41 50.6777 176.581 50.8035 176.689 50.9761C176.792 51.1392 176.876 51.3132 176.939 51.4951C177.017 51.6747 177.211 51.6508 177.17 51.8543C177.509 52.0266 177.823 52.2417 178.105 52.4943C178.141 52.8871 178.452 52.905 178.321 53.2655C178.833 53.4683 178.988 53.8338 179.221 54.367C179.307 54.9704 179.611 55.4377 179.736 56.0374C179.654 56.1977 179.883 56.3655 179.649 56.5203C179.878 56.6078 179.801 56.9222 179.767 57.0978C179.967 57.1104 179.864 57.1568 179.978 57.199C179.98 57.3711 180.023 57.5404 180.102 57.6936C180.182 57.8468 180.296 57.98 180.437 58.0828C180.6 58.4024 180.513 58.5339 180.79 58.7C180.837 58.8307 180.691 58.9159 180.868 58.9859C180.866 59.0443 181.028 59.0329 180.894 59.0812C180.857 59.2379 181.009 59.2404 180.788 59.3448C180.787 59.4463 180.941 59.5698 180.69 59.637Z" fill="#949494"/>
<path fill-rule="evenodd" clip-rule="evenodd" d="M181.672 61.8115C181.889 62.019 181.741 61.9058 181.771 61.9477C181.866 62.0475 181.821 62.0248 181.869 62.0832C181.853 62.0858 181.88 62.1363 181.784 62.0509C181.899 62.1862 181.824 62.1401 181.863 62.2062C181.882 62.2369 181.936 62.3019 181.962 62.3419C181.988 62.382 181.975 62.3834 181.998 62.4225C182.092 62.5788 182.209 62.7965 181.993 62.6619C181.993 62.6808 182.088 62.7819 182.088 62.8006C181.861 62.7261 181.763 62.7154 181.774 62.8778C181.678 62.8165 181.817 62.9708 181.619 62.7963C181.649 62.8839 181.601 62.8949 181.474 62.822C181.548 62.9064 181.616 62.9949 181.679 63.0871C181.761 63.2254 181.561 63.0754 181.59 63.1741C181.589 63.1711 181.494 63.0828 181.528 63.1192C181.684 63.2873 181.597 63.2485 181.6 63.2804C181.621 63.3711 181.65 63.4599 181.686 63.5456C181.612 63.5072 181.576 63.5101 181.569 63.5456C181.374 63.4342 181.396 63.549 181.085 63.3212C180.892 63.1372 180.971 63.1924 180.858 63.0785C180.752 62.9681 180.803 63.0614 180.733 62.9688C180.512 62.7572 180.642 62.8456 180.693 62.891C180.679 62.8544 180.735 62.896 180.779 62.9235C180.751 62.8337 180.906 62.9103 181.002 62.9366C181.049 62.9451 180.93 62.8125 181.044 62.8948C180.948 62.7516 180.863 62.6015 180.79 62.4457C180.935 62.5162 180.763 62.3167 180.987 62.4845C180.769 62.1903 180.823 62.1665 180.888 62.1162C181.065 62.176 181.05 62.0527 181.18 62.0624C181.287 62.1434 181.2 62.0117 181.4 62.1952C181.286 62.0514 181.438 62.1476 181.518 62.1955C181.395 62.0588 181.475 62.1353 181.416 62.0625C181.527 62.1037 181.517 62.0396 181.396 61.8497C181.384 61.7689 181.482 61.8439 181.346 61.6652C181.352 61.6441 181.472 61.7534 181.376 61.6362C181.394 61.6432 181.283 61.5288 181.385 61.6265C181.452 61.6639 181.352 61.5582 181.527 61.7208C181.555 61.7294 181.487 61.6314 181.672 61.8115Z" fill="#949494"/>
<path fill-rule="evenodd" clip-rule="evenodd" d="M135.867 112.101C135.833 112.404 135.613 112.139 135.483 112.148C135.384 112.26 135.217 112.155 135.093 112.193C134.935 112.13 134.708 112.113 134.671 111.967C134.416 112.054 134.216 111.882 133.949 111.854C133.824 111.841 133.696 111.88 133.55 111.871C133.408 111.847 133.268 111.814 133.131 111.772C132.755 111.718 132.386 111.627 132.029 111.501C131.644 111.362 131.297 111.136 131.017 110.841C130.865 110.76 130.722 110.832 130.568 110.749C129.496 109.808 128.926 109.265 127.778 108.396C127.632 108.109 127.365 108.144 127.41 107.825C126.98 107.516 126.635 107.107 126.407 106.634C126.178 106.59 125.959 106.506 125.761 106.385C125.284 106.073 125.236 105.556 124.769 105.083C124.781 105.098 124.862 104.982 124.805 104.986C124.539 105.002 124.366 104.575 124.199 104.366C124.074 104.221 123.912 104.005 123.725 103.765C123.543 103.522 123.313 103.266 123.13 103C123.041 102.64 122.905 102.294 122.725 101.969C122.66 101.572 122.568 101.18 122.448 100.795C122.349 100.401 122.323 99.992 122.373 99.589C122.614 99.4649 122.588 99.6866 122.751 99.6623C122.916 99.6701 122.693 99.3312 122.873 99.5039C123.152 99.3674 123.117 99.7479 123.065 99.8093C123.135 99.954 123.159 100.117 123.133 100.275C123.263 100.551 123.367 100.838 123.444 101.132C123.524 101.442 123.59 101.768 123.694 102.063C123.812 102.393 124.034 102.438 124.03 102.749C124.455 103.035 124.874 103.631 125.385 104.047C125.602 104.674 125.994 104.732 126.046 105.269C126.388 105.443 126.702 105.666 126.977 105.931C127.246 106.207 127.537 106.511 127.882 106.88C128.18 107.285 128.52 107.659 128.898 107.994C129.278 108.321 129.659 108.649 130.063 108.997C130.158 109.229 130.585 109.351 130.526 109.641C130.87 109.645 131.176 110.049 131.369 110.28C131.58 110.199 131.541 110.3 131.708 110.287C132.16 110.676 132.729 110.909 133.328 110.95C133.909 111.167 134.046 111.32 134.504 111.276C134.731 111.352 134.745 111.544 134.985 111.461C135.072 111.509 135.173 111.376 135.148 111.515C135.361 111.662 135.471 111.547 135.476 111.798C135.635 111.878 135.929 111.852 135.867 112.101Z" fill="#949494"/>
<path fill-rule="evenodd" clip-rule="evenodd" d="M129.06 115.625C129.122 115.92 128.92 115.746 128.845 115.799C128.808 115.941 128.68 115.889 128.607 115.959C128.493 115.948 128.337 115.984 128.298 115.848C128.133 116.008 127.979 115.884 127.79 115.916C127.702 115.927 127.609 115.985 127.501 116.001C127.397 116.001 127.293 115.992 127.19 115.976C126.727 115.993 125.952 115.84 125.675 115.325C125.569 115.264 125.438 115.339 125.33 115.276C124.821 114.596 124.237 113.974 123.588 113.421C123.526 113.195 123.294 113.249 123.403 112.975C123.097 112.767 122.871 112.463 122.761 112.114C122.581 112.114 122.402 112.077 122.238 112.003C121.881 111.813 121.888 111.424 121.544 111.119C121.555 111.128 121.639 111.023 121.586 111.037C121.343 111.1 121.234 110.797 121.106 110.664C120.924 110.474 120.564 110.143 120.233 109.837C120.166 109.591 120.051 109.36 119.896 109.157C119.809 108.608 119.419 108.133 119.515 107.511C119.734 107.355 119.719 107.524 119.87 107.462C120.024 107.423 119.802 107.235 119.977 107.313C120.231 107.137 120.215 107.427 120.169 107.486C120.205 107.531 120.231 107.582 120.245 107.638C120.26 107.693 120.263 107.75 120.255 107.807C120.497 108.174 120.676 108.578 120.784 109.002C120.882 109.226 121.086 109.21 121.073 109.445C121.468 109.667 121.846 109.917 122.205 110.192C122.347 110.642 122.674 110.636 122.654 111.058C123.254 111.23 123.531 111.605 123.993 112.139C124.388 112.722 124.838 113.266 125.337 113.764C125.354 113.962 125.67 114.031 125.555 114.287C125.821 114.274 125.963 114.605 126.069 114.791C126.251 114.698 126.199 114.792 126.327 114.768C126.455 114.92 126.621 115.038 126.809 115.109C126.996 115.18 127.2 115.202 127.399 115.172C127.779 115.252 127.863 115.399 128.15 115.236C128.286 115.261 128.312 115.414 128.445 115.285C128.499 115.313 128.542 115.156 128.542 115.296C128.682 115.375 128.723 115.234 128.77 115.473C128.877 115.492 129.029 115.37 129.06 115.625Z" fill="#949494"/>
<path fill-rule="evenodd" clip-rule="evenodd" d="M130.781 103.485C130.544 103.671 130.666 103.528 130.614 103.543C130.498 103.618 130.519 103.567 130.449 103.6C130.441 103.574 130.377 103.582 130.473 103.495C130.312 103.576 130.358 103.496 130.275 103.511C130.237 103.517 130.159 103.556 130.11 103.568C130.06 103.58 130.055 103.56 130.005 103.568C129.81 103.604 129.534 103.636 129.669 103.403C129.643 103.392 129.524 103.465 129.498 103.454C129.546 103.166 129.537 103.029 129.312 102.937C129.374 102.836 129.192 102.941 129.387 102.761C129.272 102.749 129.245 102.671 129.316 102.531C129.214 102.585 129.106 102.628 128.995 102.66C128.821 102.692 128.982 102.493 128.851 102.472C128.855 102.473 128.955 102.389 128.912 102.416C128.715 102.537 128.748 102.432 128.704 102.417C128.59 102.389 128.472 102.374 128.354 102.371C128.389 102.286 128.376 102.23 128.325 102.196C128.433 101.982 128.277 101.939 128.519 101.627C128.729 101.462 128.671 101.543 128.803 101.45C128.932 101.365 128.813 101.38 128.926 101.337C129.167 101.148 129.076 101.283 129.025 101.329C129.073 101.331 129.028 101.388 129 101.434C129.119 101.452 129.051 101.631 129.038 101.756C129.038 101.821 129.194 101.731 129.107 101.847C129.292 101.798 129.482 101.77 129.673 101.765C129.61 101.934 129.847 101.81 129.668 102.031C130.026 101.902 130.073 101.996 130.159 102.125C130.119 102.349 130.288 102.407 130.307 102.593C130.22 102.699 130.383 102.656 130.175 102.832C130.349 102.757 130.252 102.919 130.204 103.007C130.365 102.914 130.278 102.982 130.365 102.943C130.335 103.081 130.422 103.108 130.659 103.053C130.769 103.088 130.688 103.183 130.905 103.099C130.936 103.122 130.812 103.229 130.953 103.162C130.947 103.185 131.08 103.096 130.969 103.183C130.933 103.257 131.056 103.178 130.872 103.331C130.867 103.367 130.987 103.33 130.781 103.485Z" fill="#949494"/>
<path fill-rule="evenodd" clip-rule="evenodd" d="M193.137 66.495C193.394 66.6521 193.208 66.5984 193.237 66.6467C193.346 66.732 193.285 66.7378 193.337 66.7958C193.311 66.8187 193.334 66.8835 193.215 66.8294C193.344 66.9579 193.246 66.9541 193.283 67.0354C193.3 67.073 193.363 67.1334 193.389 67.1791C193.416 67.2249 193.397 67.2419 193.421 67.289C193.515 67.4762 193.642 67.735 193.359 67.7365C193.357 67.7707 193.474 67.8469 193.472 67.8799C193.166 68.0047 193.03 68.1145 193.041 68.4006C192.916 68.4103 193.099 68.5154 192.838 68.4503C192.88 68.5745 192.819 68.6556 192.654 68.6937C192.755 68.7546 192.848 68.8267 192.933 68.9086C193.049 69.0484 192.789 69.046 192.839 69.1868C192.837 69.1826 192.71 69.1533 192.756 69.173C192.97 69.2632 192.861 69.3131 192.872 69.3658C192.911 69.4891 192.966 69.6068 193.037 69.716C193 69.725 192.967 69.7462 192.944 69.7762C192.921 69.8061 192.909 69.8428 192.911 69.8803C192.669 69.963 192.736 70.1314 192.334 70.1991C192.067 70.1644 192.168 70.1414 192.01 70.1093C191.86 70.0722 191.947 70.1666 191.841 70.1043C191.535 70.0636 191.702 70.0158 191.771 70.0197C191.743 69.9729 191.816 69.9598 191.871 69.9413C191.811 69.8121 192.001 69.7078 192.114 69.6092C192.169 69.552 192.001 69.4824 192.15 69.4627C191.995 69.3227 191.866 69.158 191.767 68.9754C191.951 68.8892 191.719 68.7549 192.015 68.7467C191.716 68.4899 191.788 68.3512 191.877 68.1509C192.117 68.0067 192.107 67.7802 192.297 67.6164C192.437 67.6323 192.335 67.4858 192.592 67.5826C192.454 67.4498 192.659 67.4381 192.766 67.43C192.614 67.3201 192.715 67.3678 192.645 67.2999C192.803 67.2381 192.803 67.1287 192.681 66.902C192.691 66.7539 192.818 66.7855 192.673 66.5943C192.693 66.544 192.839 66.6153 192.734 66.4992C192.761 66.491 192.632 66.3961 192.755 66.4679C192.847 66.4622 192.733 66.3708 192.944 66.4857C192.986 66.4685 192.92 66.3543 193.137 66.495Z" fill="#949494"/>
<path fill-rule="evenodd" clip-rule="evenodd" d="M199.94 70.2776C200.214 70.4029 200.029 70.3581 200.067 70.3955C200.187 70.4642 200.132 70.4676 200.193 70.5149C200.173 70.5323 200.208 70.5855 200.088 70.5374C200.231 70.6448 200.138 70.6372 200.187 70.7046C200.209 70.736 200.277 70.7892 200.309 70.8291C200.34 70.8689 200.324 70.8818 200.351 70.9226C200.465 71.0837 200.595 71.3326 200.323 71.2992C200.321 71.3281 200.433 71.4104 200.431 71.4397C200.135 71.5084 200.008 71.5587 199.984 71.8032C199.866 71.776 200.021 71.9171 199.789 71.7863C199.809 71.8987 199.739 71.9498 199.582 71.9196C199.662 72.0025 199.732 72.0943 199.79 72.1931C199.863 72.3543 199.625 72.2506 199.632 72.384C199.632 72.3801 199.527 72.303 199.562 72.3382C199.726 72.5 199.612 72.495 199.605 72.5418C199.598 72.6618 199.602 72.7821 199.616 72.9015C199.521 72.8853 199.466 72.9106 199.437 72.969C199.2 72.9032 199.172 73.0669 198.826 72.8713C198.634 72.686 198.722 72.7326 198.612 72.6157C198.51 72.501 198.542 72.6133 198.484 72.5093C198.264 72.296 198.409 72.3712 198.462 72.4153C198.456 72.3695 198.518 72.4061 198.569 72.4277C198.567 72.3124 198.753 72.3573 198.879 72.3494C198.943 72.3389 198.825 72.2045 198.955 72.2687C198.872 72.1019 198.804 71.9283 198.751 71.7499C198.928 71.7791 198.748 71.5832 199.006 71.7066C198.786 71.402 198.858 71.3459 198.949 71.2401C199.171 71.2252 199.167 71.0598 199.331 70.9921C199.46 71.0392 199.36 70.9076 199.6 71.0382C199.466 70.9073 199.651 70.9433 199.751 70.9555C199.603 70.844 199.7 70.8987 199.629 70.8344C199.767 70.8154 199.759 70.7269 199.609 70.5428C199.593 70.4375 199.712 70.4711 199.542 70.3184C199.548 70.2848 199.698 70.3498 199.575 70.2565C199.597 70.2527 199.458 70.1741 199.586 70.2356C199.668 70.2385 199.541 70.1649 199.761 70.2616C199.795 70.2513 199.705 70.1657 199.94 70.2776Z" fill="#949494"/>
<path fill-rule="evenodd" clip-rule="evenodd" d="M202.208 67.5007C202.171 67.7962 202.176 67.6135 202.161 67.6624C202.153 67.717 202.14 67.7712 202.125 67.8244C202.116 67.8143 202.104 67.8682 202.102 67.7404C202.088 67.9159 202.077 67.8323 202.067 67.9064C202.063 67.9407 202.064 68.0249 202.064 68.0713C202.064 68.1176 202.06 68.1099 202.061 68.1541C202.059 68.332 202.137 68.5575 202.063 68.3221C202.065 68.3358 202.109 68.4663 202.114 68.4787C202.045 68.2776 201.965 68.2314 202.022 68.3427C201.952 68.2572 202.078 68.4217 201.911 68.2171C201.954 68.2916 201.934 68.2727 201.824 68.1843C201.921 68.2891 202.011 68.3769 202.058 68.4207C202.175 68.5227 201.985 68.3672 202.052 68.4265C202.05 68.4248 201.944 68.3506 201.984 68.3794C202.173 68.5113 202.101 68.4583 202.122 68.472C202.196 68.5119 202.275 68.5422 202.357 68.5621C202.288 68.5224 202.267 68.5097 202.289 68.5072C202.137 68.4333 201.969 68.3969 201.8 68.4012C201.533 68.3781 201.628 68.38 201.468 68.3611C201.315 68.3406 201.414 68.3757 201.301 68.3507C200.993 68.3251 201.152 68.3083 201.221 68.3159C201.187 68.2954 201.257 68.2955 201.309 68.2954C201.234 68.2387 201.407 68.2268 201.499 68.2313C201.542 68.2307 201.38 68.1539 201.514 68.1947C201.364 68.1062 201.236 67.9869 201.139 67.8448C201.295 67.8832 201.101 67.7074 201.344 67.8469C201.101 67.5715 201.179 67.5172 201.263 67.4615C201.446 67.5274 201.465 67.3993 201.604 67.4405C201.678 67.5515 201.649 67.3959 201.763 67.6403C201.714 67.4647 201.818 67.6125 201.86 67.6934C201.842 67.6405 201.832 67.5851 201.831 67.5292C201.911 67.6192 201.917 67.5625 201.95 67.3378C202.006 67.264 202.029 67.3862 202.068 67.1638C202.098 67.1527 202.102 67.3128 202.129 67.1638C202.14 67.1821 202.154 67.0247 202.15 67.1649C202.174 67.2393 202.195 67.0962 202.183 67.333C202.197 67.36 202.242 67.247 202.208 67.5007Z" fill="#949494"/>
<path fill-rule="evenodd" clip-rule="evenodd" d="M204.746 76.3468C204.727 76.3613 204.792 76.3135 204.807 76.303C204.828 76.2886 204.835 76.2885 204.835 76.2885C204.834 76.2934 204.808 76.3107 204.831 76.3007C204.955 76.2458 204.921 76.2778 204.995 76.27C204.991 76.2869 205.047 76.3195 204.917 76.3219C205.094 76.3571 205.001 76.3887 205.058 76.4474C205.102 76.4882 205.143 76.5324 205.179 76.5798C205.206 76.6272 205.184 76.6503 205.202 76.7014C205.284 76.9075 205.251 77.2718 204.963 77.1696C204.941 77.2021 205.006 77.3258 204.978 77.3596C204.634 77.3247 204.493 77.3206 204.341 77.5574C204.237 77.492 204.323 77.6817 204.154 77.4774C204.119 77.5969 204.024 77.6245 203.877 77.55C203.92 77.6577 203.949 77.77 203.965 77.8846C203.969 78.0648 203.773 77.8963 203.724 78.0324C203.725 78.0284 203.648 77.9237 203.671 77.9683C203.773 78.1737 203.659 78.1391 203.634 78.1845C203.582 78.3012 203.543 78.423 203.516 78.5479C203.484 78.5288 203.446 78.5212 203.409 78.5265C203.372 78.5318 203.337 78.5495 203.312 78.5767C203.086 78.4628 203.009 78.6239 202.697 78.3702C202.547 78.1504 202.629 78.2113 202.547 78.0739C202.473 77.9397 202.469 78.0625 202.441 77.9453C202.269 77.6928 202.407 77.789 202.45 77.8425C202.461 77.7929 202.518 77.8394 202.565 77.8686C202.608 77.745 202.8 77.8183 202.94 77.833C203.014 77.8336 202.94 77.6705 203.057 77.7618C203.034 77.5657 203.038 77.3677 203.068 77.1726C203.249 77.2393 203.151 76.9921 203.371 77.1807C203.289 76.8073 203.406 76.7597 203.569 76.6709C203.818 76.7139 203.914 76.539 204.131 76.521C204.236 76.6126 204.218 76.4425 204.38 76.6595C204.334 76.4742 204.479 76.5914 204.567 76.6383C204.472 76.4807 204.54 76.5667 204.497 76.4826C204.623 76.5215 204.659 76.4109 204.503 76.247C204.5 76.2392 204.496 76.2312 204.493 76.223L204.494 76.2211L204.532 76.241C204.582 76.2658 204.635 76.2857 204.689 76.3002C204.72 76.3094 204.751 76.3143 204.784 76.3149C204.787 76.3149 204.781 76.3149 204.8 76.3138C204.813 76.3122 204.804 76.3131 204.798 76.3159C204.799 76.314 204.738 76.3471 204.746 76.3468Z" fill="#949494"/>
<path fill-rule="evenodd" clip-rule="evenodd" d="M185.549 70.1773C185.247 70.1786 185.432 70.1452 185.381 70.1291C185.242 70.1208 185.29 70.0975 185.214 70.0854C185.223 70.0645 185.168 70.0401 185.297 70.0263C185.118 70.0061 185.202 69.9744 185.126 69.9475C185.09 69.9355 185.004 69.9289 184.956 69.9172C184.909 69.9056 184.915 69.8909 184.869 69.8784C184.686 69.8252 184.438 69.7755 184.673 69.6658C184.656 69.6512 184.517 69.6676 184.501 69.6545C184.687 69.4872 184.736 69.3734 184.574 69.2748C184.67 69.2104 184.467 69.2623 184.711 69.1568C184.611 69.1312 184.618 69.0728 184.728 68.9702C184.618 69.0007 184.507 69.0254 184.395 69.0439C184.231 69.0622 184.437 68.9203 184.326 68.9016C184.329 68.9021 184.443 68.8385 184.397 68.8586C184.185 68.9524 184.245 68.8752 184.21 68.8649C184.113 68.8501 184.014 68.8498 183.916 68.8641C183.968 68.7988 183.969 68.7576 183.933 68.7409C184.069 68.5609 183.945 68.5597 184.19 68.2594C184.274 68.1868 184.364 68.1211 184.459 68.0627C184.582 67.9707 184.472 67.9979 184.578 67.9457C184.809 67.7442 184.722 67.8816 184.671 67.9283C184.717 67.926 184.673 67.9824 184.645 68.0272C184.758 68.0342 184.681 68.2036 184.65 68.3128C184.641 68.3687 184.801 68.2869 184.703 68.3897C184.883 68.343 185.071 68.3275 185.257 68.3439C185.166 68.4925 185.419 68.4117 185.197 68.5899C185.571 68.5254 185.598 68.636 185.641 68.7788C185.535 68.9757 185.671 69.0774 185.612 69.2509C185.488 69.3104 185.654 69.334 185.391 69.4059C185.578 69.4062 185.418 69.506 185.334 69.5551C185.52 69.542 185.411 69.563 185.506 69.566C185.411 69.6651 185.472 69.7145 185.701 69.7849C185.777 69.8689 185.653 69.901 185.881 69.9505C185.894 69.9868 185.731 70.0026 185.884 70.0281C185.866 70.0429 186.027 70.0482 185.884 70.054C185.81 70.0919 185.957 70.102 185.716 70.1143C185.691 70.1388 185.809 70.1806 185.549 70.1773Z" fill="#949494"/>
<path fill-rule="evenodd" clip-rule="evenodd" d="M157.045 51.7331C156.839 51.9516 156.915 51.7678 156.854 51.7786C156.743 51.8632 156.739 51.7928 156.665 51.8258C156.638 51.7862 156.557 51.7839 156.63 51.6755C156.464 51.7631 156.474 51.6565 156.371 51.6628C156.323 51.6659 156.245 51.7092 156.187 51.7189C156.128 51.7286 156.108 51.7002 156.047 51.7067C155.808 51.7312 155.473 51.762 155.481 51.4549C155.437 51.439 155.335 51.5348 155.292 51.5195C155.141 51.1399 155.003 50.9542 154.625 50.8613C154.617 50.7267 154.471 50.8801 154.567 50.6301C154.488 50.6319 154.412 50.6046 154.353 50.5536C154.294 50.5027 154.257 50.4317 154.249 50.355C154.161 50.4411 154.061 50.5139 153.951 50.571C153.758 50.6442 153.77 50.3787 153.577 50.3847C153.583 50.3844 153.628 50.2628 153.599 50.3042C153.468 50.4956 153.404 50.3689 153.332 50.3637C153.167 50.3658 153.003 50.3876 152.843 50.4286C152.825 50.383 152.795 50.3429 152.755 50.3127C152.716 50.2824 152.67 50.263 152.62 50.2565C152.516 49.9918 152.278 50.0164 152.205 49.6002C152.267 49.3426 152.294 49.4491 152.347 49.2986C152.406 49.1577 152.271 49.2224 152.363 49.1313C152.436 48.8359 152.492 49.0138 152.483 49.0819C152.549 49.0643 152.563 49.1408 152.586 49.2001C152.767 49.1704 152.901 49.3864 153.031 49.5277C153.107 49.5983 153.209 49.4478 153.23 49.6034C153.439 49.4816 153.668 49.3973 153.907 49.3546C154.016 49.568 154.204 49.3722 154.203 49.6781C154.559 49.4525 154.739 49.5701 154.998 49.732C155.178 50.0305 155.473 50.1012 155.676 50.3639C155.65 50.5076 155.842 50.4545 155.708 50.6909C155.883 50.5951 155.89 50.8187 155.896 50.937C156.042 50.8167 155.977 50.9071 156.066 50.8592C156.138 51.0542 156.277 51.0978 156.566 51.0584C156.751 51.1291 156.704 51.2571 156.948 51.178C157.009 51.2201 156.914 51.351 157.063 51.2847C157.071 51.3179 157.194 51.216 157.1 51.3213C157.102 51.4257 157.22 51.338 157.068 51.5231C157.086 51.5766 157.229 51.5522 157.045 51.7331Z" fill="#949494"/>
<path fill-rule="evenodd" clip-rule="evenodd" d="M180.48 128.811C180.774 128.889 180.553 128.946 180.581 129.014C180.701 129.086 180.625 129.149 180.679 129.22C180.642 129.287 180.658 129.399 180.524 129.386C180.652 129.538 180.527 129.608 180.55 129.742C180.559 129.805 180.619 129.882 180.637 129.957C180.656 130.034 180.621 130.083 180.631 130.163C180.677 130.482 180.677 130.991 180.29 131.162C180.262 131.236 180.363 131.337 180.333 131.412C179.874 131.75 179.501 132.187 179.243 132.691C179.069 132.732 179.185 132.92 178.923 132.825C178.881 132.941 178.811 133.045 178.718 133.129C178.625 133.213 178.513 133.273 178.392 133.304C178.441 133.44 178.461 133.585 178.448 133.729C178.393 134.019 178.064 133.983 177.912 134.258C177.916 134.251 177.809 134.173 177.834 134.217C177.947 134.425 177.729 134.499 177.655 134.6C177.55 134.744 177.369 135.026 177.202 135.295C177.027 135.33 176.866 135.415 176.739 135.539C176.328 135.568 176.036 135.873 175.545 135.727C175.386 135.514 175.515 135.544 175.44 135.402C175.38 135.26 175.284 135.44 175.307 135.291C175.127 135.044 175.344 135.09 175.397 135.136C175.454 135.058 175.539 135.086 175.621 135.094C175.79 134.887 176.138 134.848 176.417 134.744C176.569 134.679 176.508 134.503 176.696 134.535C176.767 134.227 176.866 133.926 176.991 133.634C177.313 133.554 177.212 133.279 177.559 133.328C177.529 132.848 177.745 132.651 178.045 132.315C178.469 132.073 178.651 131.674 178.994 131.339C179.16 131.332 179.131 131.095 179.392 131.193C179.302 130.99 179.563 130.898 179.709 130.833C179.58 130.691 179.681 130.737 179.628 130.638C179.739 130.549 179.819 130.428 179.857 130.292C179.895 130.156 179.889 130.012 179.84 129.88C179.904 129.609 180.041 129.578 179.91 129.328C179.942 129.228 180.111 129.258 180 129.12C180.033 129.087 179.891 129.008 180.027 129.05C180.136 128.975 180.01 128.896 180.249 128.945C180.301 128.882 180.233 128.73 180.48 128.811Z" fill="#949494"/>
<path fill-rule="evenodd" clip-rule="evenodd" d="M183.899 132.259C184.2 132.294 184 132.344 184.043 132.387C184.176 132.43 184.117 132.476 184.185 132.522C184.165 132.569 184.205 132.646 184.075 132.64C184.231 132.741 184.127 132.792 184.178 132.886C184.201 132.93 184.275 132.984 184.308 133.038C184.343 133.093 184.32 133.128 184.346 133.187C184.459 133.415 184.556 133.808 184.225 133.916C184.213 133.97 184.326 134.054 184.312 134.11C183.963 134.32 183.691 134.633 183.536 135.005C183.389 135.012 183.518 135.183 183.275 135.065C183.255 135.152 183.205 135.229 183.134 135.284C183.063 135.339 182.974 135.368 182.884 135.366C182.941 135.481 182.975 135.606 182.982 135.733C182.965 135.97 182.685 135.876 182.584 136.081C182.587 136.075 182.491 135.985 182.516 136.029C182.626 136.232 182.451 136.253 182.397 136.324C182.32 136.428 182.187 136.639 182.058 136.843C181.926 136.831 181.794 136.87 181.691 136.952C181.37 136.876 181.134 137.08 180.779 136.808C180.673 136.566 180.765 136.631 180.715 136.479C180.676 136.33 180.604 136.469 180.624 136.338C180.504 136.058 180.653 136.164 180.69 136.222C180.731 136.167 180.791 136.218 180.849 136.248C180.969 136.109 181.219 136.172 181.428 136.153C181.541 136.134 181.485 135.962 181.63 136.039C181.664 135.802 181.715 135.566 181.782 135.335C182.026 135.345 181.911 135.092 182.196 135.214C182.153 135.085 182.154 134.946 182.198 134.818C182.242 134.69 182.327 134.579 182.44 134.502C182.755 134.395 182.84 134.121 183.077 133.922C183.223 133.938 183.149 133.762 183.406 133.863C183.282 133.703 183.5 133.666 183.622 133.63C183.473 133.516 183.576 133.557 183.506 133.483C183.677 133.367 183.69 133.209 183.536 132.969C183.535 132.79 183.657 132.77 183.475 132.606C183.481 132.542 183.65 132.56 183.511 132.473C183.534 132.451 183.38 132.403 183.521 132.428C183.607 132.377 183.467 132.331 183.708 132.355C183.743 132.312 183.641 132.219 183.899 132.259Z" fill="#949494"/>
<path d="M24.9453 147.492V138.938C24.9453 133.977 25.9609 129.68 27.9922 126.047C30.0625 122.414 32.6992 119.562 35.9023 117.492C39.1055 115.422 42.6602 113.645 46.5664 112.16C50.4727 110.676 54.3789 109.484 58.2852 108.586C62.2305 107.648 65.8047 106.711 69.0078 105.773C76.2734 103.586 79.9062 100.48 79.9062 96.457C79.9062 92.082 78.7734 89.0938 76.5078 87.4922C74.2422 85.8906 70.4141 85.0898 65.0234 85.0898H60.8633C53.3242 85.0898 48.3633 87.4922 45.9805 92.2969C44.2227 95.9688 41.5859 97.8047 38.0703 97.8047H31.0977C29.1836 97.8047 27.6992 97.1211 26.6445 95.7539C25.5898 94.3867 25.0625 92.9023 25.0625 91.3008C25.0625 86.8477 26.7617 82.8438 30.1602 79.2891C33.5977 75.6953 37.8555 73 42.9336 71.2031C48.0117 69.4062 53.3047 68.5078 58.8125 68.5078H66.7227C83.8711 68.5078 94.7305 73.2734 99.3008 82.8047C101.098 86.5547 101.996 90.9102 101.996 95.8711C101.996 100.832 100.98 105.051 98.9492 108.527C96.918 112.004 94.3008 114.777 91.0977 116.848C87.8945 118.879 84.3203 120.637 80.375 122.121C76.4688 123.605 72.5625 124.836 68.6562 125.812C64.75 126.75 61.1953 127.648 57.9922 128.508C50.6875 130.539 47.0352 133.176 47.0352 136.418H95.668C97.2695 136.418 98.5977 136.965 99.6523 138.059C100.746 139.152 101.293 140.461 101.293 141.984V147.492C101.293 149.016 100.727 150.324 99.5938 151.418C98.5 152.473 97.1914 153 95.668 153H30.6289C29.1055 153 27.7773 152.473 26.6445 151.418C25.5117 150.324 24.9453 149.016 24.9453 147.492Z" fill="#9A9A9A"/>
<path d="M27.9922 126.047L27.1233 125.552L27.1194 125.559L27.9922 126.047ZM58.2852 108.586L58.5093 109.561L58.5163 109.559L58.2852 108.586ZM69.0078 105.773L69.2887 106.733L69.2961 106.731L69.0078 105.773ZM76.5078 87.4922L75.9306 88.3088L76.5078 87.4922ZM45.9805 92.2969L45.0845 91.8525L45.0785 91.8651L45.9805 92.2969ZM30.1602 79.2891L29.4375 78.5978L29.4373 78.598L30.1602 79.2891ZM99.3008 82.8047L100.203 82.3726L100.202 82.3723L99.3008 82.8047ZM91.0977 116.848L91.6332 117.692L91.6405 117.688L91.0977 116.848ZM80.375 122.121L80.0229 121.185L80.0198 121.186L80.375 122.121ZM68.6562 125.812L68.8896 126.785L68.8988 126.783L68.6562 125.812ZM57.9922 128.508L57.733 127.542L57.7243 127.544L57.9922 128.508ZM47.0352 136.418H46.0352V137.418H47.0352V136.418ZM99.6523 138.059L98.9325 138.753L98.9388 138.759L98.9452 138.766L99.6523 138.059ZM99.5938 151.418L100.288 152.138L100.288 152.137L99.5938 151.418ZM26.6445 151.418L25.9499 152.137L25.9565 152.144L25.9631 152.15L26.6445 151.418ZM25.9453 147.492V138.938H23.9453V147.492H25.9453ZM25.9453 138.938C25.9453 134.115 26.9318 129.992 28.865 126.535L27.1194 125.559C24.9901 129.367 23.9453 133.839 23.9453 138.938H25.9453ZM28.861 126.542C30.8597 123.035 33.3894 120.307 36.4452 118.332L35.3595 116.652C32.009 118.818 29.2653 121.793 27.1234 125.552L28.861 126.542ZM36.4452 118.332C39.584 116.303 43.0749 114.557 46.9216 113.095L46.2112 111.225C42.2454 112.732 38.627 114.54 35.3595 116.652L36.4452 118.332ZM46.9216 113.095C50.7869 111.626 54.6494 110.448 58.5093 109.56L58.061 107.611C54.1084 108.52 50.1584 109.725 46.2112 111.225L46.9216 113.095ZM58.5163 109.559C62.4749 108.618 66.0661 107.676 69.2887 106.733L68.7269 104.814C65.5433 105.745 61.986 106.679 58.054 107.613L58.5163 109.559ZM69.2961 106.731C72.9925 105.618 75.8657 104.244 77.8314 102.564C79.8241 100.86 80.9062 98.8167 80.9062 96.457H78.9062C78.9062 98.1208 78.172 99.6415 76.5319 101.044C74.8648 102.469 72.2888 103.741 68.7195 104.816L69.2961 106.731ZM80.9062 96.457C80.9062 91.9495 79.7412 88.5532 77.085 86.6756L75.9306 88.3088C77.8057 89.6343 78.9062 92.2146 78.9062 96.457H80.9062ZM77.085 86.6756C74.5534 84.886 70.4565 84.0898 65.0234 84.0898V86.0898C70.3717 86.0898 73.931 86.8953 75.9306 88.3088L77.085 86.6756ZM65.0234 84.0898H60.8633V86.0898H65.0234V84.0898ZM60.8633 84.0898C53.1212 84.0898 47.7026 86.5736 45.0846 91.8526L46.8763 92.7412C49.0239 88.4108 53.5272 86.0898 60.8633 86.0898V84.0898ZM45.0785 91.8651C44.2547 93.5859 43.2565 94.811 42.1131 95.6071C40.9783 96.3973 39.644 96.8047 38.0703 96.8047V98.8047C40.0123 98.8047 41.7541 98.2941 43.256 97.2484C44.7494 96.2085 45.9484 94.6797 46.8824 92.7287L45.0785 91.8651ZM38.0703 96.8047H31.0977V98.8047H38.0703V96.8047ZM31.0977 96.8047C29.455 96.8047 28.2793 96.2359 27.4363 95.1431L25.8527 96.3647C27.1191 98.0063 28.9121 98.8047 31.0977 98.8047V96.8047ZM27.4363 95.1431C26.5054 93.9363 26.0625 92.6636 26.0625 91.3008H24.0625C24.0625 93.1411 24.6743 94.8371 25.8527 96.3647L27.4363 95.1431ZM26.0625 91.3008C26.0625 87.133 27.6422 83.3699 30.883 79.9801L29.4373 78.598C25.8812 82.3176 24.0625 86.5624 24.0625 91.3008H26.0625ZM30.8828 79.9803C34.2033 76.5089 38.3241 73.8949 43.2672 72.1458L42.6 70.2604C37.3868 72.1051 32.9921 74.8817 29.4375 78.5978L30.8828 79.9803ZM43.2672 72.1458C48.2357 70.3877 53.4157 69.5078 58.8125 69.5078V67.5078C53.1936 67.5078 47.7877 68.4248 42.6 70.2604L43.2672 72.1458ZM58.8125 69.5078H66.7227V67.5078H58.8125V69.5078ZM66.7227 69.5078C83.7466 69.5078 94.0839 74.2379 98.3991 83.2371L100.202 82.3723C95.377 72.309 83.9956 67.5078 66.7227 67.5078V69.5078ZM98.399 83.2368C100.12 86.8284 100.996 91.0312 100.996 95.8711H102.996C102.996 90.7891 102.075 86.281 100.203 82.3726L98.399 83.2368ZM100.996 95.8711C100.996 100.696 100.009 104.731 98.0858 108.023L99.8126 109.032C101.952 105.37 102.996 100.968 102.996 95.8711H100.996ZM98.0858 108.023C96.1291 111.372 93.6189 114.027 90.5548 116.008L91.6405 117.688C94.9826 115.527 97.7068 112.636 99.8126 109.032L98.0858 108.023ZM90.5621 116.003C87.4228 117.994 83.9111 119.722 80.0229 121.185L80.7271 123.057C84.7296 121.551 88.3662 119.764 91.6332 117.692L90.5621 116.003ZM80.0198 121.186C76.149 122.657 72.2803 123.876 68.4137 124.842L68.8988 126.783C72.8447 125.796 76.7885 124.554 80.7302 123.056L80.0198 121.186ZM68.4229 124.84C64.5097 125.779 60.9463 126.68 57.7331 127.542L58.2513 129.474C61.4443 128.617 64.9903 127.721 68.8896 126.785L68.4229 124.84ZM57.7243 127.544C54.0249 128.573 51.1548 129.779 49.1891 131.198C47.2116 132.626 46.0352 134.361 46.0352 136.418H48.0352C48.0352 135.232 48.6849 134.029 50.3597 132.82C52.0464 131.602 54.6548 130.474 58.2601 129.471L57.7243 127.544ZM47.0352 137.418H95.668V135.418H47.0352V137.418ZM95.668 137.418C97.0144 137.418 98.0774 137.866 98.9325 138.753L100.372 137.364C99.1179 136.064 97.5246 135.418 95.668 135.418V137.418ZM98.9452 138.766C99.8547 139.675 100.293 140.731 100.293 141.984H102.293C102.293 140.191 101.638 138.63 100.359 137.351L98.9452 138.766ZM100.293 141.984V147.492H102.293V141.984H100.293ZM100.293 147.492C100.293 148.734 99.8442 149.786 98.8992 150.699L100.288 152.137C101.609 150.862 102.293 149.297 102.293 147.492H100.293ZM98.8996 150.698C97.9928 151.573 96.9333 152 95.668 152V154C97.4496 154 99.0072 153.373 100.288 152.138L98.8996 150.698ZM95.668 152H30.6289V154H95.668V152ZM30.6289 152C29.3628 152 28.277 151.572 27.3259 150.686L25.9631 152.15C27.2777 153.374 28.8482 154 30.6289 154V152ZM27.3391 150.699C26.3941 149.786 25.9453 148.734 25.9453 147.492H23.9453C23.9453 149.297 24.6293 150.862 25.9499 152.137L27.3391 150.699Z" fill="black"/>
<rect x="173.5" y="26.5" width="76" height="53" rx="9.5" fill="white"/>
<rect x="173.5" y="26.5" width="76" height="53" rx="9.5" stroke="black"/>
<rect x="173.5" y="26.5" width="76" height="53" rx="9.5" stroke="black" stroke-opacity="0.2"/>
<rect x="203.5" y="69.5" width="82" height="21" rx="9.5" fill="black"/>
<rect x="203.5" y="69.5" width="82" height="21" rx="9.5" stroke="black"/>
<rect x="203.5" y="69.5" width="82" height="21" rx="9.5" stroke="black" stroke-opacity="0.2"/>
<path d="M227.029 44.8364C227.186 44.3917 227.814 44.3917 227.971 44.8364L229.599 49.4458C229.811 50.0454 230.378 50.4463 231.014 50.4463H236.093C236.587 50.4463 236.782 51.0873 236.37 51.362L232.409 54.0099C231.839 54.391 231.6 55.11 231.828 55.7565L233.374 60.1347C233.535 60.5882 233.025 60.9842 232.625 60.7169L228.334 57.8484C227.829 57.5111 227.171 57.5111 226.666 57.8484L222.375 60.7169C221.975 60.9842 221.465 60.5882 221.626 60.1347L223.172 55.7565C223.4 55.11 223.161 54.391 222.591 54.0099L218.63 51.362C218.218 51.0873 218.413 50.4463 218.907 50.4463H223.986C224.622 50.4463 225.189 50.0454 225.401 49.4458L227.029 44.8364Z" fill="#FFEB37" stroke="black"/>
<path d="M193.696 54.64V50.856C193.696 50.4987 193.72 50.104 193.768 49.672L190.176 54.64H193.696ZM196.872 54.64V55.784C196.872 55.8907 196.837 55.984 196.768 56.064C196.699 56.1387 196.6 56.176 196.472 56.176H195.416V59H193.696V56.176H188.816C188.683 56.176 188.565 56.136 188.464 56.056C188.363 55.9707 188.299 55.8667 188.272 55.744L188.064 54.744L193.544 47.424H195.416V54.64H196.872ZM197.969 57.912C197.969 57.7467 197.999 57.5893 198.057 57.44C198.121 57.2907 198.207 57.1627 198.313 57.056C198.42 56.9493 198.548 56.864 198.697 56.8C198.847 56.736 199.007 56.704 199.177 56.704C199.348 56.704 199.505 56.736 199.649 56.8C199.799 56.864 199.927 56.9493 200.033 57.056C200.145 57.1627 200.233 57.2907 200.297 57.44C200.361 57.5893 200.393 57.7467 200.393 57.912C200.393 58.0827 200.361 58.2427 200.297 58.392C200.233 58.536 200.145 58.6613 200.033 58.768C199.927 58.8747 199.799 58.9573 199.649 59.016C199.505 59.08 199.348 59.112 199.177 59.112C199.007 59.112 198.847 59.08 198.697 59.016C198.548 58.9573 198.42 58.8747 198.313 58.768C198.207 58.6613 198.121 58.536 198.057 58.392C197.999 58.2427 197.969 58.0827 197.969 57.912ZM208.926 57.16C209.139 57.16 209.307 57.2213 209.43 57.344C209.558 57.4613 209.622 57.6187 209.622 57.816V59H201.686V58.344C201.686 58.2107 201.713 58.072 201.766 57.928C201.825 57.7787 201.915 57.6453 202.038 57.528L205.55 54.008C205.843 53.7093 206.105 53.424 206.334 53.152C206.569 52.88 206.763 52.6107 206.918 52.344C207.073 52.0773 207.19 51.808 207.27 51.536C207.355 51.2587 207.398 50.968 207.398 50.664C207.398 50.3867 207.358 50.144 207.278 49.936C207.198 49.7227 207.083 49.544 206.934 49.4C206.79 49.256 206.614 49.1493 206.406 49.08C206.203 49.0053 205.974 48.968 205.718 48.968C205.483 48.968 205.265 49.0027 205.062 49.072C204.865 49.136 204.689 49.2293 204.534 49.352C204.379 49.4693 204.249 49.608 204.142 49.768C204.035 49.928 203.955 50.104 203.902 50.296C203.811 50.5413 203.694 50.704 203.55 50.784C203.406 50.864 203.198 50.8827 202.926 50.84L201.886 50.656C201.966 50.1013 202.121 49.616 202.35 49.2C202.579 48.7787 202.865 48.4293 203.206 48.152C203.553 47.8693 203.947 47.6587 204.39 47.52C204.838 47.376 205.318 47.304 205.83 47.304C206.363 47.304 206.851 47.384 207.294 47.544C207.737 47.6987 208.115 47.92 208.43 48.208C208.745 48.496 208.99 48.8427 209.166 49.248C209.342 49.6533 209.43 50.104 209.43 50.6C209.43 51.0267 209.366 51.4213 209.238 51.784C209.115 52.1467 208.947 52.4933 208.734 52.824C208.526 53.1547 208.281 53.4747 207.998 53.784C207.715 54.0933 207.419 54.408 207.11 54.728L204.502 57.392C204.753 57.3173 205.001 57.2613 205.246 57.224C205.497 57.1813 205.734 57.16 205.958 57.16H208.926Z" fill="black"/>
<path d="M216.126 84.048V85H210.75V84.048H212.899V77.209C212.899 77.0037 212.906 76.796 212.92 76.586L211.135 78.119C211.074 78.1703 211.014 78.203 210.953 78.217C210.892 78.2263 210.836 78.2263 210.785 78.217C210.734 78.2077 210.685 78.189 210.638 78.161C210.596 78.133 210.563 78.1027 210.54 78.07L210.148 77.531L213.137 74.948H214.152V84.048H216.126ZM224.247 84.048V85H218.871V84.048H221.02V77.209C221.02 77.0037 221.027 76.796 221.041 76.586L219.256 78.119C219.195 78.1703 219.135 78.203 219.074 78.217C219.013 78.2263 218.957 78.2263 218.906 78.217C218.855 78.2077 218.806 78.189 218.759 78.161C218.717 78.133 218.684 78.1027 218.661 78.07L218.269 77.531L221.258 74.948H222.273V84.048H224.247ZM232.884 79.827C233.276 79.827 233.622 79.7803 233.92 79.687C234.224 79.589 234.476 79.4537 234.676 79.281C234.882 79.1037 235.036 78.8937 235.138 78.651C235.241 78.4083 235.292 78.14 235.292 77.846C235.292 77.2487 235.096 76.7983 234.704 76.495C234.312 76.1917 233.724 76.04 232.94 76.04H231.456V79.827H232.884ZM237.518 85H236.314C236.067 85 235.885 84.9043 235.768 84.713L233.164 81.129C233.085 81.017 232.999 80.9377 232.905 80.891C232.817 80.8397 232.677 80.814 232.485 80.814H231.456V85H230.105V74.969H232.94C233.575 74.969 234.123 75.0343 234.585 75.165C235.047 75.291 235.428 75.4753 235.726 75.718C236.03 75.9607 236.254 76.2547 236.398 76.6C236.543 76.9407 236.615 77.3233 236.615 77.748C236.615 78.1027 236.559 78.434 236.447 78.742C236.335 79.05 236.172 79.3277 235.957 79.575C235.747 79.8177 235.488 80.0253 235.18 80.198C234.877 80.3707 234.532 80.5013 234.144 80.59C234.317 80.688 234.466 80.8303 234.592 81.017L237.518 85ZM242.883 80.681C242.883 80.3917 242.841 80.128 242.757 79.89C242.678 79.6473 242.559 79.4397 242.4 79.267C242.246 79.0897 242.057 78.9543 241.833 78.861C241.609 78.763 241.355 78.714 241.07 78.714C240.473 78.714 239.999 78.889 239.649 79.239C239.304 79.5843 239.089 80.065 239.005 80.681H242.883ZM243.891 84.006C243.737 84.1927 243.553 84.356 243.338 84.496C243.124 84.6313 242.893 84.7433 242.645 84.832C242.403 84.9207 242.151 84.986 241.889 85.028C241.628 85.0747 241.369 85.098 241.112 85.098C240.622 85.098 240.17 85.0163 239.754 84.853C239.344 84.685 238.987 84.4423 238.683 84.125C238.385 83.803 238.151 83.4063 237.983 82.935C237.815 82.4637 237.731 81.9223 237.731 81.311C237.731 80.8163 237.806 80.3543 237.955 79.925C238.109 79.4957 238.329 79.1247 238.613 78.812C238.898 78.4947 239.246 78.2473 239.656 78.07C240.067 77.888 240.529 77.797 241.042 77.797C241.467 77.797 241.859 77.8693 242.218 78.014C242.582 78.154 242.895 78.3593 243.156 78.63C243.422 78.896 243.63 79.2273 243.779 79.624C243.929 80.016 244.003 80.464 244.003 80.968C244.003 81.164 243.982 81.2947 243.94 81.36C243.898 81.4253 243.819 81.458 243.702 81.458H238.963C238.977 81.906 239.038 82.2957 239.145 82.627C239.257 82.9583 239.411 83.236 239.607 83.46C239.803 83.6793 240.037 83.845 240.307 83.957C240.578 84.0643 240.881 84.118 241.217 84.118C241.53 84.118 241.798 84.083 242.022 84.013C242.251 83.9383 242.447 83.859 242.61 83.775C242.774 83.691 242.909 83.614 243.016 83.544C243.128 83.4693 243.224 83.432 243.303 83.432C243.406 83.432 243.485 83.4717 243.541 83.551L243.891 84.006ZM251.459 77.909L248.568 85H247.448L244.557 77.909H245.572C245.675 77.909 245.759 77.9347 245.824 77.986C245.89 78.0373 245.934 78.098 245.957 78.168L247.756 82.732C247.812 82.9047 247.861 83.0727 247.903 83.236C247.945 83.3993 247.985 83.5627 248.022 83.726C248.06 83.5627 248.099 83.3993 248.141 83.236C248.183 83.0727 248.235 82.9047 248.295 82.732L250.115 78.168C250.143 78.0933 250.19 78.0327 250.255 77.986C250.321 77.9347 250.398 77.909 250.486 77.909H251.459ZM253.918 77.909V85H252.672V77.909H253.918ZM254.184 75.683C254.184 75.8043 254.159 75.9187 254.107 76.026C254.061 76.1287 253.995 76.222 253.911 76.306C253.832 76.3853 253.736 76.4483 253.624 76.495C253.517 76.5417 253.403 76.565 253.281 76.565C253.16 76.565 253.046 76.5417 252.938 76.495C252.836 76.4483 252.745 76.3853 252.665 76.306C252.586 76.222 252.523 76.1287 252.476 76.026C252.43 75.9187 252.406 75.8043 252.406 75.683C252.406 75.5617 252.43 75.4473 252.476 75.34C252.523 75.228 252.586 75.1323 252.665 75.053C252.745 74.969 252.836 74.9037 252.938 74.857C253.046 74.8103 253.16 74.787 253.281 74.787C253.403 74.787 253.517 74.8103 253.624 74.857C253.736 74.9037 253.832 74.969 253.911 75.053C253.995 75.1323 254.061 75.228 254.107 75.34C254.159 75.4473 254.184 75.5617 254.184 75.683ZM260.712 80.681C260.712 80.3917 260.67 80.128 260.586 79.89C260.506 79.6473 260.387 79.4397 260.229 79.267C260.075 79.0897 259.886 78.9543 259.662 78.861C259.438 78.763 259.183 78.714 258.899 78.714C258.301 78.714 257.828 78.889 257.478 79.239C257.132 79.5843 256.918 80.065 256.834 80.681H260.712ZM261.72 84.006C261.566 84.1927 261.381 84.356 261.167 84.496C260.952 84.6313 260.721 84.7433 260.474 84.832C260.231 84.9207 259.979 84.986 259.718 85.028C259.456 85.0747 259.197 85.098 258.941 85.098C258.451 85.098 257.998 85.0163 257.583 84.853C257.172 84.685 256.815 84.4423 256.512 84.125C256.213 83.803 255.98 83.4063 255.812 82.935C255.644 82.4637 255.56 81.9223 255.56 81.311C255.56 80.8163 255.634 80.3543 255.784 79.925C255.938 79.4957 256.157 79.1247 256.442 78.812C256.726 78.4947 257.074 78.2473 257.485 78.07C257.895 77.888 258.357 77.797 258.871 77.797C259.295 77.797 259.687 77.8693 260.047 78.014C260.411 78.154 260.723 78.3593 260.985 78.63C261.251 78.896 261.458 79.2273 261.608 79.624C261.757 80.016 261.832 80.464 261.832 80.968C261.832 81.164 261.811 81.2947 261.769 81.36C261.727 81.4253 261.647 81.458 261.531 81.458H256.792C256.806 81.906 256.866 82.2957 256.974 82.627C257.086 82.9583 257.24 83.236 257.436 83.46C257.632 83.6793 257.865 83.845 258.136 83.957C258.406 84.0643 258.71 84.118 259.046 84.118C259.358 84.118 259.627 84.083 259.851 84.013C260.079 83.9383 260.275 83.859 260.439 83.775C260.602 83.691 260.737 83.614 260.845 83.544C260.957 83.4693 261.052 83.432 261.132 83.432C261.234 83.432 261.314 83.4717 261.37 83.551L261.72 84.006ZM273.073 77.909L270.777 85H269.79C269.668 85 269.584 84.9207 269.538 84.762L267.97 79.953C267.932 79.8457 267.902 79.7383 267.879 79.631C267.855 79.519 267.832 79.4093 267.809 79.302C267.785 79.4093 267.762 79.519 267.739 79.631C267.715 79.7383 267.685 79.848 267.648 79.96L266.052 84.762C266.01 84.9207 265.916 85 265.772 85H264.834L262.538 77.909H263.518C263.616 77.909 263.697 77.9347 263.763 77.986C263.833 78.0373 263.879 78.098 263.903 78.168L265.261 82.732C265.34 83.068 265.403 83.3853 265.45 83.684C265.492 83.53 265.534 83.3737 265.576 83.215C265.622 83.0563 265.671 82.8953 265.723 82.732L267.221 78.14C267.244 78.07 267.284 78.0117 267.34 77.965C267.4 77.9183 267.473 77.895 267.557 77.895H268.103C268.196 77.895 268.273 77.9183 268.334 77.965C268.394 78.0117 268.436 78.07 268.46 78.14L269.923 82.732C269.974 82.8953 270.021 83.0563 270.063 83.215C270.105 83.3737 270.144 83.53 270.182 83.684C270.205 83.53 270.233 83.376 270.266 83.222C270.303 83.0633 270.343 82.9 270.385 82.732L271.771 78.168C271.794 78.0933 271.838 78.0327 271.904 77.986C271.969 77.9347 272.046 77.909 272.135 77.909H273.073ZM278.361 79.078C278.305 79.1807 278.219 79.232 278.102 79.232C278.032 79.232 277.953 79.2063 277.864 79.155C277.775 79.1037 277.666 79.0477 277.535 78.987C277.409 78.9217 277.257 78.8633 277.08 78.812C276.903 78.756 276.693 78.728 276.45 78.728C276.24 78.728 276.051 78.756 275.883 78.812C275.715 78.8633 275.57 78.9357 275.449 79.029C275.332 79.1223 275.241 79.232 275.176 79.358C275.115 79.4793 275.085 79.6123 275.085 79.757C275.085 79.939 275.136 80.0907 275.239 80.212C275.346 80.3333 275.486 80.4383 275.659 80.527C275.832 80.6157 276.028 80.695 276.247 80.765C276.466 80.8303 276.69 80.9027 276.919 80.982C277.152 81.0567 277.379 81.1407 277.598 81.234C277.817 81.3273 278.013 81.444 278.186 81.584C278.359 81.724 278.496 81.8967 278.599 82.102C278.706 82.3027 278.76 82.5453 278.76 82.83C278.76 83.1567 278.702 83.46 278.585 83.74C278.468 84.0153 278.296 84.2557 278.067 84.461C277.838 84.6617 277.558 84.8203 277.227 84.937C276.896 85.0537 276.513 85.112 276.079 85.112C275.584 85.112 275.136 85.0327 274.735 84.874C274.334 84.7107 273.993 84.503 273.713 84.251L274.007 83.775C274.044 83.7143 274.089 83.6677 274.14 83.635C274.191 83.6023 274.257 83.586 274.336 83.586C274.42 83.586 274.509 83.6187 274.602 83.684C274.695 83.7493 274.807 83.8217 274.938 83.901C275.073 83.9803 275.237 84.0527 275.428 84.118C275.619 84.1833 275.857 84.216 276.142 84.216C276.385 84.216 276.597 84.1857 276.779 84.125C276.961 84.0597 277.113 83.9733 277.234 83.866C277.355 83.7587 277.444 83.635 277.5 83.495C277.561 83.355 277.591 83.2057 277.591 83.047C277.591 82.851 277.537 82.69 277.43 82.564C277.327 82.4333 277.19 82.3237 277.017 82.235C276.844 82.1417 276.646 82.0623 276.422 81.997C276.203 81.927 275.976 81.8547 275.743 81.78C275.514 81.7053 275.288 81.6213 275.064 81.528C274.845 81.43 274.649 81.3087 274.476 81.164C274.303 81.0193 274.163 80.842 274.056 80.632C273.953 80.4173 273.902 80.1583 273.902 79.855C273.902 79.5843 273.958 79.3253 274.07 79.078C274.182 78.826 274.345 78.6067 274.56 78.42C274.775 78.2287 275.038 78.077 275.351 77.965C275.664 77.853 276.021 77.797 276.422 77.797C276.889 77.797 277.306 77.8717 277.675 78.021C278.048 78.1657 278.37 78.3663 278.641 78.623L278.361 79.078Z" fill="white"/>
<rect x="126.5" y="125.5" width="76" height="53" rx="9.5" fill="white"/>
<rect x="126.5" y="125.5" width="76" height="53" rx="9.5" stroke="black"/>
<rect x="126.5" y="125.5" width="76" height="53" rx="9.5" stroke="black" stroke-opacity="0.2"/>
<rect x="170.5" y="168.5" width="90" height="21" rx="9.5" fill="black"/>
<rect x="170.5" y="168.5" width="90" height="21" rx="9.5" stroke="black"/>
<rect x="170.5" y="168.5" width="90" height="21" rx="9.5" stroke="black" stroke-opacity="0.2"/>
<path d="M183.126 183.048V184H177.75V183.048H179.899V176.209C179.899 176.004 179.906 175.796 179.92 175.586L178.135 177.119C178.074 177.17 178.014 177.203 177.953 177.217C177.892 177.226 177.836 177.226 177.785 177.217C177.734 177.208 177.685 177.189 177.638 177.161C177.596 177.133 177.563 177.103 177.54 177.07L177.148 176.531L180.137 173.948H181.152V183.048H183.126ZM191.821 178.988C191.821 179.865 191.725 180.626 191.534 181.27C191.347 181.909 191.091 182.439 190.764 182.859C190.437 183.279 190.05 183.592 189.602 183.797C189.159 184.002 188.683 184.105 188.174 184.105C187.661 184.105 187.182 184.002 186.739 183.797C186.3 183.592 185.918 183.279 185.591 182.859C185.264 182.439 185.008 181.909 184.821 181.27C184.634 180.626 184.541 179.865 184.541 178.988C184.541 178.111 184.634 177.35 184.821 176.706C185.008 176.062 185.264 175.53 185.591 175.11C185.918 174.685 186.3 174.37 186.739 174.165C187.182 173.96 187.661 173.857 188.174 173.857C188.683 173.857 189.159 173.96 189.602 174.165C190.05 174.37 190.437 174.685 190.764 175.11C191.091 175.53 191.347 176.062 191.534 176.706C191.725 177.35 191.821 178.111 191.821 178.988ZM190.526 178.988C190.526 178.223 190.461 177.581 190.33 177.063C190.204 176.54 190.031 176.12 189.812 175.803C189.597 175.486 189.348 175.259 189.063 175.124C188.778 174.984 188.482 174.914 188.174 174.914C187.866 174.914 187.57 174.984 187.285 175.124C187 175.259 186.751 175.486 186.536 175.803C186.321 176.12 186.149 176.54 186.018 177.063C185.892 177.581 185.829 178.223 185.829 178.988C185.829 179.753 185.892 180.395 186.018 180.913C186.149 181.431 186.321 181.849 186.536 182.166C186.751 182.483 187 182.712 187.285 182.852C187.57 182.987 187.866 183.055 188.174 183.055C188.482 183.055 188.778 182.987 189.063 182.852C189.348 182.712 189.597 182.483 189.812 182.166C190.031 181.849 190.204 181.431 190.33 180.913C190.461 180.395 190.526 179.753 190.526 178.988ZM199.151 182.817C199.287 182.817 199.394 182.857 199.473 182.936C199.553 183.015 199.592 183.118 199.592 183.244V184H192.9V183.573C192.9 183.484 192.919 183.393 192.956 183.3C192.994 183.207 193.052 183.12 193.131 183.041L196.344 179.814C196.61 179.543 196.853 179.284 197.072 179.037C197.292 178.785 197.478 178.533 197.632 178.281C197.786 178.029 197.905 177.775 197.989 177.518C198.073 177.257 198.115 176.979 198.115 176.685C198.115 176.391 198.069 176.134 197.975 175.915C197.882 175.691 197.754 175.507 197.59 175.362C197.432 175.217 197.243 175.11 197.023 175.04C196.804 174.965 196.568 174.928 196.316 174.928C196.06 174.928 195.824 174.965 195.609 175.04C195.395 175.115 195.203 175.22 195.035 175.355C194.872 175.486 194.734 175.642 194.622 175.824C194.51 176.006 194.431 176.207 194.384 176.426C194.328 176.589 194.251 176.699 194.153 176.755C194.06 176.806 193.927 176.82 193.754 176.797L193.103 176.685C193.169 176.228 193.295 175.824 193.481 175.474C193.673 175.119 193.911 174.823 194.195 174.585C194.485 174.347 194.814 174.167 195.182 174.046C195.551 173.92 195.95 173.857 196.379 173.857C196.804 173.857 197.201 173.92 197.569 174.046C197.938 174.172 198.258 174.356 198.528 174.599C198.799 174.837 199.011 175.129 199.165 175.474C199.319 175.819 199.396 176.211 199.396 176.65C199.396 177.023 199.34 177.371 199.228 177.693C199.116 178.01 198.965 178.314 198.773 178.603C198.582 178.892 198.36 179.175 198.108 179.45C197.861 179.725 197.597 180.003 197.317 180.283L194.671 182.985C194.858 182.934 195.047 182.894 195.238 182.866C195.43 182.833 195.614 182.817 195.791 182.817H199.151ZM208.005 178.827C208.397 178.827 208.743 178.78 209.041 178.687C209.345 178.589 209.597 178.454 209.797 178.281C210.003 178.104 210.157 177.894 210.259 177.651C210.362 177.408 210.413 177.14 210.413 176.846C210.413 176.249 210.217 175.798 209.825 175.495C209.433 175.192 208.845 175.04 208.061 175.04H206.577V178.827H208.005ZM212.639 184H211.435C211.188 184 211.006 183.904 210.889 183.713L208.285 180.129C208.206 180.017 208.12 179.938 208.026 179.891C207.938 179.84 207.798 179.814 207.606 179.814H206.577V184H205.226V173.969H208.061C208.696 173.969 209.244 174.034 209.706 174.165C210.168 174.291 210.549 174.475 210.847 174.718C211.151 174.961 211.375 175.255 211.519 175.6C211.664 175.941 211.736 176.323 211.736 176.748C211.736 177.103 211.68 177.434 211.568 177.742C211.456 178.05 211.293 178.328 211.078 178.575C210.868 178.818 210.609 179.025 210.301 179.198C209.998 179.371 209.653 179.501 209.265 179.59C209.438 179.688 209.587 179.83 209.713 180.017L212.639 184ZM218.004 179.681C218.004 179.392 217.962 179.128 217.878 178.89C217.799 178.647 217.68 178.44 217.521 178.267C217.367 178.09 217.178 177.954 216.954 177.861C216.73 177.763 216.476 177.714 216.191 177.714C215.594 177.714 215.12 177.889 214.77 178.239C214.425 178.584 214.21 179.065 214.126 179.681H218.004ZM219.012 183.006C218.858 183.193 218.674 183.356 218.459 183.496C218.245 183.631 218.014 183.743 217.766 183.832C217.524 183.921 217.272 183.986 217.01 184.028C216.749 184.075 216.49 184.098 216.233 184.098C215.743 184.098 215.291 184.016 214.875 183.853C214.465 183.685 214.108 183.442 213.804 183.125C213.506 182.803 213.272 182.406 213.104 181.935C212.936 181.464 212.852 180.922 212.852 180.311C212.852 179.816 212.927 179.354 213.076 178.925C213.23 178.496 213.45 178.125 213.734 177.812C214.019 177.495 214.367 177.247 214.777 177.07C215.188 176.888 215.65 176.797 216.163 176.797C216.588 176.797 216.98 176.869 217.339 177.014C217.703 177.154 218.016 177.359 218.277 177.63C218.543 177.896 218.751 178.227 218.9 178.624C219.05 179.016 219.124 179.464 219.124 179.968C219.124 180.164 219.103 180.295 219.061 180.36C219.019 180.425 218.94 180.458 218.823 180.458H214.084C214.098 180.906 214.159 181.296 214.266 181.627C214.378 181.958 214.532 182.236 214.728 182.46C214.924 182.679 215.158 182.845 215.428 182.957C215.699 183.064 216.002 183.118 216.338 183.118C216.651 183.118 216.919 183.083 217.143 183.013C217.372 182.938 217.568 182.859 217.731 182.775C217.895 182.691 218.03 182.614 218.137 182.544C218.249 182.469 218.345 182.432 218.424 182.432C218.527 182.432 218.606 182.472 218.662 182.551L219.012 183.006ZM226.581 176.909L223.69 184H222.57L219.679 176.909H220.694C220.796 176.909 220.88 176.935 220.946 176.986C221.011 177.037 221.055 177.098 221.079 177.168L222.878 181.732C222.934 181.905 222.983 182.073 223.025 182.236C223.067 182.399 223.106 182.563 223.144 182.726C223.181 182.563 223.221 182.399 223.263 182.236C223.305 182.073 223.356 181.905 223.417 181.732L225.237 177.168C225.265 177.093 225.311 177.033 225.377 176.986C225.442 176.935 225.519 176.909 225.608 176.909H226.581ZM229.039 176.909V184H227.793V176.909H229.039ZM229.305 174.683C229.305 174.804 229.28 174.919 229.228 175.026C229.182 175.129 229.116 175.222 229.032 175.306C228.953 175.385 228.857 175.448 228.745 175.495C228.638 175.542 228.524 175.565 228.402 175.565C228.281 175.565 228.167 175.542 228.059 175.495C227.957 175.448 227.866 175.385 227.786 175.306C227.707 175.222 227.644 175.129 227.597 175.026C227.551 174.919 227.527 174.804 227.527 174.683C227.527 174.562 227.551 174.447 227.597 174.34C227.644 174.228 227.707 174.132 227.786 174.053C227.866 173.969 227.957 173.904 228.059 173.857C228.167 173.81 228.281 173.787 228.402 173.787C228.524 173.787 228.638 173.81 228.745 173.857C228.857 173.904 228.953 173.969 229.032 174.053C229.116 174.132 229.182 174.228 229.228 174.34C229.28 174.447 229.305 174.562 229.305 174.683ZM235.833 179.681C235.833 179.392 235.791 179.128 235.707 178.89C235.627 178.647 235.508 178.44 235.35 178.267C235.196 178.09 235.007 177.954 234.783 177.861C234.559 177.763 234.304 177.714 234.02 177.714C233.422 177.714 232.949 177.889 232.599 178.239C232.253 178.584 232.039 179.065 231.955 179.681H235.833ZM236.841 183.006C236.687 183.193 236.502 183.356 236.288 183.496C236.073 183.631 235.842 183.743 235.595 183.832C235.352 183.921 235.1 183.986 234.839 184.028C234.577 184.075 234.318 184.098 234.062 184.098C233.572 184.098 233.119 184.016 232.704 183.853C232.293 183.685 231.936 183.442 231.633 183.125C231.334 182.803 231.101 182.406 230.933 181.935C230.765 181.464 230.681 180.922 230.681 180.311C230.681 179.816 230.755 179.354 230.905 178.925C231.059 178.496 231.278 178.125 231.563 177.812C231.847 177.495 232.195 177.247 232.606 177.07C233.016 176.888 233.478 176.797 233.992 176.797C234.416 176.797 234.808 176.869 235.168 177.014C235.532 177.154 235.844 177.359 236.106 177.63C236.372 177.896 236.579 178.227 236.729 178.624C236.878 179.016 236.953 179.464 236.953 179.968C236.953 180.164 236.932 180.295 236.89 180.36C236.848 180.425 236.768 180.458 236.652 180.458H231.913C231.927 180.906 231.987 181.296 232.095 181.627C232.207 181.958 232.361 182.236 232.557 182.46C232.753 182.679 232.986 182.845 233.257 182.957C233.527 183.064 233.831 183.118 234.167 183.118C234.479 183.118 234.748 183.083 234.972 183.013C235.2 182.938 235.396 182.859 235.56 182.775C235.723 182.691 235.858 182.614 235.966 182.544C236.078 182.469 236.173 182.432 236.253 182.432C236.355 182.432 236.435 182.472 236.491 182.551L236.841 183.006ZM248.194 176.909L245.898 184H244.911C244.789 184 244.705 183.921 244.659 183.762L243.091 178.953C243.053 178.846 243.023 178.738 243 178.631C242.976 178.519 242.953 178.409 242.93 178.302C242.906 178.409 242.883 178.519 242.86 178.631C242.836 178.738 242.806 178.848 242.769 178.96L241.173 183.762C241.131 183.921 241.037 184 240.893 184H239.955L237.659 176.909H238.639C238.737 176.909 238.818 176.935 238.884 176.986C238.954 177.037 239 177.098 239.024 177.168L240.382 181.732C240.461 182.068 240.524 182.385 240.571 182.684C240.613 182.53 240.655 182.374 240.697 182.215C240.743 182.056 240.792 181.895 240.844 181.732L242.342 177.14C242.365 177.07 242.405 177.012 242.461 176.965C242.521 176.918 242.594 176.895 242.678 176.895H243.224C243.317 176.895 243.394 176.918 243.455 176.965C243.515 177.012 243.557 177.07 243.581 177.14L245.044 181.732C245.095 181.895 245.142 182.056 245.184 182.215C245.226 182.374 245.265 182.53 245.303 182.684C245.326 182.53 245.354 182.376 245.387 182.222C245.424 182.063 245.464 181.9 245.506 181.732L246.892 177.168C246.915 177.093 246.959 177.033 247.025 176.986C247.09 176.935 247.167 176.909 247.256 176.909H248.194ZM253.482 178.078C253.426 178.181 253.34 178.232 253.223 178.232C253.153 178.232 253.074 178.206 252.985 178.155C252.897 178.104 252.787 178.048 252.656 177.987C252.53 177.922 252.379 177.863 252.201 177.812C252.024 177.756 251.814 177.728 251.571 177.728C251.361 177.728 251.172 177.756 251.004 177.812C250.836 177.863 250.692 177.936 250.57 178.029C250.454 178.122 250.363 178.232 250.297 178.358C250.237 178.479 250.206 178.612 250.206 178.757C250.206 178.939 250.258 179.091 250.36 179.212C250.468 179.333 250.608 179.438 250.78 179.527C250.953 179.616 251.149 179.695 251.368 179.765C251.588 179.83 251.812 179.903 252.04 179.982C252.274 180.057 252.5 180.141 252.719 180.234C252.939 180.327 253.135 180.444 253.307 180.584C253.48 180.724 253.618 180.897 253.72 181.102C253.828 181.303 253.881 181.545 253.881 181.83C253.881 182.157 253.823 182.46 253.706 182.74C253.59 183.015 253.417 183.256 253.188 183.461C252.96 183.662 252.68 183.82 252.348 183.937C252.017 184.054 251.634 184.112 251.2 184.112C250.706 184.112 250.258 184.033 249.856 183.874C249.455 183.711 249.114 183.503 248.834 183.251L249.128 182.775C249.166 182.714 249.21 182.668 249.261 182.635C249.313 182.602 249.378 182.586 249.457 182.586C249.541 182.586 249.63 182.619 249.723 182.684C249.817 182.749 249.929 182.822 250.059 182.901C250.195 182.98 250.358 183.053 250.549 183.118C250.741 183.183 250.979 183.216 251.263 183.216C251.506 183.216 251.718 183.186 251.9 183.125C252.082 183.06 252.234 182.973 252.355 182.866C252.477 182.759 252.565 182.635 252.621 182.495C252.682 182.355 252.712 182.206 252.712 182.047C252.712 181.851 252.659 181.69 252.551 181.564C252.449 181.433 252.311 181.324 252.138 181.235C251.966 181.142 251.767 181.062 251.543 180.997C251.324 180.927 251.098 180.855 250.864 180.78C250.636 180.705 250.409 180.621 250.185 180.528C249.966 180.43 249.77 180.309 249.597 180.164C249.425 180.019 249.285 179.842 249.177 179.632C249.075 179.417 249.023 179.158 249.023 178.855C249.023 178.584 249.079 178.325 249.191 178.078C249.303 177.826 249.467 177.607 249.681 177.42C249.896 177.229 250.16 177.077 250.472 176.965C250.785 176.853 251.142 176.797 251.543 176.797C252.01 176.797 252.428 176.872 252.796 177.021C253.17 177.166 253.492 177.366 253.762 177.623L253.482 178.078Z" fill="white"/>
<path d="M180.029 143.836C180.186 143.392 180.814 143.392 180.971 143.836L182.599 148.446C182.811 149.045 183.378 149.446 184.014 149.446H189.093C189.587 149.446 189.782 150.087 189.37 150.362L185.409 153.01C184.839 153.391 184.6 154.11 184.828 154.757L186.374 159.135C186.535 159.588 186.025 159.984 185.625 159.717L181.334 156.848C180.829 156.511 180.171 156.511 179.666 156.848L175.375 159.717C174.975 159.984 174.465 159.588 174.626 159.135L176.172 154.757C176.4 154.11 176.161 153.391 175.591 153.01L171.63 150.362C171.218 150.087 171.413 149.446 171.907 149.446H176.986C177.622 149.446 178.189 149.045 178.401 148.446L180.029 143.836Z" fill="#FFEB37" stroke="black"/>
<path d="M146.696 153.64V149.856C146.696 149.499 146.72 149.104 146.768 148.672L143.176 153.64H146.696ZM149.872 153.64V154.784C149.872 154.891 149.837 154.984 149.768 155.064C149.699 155.139 149.6 155.176 149.472 155.176H148.416V158H146.696V155.176H141.816C141.683 155.176 141.565 155.136 141.464 155.056C141.363 154.971 141.299 154.867 141.272 154.744L141.064 153.744L146.544 146.424H148.416V153.64H149.872ZM150.969 156.912C150.969 156.747 150.999 156.589 151.057 156.44C151.121 156.291 151.207 156.163 151.313 156.056C151.42 155.949 151.548 155.864 151.697 155.8C151.847 155.736 152.007 155.704 152.177 155.704C152.348 155.704 152.505 155.736 152.649 155.8C152.799 155.864 152.927 155.949 153.033 156.056C153.145 156.163 153.233 156.291 153.297 156.44C153.361 156.589 153.393 156.747 153.393 156.912C153.393 157.083 153.361 157.243 153.297 157.392C153.233 157.536 153.145 157.661 153.033 157.768C152.927 157.875 152.799 157.957 152.649 158.016C152.505 158.08 152.348 158.112 152.177 158.112C152.007 158.112 151.847 158.08 151.697 158.016C151.548 157.957 151.42 157.875 151.313 157.768C151.207 157.661 151.121 157.536 151.057 157.392C150.999 157.243 150.969 157.083 150.969 156.912ZM156.718 149.904C156.718 150.549 156.883 151.043 157.214 151.384C157.55 151.72 158.025 151.888 158.638 151.888C158.958 151.888 159.243 151.837 159.494 151.736C159.745 151.635 159.955 151.496 160.126 151.32C160.297 151.144 160.425 150.936 160.51 150.696C160.601 150.456 160.646 150.197 160.646 149.92C160.646 149.605 160.598 149.325 160.502 149.08C160.406 148.829 160.27 148.619 160.094 148.448C159.918 148.277 159.707 148.147 159.462 148.056C159.222 147.965 158.958 147.92 158.67 147.92C158.371 147.92 158.102 147.971 157.862 148.072C157.622 148.168 157.417 148.304 157.246 148.48C157.075 148.656 156.945 148.867 156.854 149.112C156.763 149.352 156.718 149.616 156.718 149.904ZM159.342 153.512C159.433 153.4 159.518 153.291 159.598 153.184C159.678 153.077 159.755 152.971 159.83 152.864C159.563 153.035 159.27 153.165 158.95 153.256C158.63 153.341 158.294 153.384 157.942 153.384C157.542 153.384 157.15 153.315 156.766 153.176C156.382 153.037 156.041 152.829 155.742 152.552C155.443 152.269 155.201 151.923 155.014 151.512C154.833 151.096 154.742 150.611 154.742 150.056C154.742 149.539 154.838 149.053 155.03 148.6C155.222 148.147 155.491 147.749 155.838 147.408C156.185 147.067 156.601 146.797 157.086 146.6C157.571 146.403 158.107 146.304 158.694 146.304C159.286 146.304 159.817 146.397 160.286 146.584C160.761 146.771 161.163 147.032 161.494 147.368C161.83 147.704 162.086 148.107 162.262 148.576C162.443 149.045 162.534 149.56 162.534 150.12C162.534 150.477 162.502 150.816 162.438 151.136C162.379 151.456 162.294 151.765 162.182 152.064C162.07 152.357 161.934 152.645 161.774 152.928C161.614 153.211 161.435 153.491 161.238 153.768L158.59 157.544C158.499 157.672 158.363 157.781 158.182 157.872C158.001 157.957 157.795 158 157.566 158H155.75L159.342 153.512Z" fill="black"/>
<defs>
<filter id="filter0_i_825_20" x="166.814" y="71.8159" width="42.9634" height="43.9369" filterUnits="userSpaceOnUse" color-interpolation-filters="sRGB">
<feFlood flood-opacity="0" result="BackgroundImageFix"/>
<feBlend mode="normal" in="SourceGraphic" in2="BackgroundImageFix" result="shape"/>
<feColorMatrix in="SourceAlpha" type="matrix" values="0 0 0 0 0 0 0 0 0 0 0 0 0 0 0 0 0 0 127 0" result="hardAlpha"/>
<feOffset dx="0.555556" dy="-2.22222"/>
<feGaussianBlur stdDeviation="1.11111"/>
<feComposite in2="hardAlpha" operator="arithmetic" k2="-1" k3="1"/>
<feColorMatrix type="matrix" values="0 0 0 0 0.184314 0 0 0 0 0.196078 0 0 0 0 0.415686 0 0 0 0.2 0"/>
<feBlend mode="normal" in2="shape" result="effect1_innerShadow_825_20"/>
</filter>
<filter id="filter1_d_825_20" x="181.99" y="88.9199" width="12.0101" height="12.9249" filterUnits="userSpaceOnUse" color-interpolation-filters="sRGB">
<feFlood flood-opacity="0" result="BackgroundImageFix"/>
<feColorMatrix in="SourceAlpha" type="matrix" values="0 0 0 0 0 0 0 0 0 0 0 0 0 0 0 0 0 0 127 0" result="hardAlpha"/>
<feOffset dy="1.11111"/>
<feColorMatrix type="matrix" values="0 0 0 0 0.184314 0 0 0 0 0.196078 0 0 0 0 0.415686 0 0 0 0.2 0"/>
<feBlend mode="normal" in2="BackgroundImageFix" result="effect1_dropShadow_825_20"/>
<feBlend mode="normal" in="SourceGraphic" in2="effect1_dropShadow_825_20" result="shape"/>
</filter>
<filter id="filter2_i_825_20" x="111.466" y="42.6479" width="58.654" height="62.6649" filterUnits="userSpaceOnUse" color-interpolation-filters="sRGB">
<feFlood flood-opacity="0" result="BackgroundImageFix"/>
<feBlend mode="normal" in="SourceGraphic" in2="BackgroundImageFix" result="shape"/>
<feColorMatrix in="SourceAlpha" type="matrix" values="0 0 0 0 0 0 0 0 0 0 0 0 0 0 0 0 0 0 127 0" result="hardAlpha"/>
<feOffset dy="-2.22222"/>
<feGaussianBlur stdDeviation="1.11111"/>
<feComposite in2="hardAlpha" operator="arithmetic" k2="-1" k3="1"/>
<feColorMatrix type="matrix" values="0 0 0 0 0.184314 0 0 0 0 0.196078 0 0 0 0 0.415686 0 0 0 0.2 0"/>
<feBlend mode="normal" in2="shape" result="effect1_innerShadow_825_20"/>
</filter>
<filter id="filter3_d_825_20" x="131.994" y="66.4829" width="17.5031" height="18.3281" filterUnits="userSpaceOnUse" color-interpolation-filters="sRGB">
<feFlood flood-opacity="0" result="BackgroundImageFix"/>
<feColorMatrix in="SourceAlpha" type="matrix" values="0 0 0 0 0 0 0 0 0 0 0 0 0 0 0 0 0 0 127 0" result="hardAlpha"/>
<feOffset dy="1.11111"/>
<feColorMatrix type="matrix" values="0 0 0 0 0.184314 0 0 0 0 0.196078 0 0 0 0 0.415686 0 0 0 0.2 0"/>
<feBlend mode="normal" in2="BackgroundImageFix" result="effect1_dropShadow_825_20"/>
<feBlend mode="normal" in="SourceGraphic" in2="effect1_dropShadow_825_20" result="shape"/>
</filter>
</defs>
</svg>
