<svg width="65" height="65" viewBox="0 0 65 65" fill="none" xmlns="http://www.w3.org/2000/svg">
<path d="M24.375 0C22.1 0 19.9875 0.8125 18.525 2.275C17.0625 3.7375 16.25 5.85 16.25 8.125C16.25 10.4 17.7125 12.025 18.525 13.975C18.7687 14.4625 18.7687 15.275 18.7687 16.25H0V65H18.7687C18.7687 64.025 18.6875 63.2125 18.525 62.725C17.7125 60.775 16.25 59.15 16.25 56.875C16.25 54.6 17.0625 52.4875 18.525 51.025C19.9875 49.5625 22.1 48.75 24.375 48.75C26.65 48.75 28.7625 49.5625 30.225 51.025C31.6875 52.4875 32.5 54.6 32.5 56.875C32.5 59.15 31.0375 60.775 30.225 62.725C29.9813 63.2125 29.9813 64.025 29.9813 65H48.75V46.2313C49.725 46.2313 50.5375 46.3125 51.025 46.475C52.975 47.2875 54.6 48.75 56.875 48.75C59.15 48.75 61.2625 47.9375 62.725 46.475C64.1875 45.0125 65 42.9 65 40.625C65 38.35 64.1875 36.2375 62.725 34.775C61.2625 33.3125 59.15 32.5 56.875 32.5C54.6 32.5 52.975 33.9625 51.025 34.775C50.5375 35.0188 49.725 35.0187 48.75 35.0187V16.25H29.9813C29.9813 15.275 30.0625 14.4625 30.225 13.975C31.0375 12.025 32.5 10.4 32.5 8.125C32.5 5.85 31.6875 3.7375 30.225 2.275C28.7625 0.8125 26.65 0 24.375 0Z" fill="black"/>
</svg>
