<?xml version="1.0" encoding="utf-8" ?>
<svg xmlns="http://www.w3.org/2000/svg">
  <symbol xmlns="http://www.w3.org/2000/svg" id="x" viewBox="0 0 20 20" fill="none">
    <g clip-path="url(#clip0_715_2857)">
        <path d="M11.8609 8.46429L19.1425 0H17.417L11.0943 7.34942L6.04448 0H0.220062L7.85644 11.1136L0.220062 19.9897H1.94567L8.62252 12.2285L13.9555 19.9897H19.78L11.8604 8.46429H11.8609ZM9.49741 11.2115L8.72368 10.1049L2.56743 1.29901H5.21786L10.186 8.40562L10.9598 9.51229L17.4178 18.7498H14.7673L9.49741 11.212V11.2115Z" fill="#151515"/>
    </g>
    <defs>
        <clipPath id="clip0_715_2857">
        <rect width="20" height="20" fill="white"/>
        </clipPath>
    </defs>
  </symbol>

  <symbol xmlns="http://www.w3.org/2000/svg" id="in" viewBox="0 0 24 24" fill="none">
    <g clip-path="url(#clip0_715_2863)">
        <path d="M19.9761 19.7839H16.5858V14.5268C16.5858 13.2731 16.5632 11.6594 14.8225 11.6594C13.0567 11.6594 12.7865 13.0253 12.7865 14.4355V19.7835H9.39618V8.9728H12.6509V10.4502H12.6965C13.0222 9.89877 13.4928 9.44514 14.0583 9.13762C14.6239 8.8301 15.263 8.6802 15.9077 8.7039C19.3439 8.7039 19.9775 10.9419 19.9775 13.8533L19.9761 19.7839ZM5.57078 7.49506C5.18166 7.49512 4.80124 7.38094 4.47766 7.16695C4.15407 6.95294 3.90186 6.64874 3.75289 6.29281C3.60392 5.93687 3.56487 5.54518 3.64071 5.16729C3.71656 4.78938 3.90389 4.44224 4.17899 4.16975C4.45409 3.89725 4.80463 3.71166 5.18626 3.63642C5.5679 3.56119 5.96348 3.59969 6.32301 3.74707C6.68254 3.89446 6.98986 4.14409 7.2061 4.46441C7.42235 4.78473 7.53781 5.16135 7.53787 5.54664C7.53792 5.80246 7.48707 6.05579 7.38824 6.29216C7.28941 6.52853 7.14454 6.74331 6.96188 6.92423C6.77921 7.10516 6.56234 7.24869 6.32366 7.34663C6.08497 7.44458 5.82915 7.49501 5.57078 7.49506ZM7.26593 19.7839H3.87209V8.9728H7.26593V19.7839ZM21.6663 0.481524H2.16846C1.72592 0.476579 1.29947 0.645802 0.982869 0.952007C0.666268 1.25821 0.485412 1.67634 0.480011 2.11453V21.5004C0.485228 21.9389 0.665977 22.3572 0.982571 22.6638C1.29916 22.9703 1.7257 23.1398 2.16846 23.1352H21.6663C22.11 23.1407 22.5377 22.9716 22.8555 22.6651C23.1734 22.3586 23.3554 21.9397 23.3615 21.5004V2.11313C23.3552 1.67408 23.1731 1.25547 22.8552 0.949271C22.5374 0.643074 22.1098 0.474334 21.6663 0.480125" fill="#151515"/>
    </g>
    <defs>
        <clipPath id="clip0_715_2863">
        <rect width="24" height="24" fill="white"/>
        </clipPath>
    </defs>
  </symbol>

  <symbol xmlns="http://www.w3.org/2000/svg" id="youtube" viewBox="0 0 24 24" fill="none">
    <g clip-path="url(#clip0_715_2869)">
        <mask id="mask0_715_2869" style="mask-type:luminance" maskUnits="userSpaceOnUse" x="0" y="0" width="24" height="25">
        <path d="M0 0.266113H24V24.2661H0V0.266113Z" fill="white"/>
        </mask>
        <g mask="url(#mask0_715_2869)">
        <mask id="mask1_715_2869" style="mask-type:luminance" maskUnits="userSpaceOnUse" x="0" y="3" width="25" height="18">
            <path d="M0.5 3.76611H24.5V20.6171H0.5V3.76611Z" fill="white"/>
        </mask>
        <g mask="url(#mask1_715_2869)">
            <path fill-rule="evenodd" clip-rule="evenodd" d="M21.877 4.26911C22.3861 4.40681 22.8502 4.67587 23.2226 5.04934C23.595 5.42282 23.8627 5.88759 23.999 6.39711C24.5 8.27411 24.5 12.1911 24.5 12.1911C24.5 12.1911 24.5 16.1081 23.998 17.9851C23.862 18.4947 23.5945 18.9596 23.2222 19.3333C22.85 19.7069 22.3861 19.9762 21.877 20.1141C20.005 20.6171 12.5 20.6171 12.5 20.6171C12.5 20.6171 4.995 20.6171 3.123 20.1141C2.61393 19.9762 2.15004 19.7069 1.77779 19.3333C1.40555 18.9596 1.13802 18.4947 1.002 17.9851C0.5 16.1081 0.5 12.1911 0.5 12.1911C0.5 12.1911 0.5 8.27411 1.002 6.39711C1.13817 5.88771 1.40577 5.42302 1.778 5.04955C2.15024 4.67609 2.61405 4.40696 3.123 4.26911C4.995 3.76611 12.5 3.76611 12.5 3.76611C12.5 3.76611 20.005 3.76611 21.877 4.26911ZM16.32 12.1901L10.047 15.7461V8.63511L16.32 12.1911V12.1901Z" fill="#151515"/>
        </g>
        </g>
    </g>
    <defs>
        <clipPath id="clip0_715_2869">
        <rect width="24" height="24" fill="white"/>
        </clipPath>
    </defs>
  </symbol>

  <symbol xmlns="http://www.w3.org/2000/svg" id="github" viewBox="0 0 24 24" fill="none">
    <path d="M11.9906 1.78809C6.19453 1.78574 1.5 6.47793 1.5 12.2693C1.5 16.849 4.43672 20.742 8.52656 22.1717C9.07734 22.31 8.99297 21.9186 8.99297 21.6514V19.835C5.8125 20.2076 5.68359 18.1029 5.47031 17.7514C5.03906 17.0154 4.01953 16.8279 4.32422 16.4764C5.04844 16.1037 5.78672 16.5701 6.64219 17.8334C7.26094 18.7498 8.46797 18.5951 9.07969 18.4428C9.21328 17.892 9.49922 17.3998 9.89297 17.0178C6.59766 16.4271 5.22422 14.4162 5.22422 12.0256C5.22422 10.8654 5.60625 9.79902 6.35625 8.93887C5.87812 7.5209 6.40078 6.30684 6.47109 6.12637C7.83281 6.00449 9.24844 7.10137 9.35859 7.18809C10.132 6.97949 11.0156 6.86934 12.0047 6.86934C12.9984 6.86934 13.8844 6.98418 14.6648 7.19512C14.9297 6.99355 16.2422 6.05137 17.5078 6.16621C17.5758 6.34668 18.0867 7.53262 17.6367 8.93184C18.3961 9.79434 18.7828 10.8701 18.7828 12.0326C18.7828 14.4279 17.4 16.4412 14.0953 17.0225C14.3784 17.3008 14.6031 17.6328 14.7564 17.999C14.9098 18.3652 14.9886 18.7583 14.9883 19.1553V21.792C15.007 22.0029 14.9883 22.2115 15.3398 22.2115C19.4906 20.8123 22.4789 16.8912 22.4789 12.2717C22.4789 6.47793 17.782 1.78809 11.9906 1.78809Z" fill="#151515"/>
  </symbol>

  <symbol id="menu" style="enable-background:new 0 0 32 32;" version="1.1" viewBox="0 0 32 32">
    <path d="M4,10h24c1.104,0,2-0.896,2-2s-0.896-2-2-2H4C2.896,6,2,6.896,2,8S2.896,10,4,10z M28,14H4c-1.104,0-2,0.896-2,2  s0.896,2,2,2h24c1.104,0,2-0.896,2-2S29.104,14,28,14z M28,22H4c-1.104,0-2,0.896-2,2s0.896,2,2,2h24c1.104,0,2-0.896,2-2  S29.104,22,28,22z"/>
  </symbol>

  <symbol xmlns="http://www.w3.org/2000/svg" id="true" viewBox="0 0 21 20" fill="none">
    <g clip-path="url(#clip0_714_69)">
      <path d="M6.99283 17.1642L0.492832 10.6642C0.102324 10.2737 0.102324 9.64057 0.492832 9.24999L1.90701 7.83578C2.29752 7.44521 2.93072 7.44521 3.32123 7.83578L7.69995 12.2144L17.0787 2.83577C17.4692 2.44527 18.1024 2.44527 18.4929 2.83577L19.907 4.24999C20.2976 4.6405 20.2976 5.27367 19.907 5.66421L8.40702 17.1643C8.01652 17.5548 7.38331 17.5548 6.99283 17.1642Z" fill="#151515"/>
    </g>
    <defs>
      <clipPath id="clip0_714_69">
        <rect width="20" height="20" fill="white" transform="translate(0.199951)"/>
      </clipPath>
    </defs>
  </symbol>

  <symbol xmlns="http://www.w3.org/2000/svg" id="false" viewBox="0 0 21 20" fill="none">
    <path fill-rule="evenodd" clip-rule="evenodd" d="M10.2642 7.8196L4.44454 2L2.19995 4.24459L8.01955 10.0642L2.32832 15.7554L4.57291 18L10.2642 12.3088L15.6675 17.7121L17.9121 15.4675L12.5088 10.0642L18.0405 4.53248L15.7959 2.28789L10.2642 7.8196Z" fill="#141414" fill-opacity="0.5"/>
  </symbol>
</svg>
